<svg width="152" height="213" viewBox="0 0 152 213" fill="none" xmlns="http://www.w3.org/2000/svg">
<g opacity="0.5">
<path opacity="0.0196" d="M70.7 211.31C109.067 211.31 140.17 193.352 140.17 171.2C140.17 149.048 109.067 131.09 70.7 131.09C32.3328 131.09 1.22998 149.048 1.22998 171.2C1.22998 193.352 32.3328 211.31 70.7 211.31Z" fill="#C0E5E8"/>
<path opacity="0.0392" d="M70.7 210.6C108.388 210.6 138.94 192.96 138.94 171.2C138.94 149.44 108.388 131.8 70.7 131.8C33.012 131.8 2.45996 149.44 2.45996 171.2C2.45996 192.96 33.012 210.6 70.7 210.6Z" fill="#C0E5E8"/>
<path opacity="0.0588" d="M70.7001 209.89C107.714 209.89 137.72 192.568 137.72 171.2C137.72 149.832 107.714 132.51 70.7001 132.51C33.6859 132.51 3.68005 149.832 3.68005 171.2C3.68005 192.568 33.6859 209.89 70.7001 209.89Z" fill="#C0E5E8"/>
<path opacity="0.0784" d="M70.7 209.18C107.035 209.18 136.49 192.176 136.49 171.2C136.49 150.224 107.035 133.22 70.7 133.22C34.3652 133.22 4.91003 150.224 4.91003 171.2C4.91003 192.176 34.3652 209.18 70.7 209.18Z" fill="#C0E5E8"/>
<path opacity="0.098" d="M70.7 208.47C106.356 208.47 135.26 191.784 135.26 171.2C135.26 150.617 106.356 133.93 70.7 133.93C35.0445 133.93 6.14001 150.617 6.14001 171.2C6.14001 191.784 35.0445 208.47 70.7 208.47Z" fill="#C0E5E8"/>
<path opacity="0.1176" d="M70.7 207.76C105.676 207.76 134.03 191.392 134.03 171.2C134.03 151.009 105.676 134.64 70.7 134.64C35.7238 134.64 7.37 151.009 7.37 171.2C7.37 191.392 35.7238 207.76 70.7 207.76Z" fill="#C0E5E8"/>
<path opacity="0.1373" d="M70.7 207.05C104.997 207.05 132.8 190.999 132.8 171.2C132.8 151.401 104.997 135.35 70.7 135.35C36.4031 135.35 8.59998 151.401 8.59998 171.2C8.59998 190.999 36.4031 207.05 70.7 207.05Z" fill="#C0E5E8"/>
<path opacity="0.1569" d="M70.7 206.34C104.318 206.34 131.57 190.607 131.57 171.2C131.57 151.793 104.318 136.06 70.7 136.06C37.0824 136.06 9.82996 151.793 9.82996 171.2C9.82996 190.607 37.0824 206.34 70.7 206.34Z" fill="#C0E5E8"/>
<path opacity="0.1765" d="M70.7001 205.63C103.638 205.63 130.34 190.215 130.34 171.2C130.34 152.185 103.638 136.77 70.7001 136.77C37.7618 136.77 11.0601 152.185 11.0601 171.2C11.0601 190.215 37.7618 205.63 70.7001 205.63Z" fill="#C0E5E8"/>
<path opacity="0.1961" d="M70.7 204.92C102.959 204.92 129.11 189.823 129.11 171.2C129.11 152.577 102.959 137.48 70.7 137.48C38.4411 137.48 12.29 152.577 12.29 171.2C12.29 189.823 38.4411 204.92 70.7 204.92Z" fill="#C0E5E8"/>
<path opacity="0.2157" d="M70.7 204.21C102.28 204.21 127.88 189.431 127.88 171.2C127.88 152.969 102.28 138.19 70.7 138.19C39.1204 138.19 13.52 152.969 13.52 171.2C13.52 189.431 39.1204 204.21 70.7 204.21Z" fill="#C0E5E8"/>
<path opacity="0.2353" d="M70.7 203.51C101.6 203.51 126.65 189.044 126.65 171.2C126.65 153.356 101.6 138.89 70.7 138.89C39.7997 138.89 14.75 153.356 14.75 171.2C14.75 189.044 39.7997 203.51 70.7 203.51Z" fill="#C0E5E8"/>
<path opacity="0.2549" d="M70.7 202.8C100.927 202.8 125.43 188.652 125.43 171.2C125.43 153.748 100.927 139.6 70.7 139.6C40.4734 139.6 15.97 153.748 15.97 171.2C15.97 188.652 40.4734 202.8 70.7 202.8Z" fill="#C0E5E8"/>
<path opacity="0.2745" d="M70.6999 202.09C100.247 202.09 124.2 188.26 124.2 171.2C124.2 154.14 100.247 140.31 70.6999 140.31C41.1527 140.31 17.2 154.14 17.2 171.2C17.2 188.26 41.1527 202.09 70.6999 202.09Z" fill="#C0E5E8"/>
<path opacity="0.2941" d="M70.7001 201.38C99.568 201.38 122.97 187.868 122.97 171.2C122.97 154.532 99.568 141.02 70.7001 141.02C41.8321 141.02 18.4301 154.532 18.4301 171.2C18.4301 187.868 41.8321 201.38 70.7001 201.38Z" fill="#C0E5E8"/>
<path opacity="0.3137" d="M70.7 200.67C98.8886 200.67 121.74 187.476 121.74 171.2C121.74 154.924 98.8886 141.73 70.7 141.73C42.5114 141.73 19.66 154.924 19.66 171.2C19.66 187.476 42.5114 200.67 70.7 200.67Z" fill="#C0E5E8"/>
<path opacity="0.3333" d="M70.7 199.96C98.2093 199.96 120.51 187.084 120.51 171.2C120.51 155.316 98.2093 142.44 70.7 142.44C43.1907 142.44 20.89 155.316 20.89 171.2C20.89 187.084 43.1907 199.96 70.7 199.96Z" fill="#C0E5E8"/>
<path opacity="0.3529" d="M70.7 199.25C97.53 199.25 119.28 186.692 119.28 171.2C119.28 155.709 97.53 143.15 70.7 143.15C43.87 143.15 22.12 155.709 22.12 171.2C22.12 186.692 43.87 199.25 70.7 199.25Z" fill="#C0E5E8"/>
<path opacity="0.3725" d="M70.7 198.54C96.8507 198.54 118.05 186.3 118.05 171.2C118.05 156.101 96.8507 143.86 70.7 143.86C44.5493 143.86 23.35 156.101 23.35 171.2C23.35 186.3 44.5493 198.54 70.7 198.54Z" fill="#C0E5E8"/>
<path opacity="0.3922" d="M70.7 197.83C96.1713 197.83 116.82 185.907 116.82 171.2C116.82 156.493 96.1713 144.57 70.7 144.57C45.2286 144.57 24.58 156.493 24.58 171.2C24.58 185.907 45.2286 197.83 70.7 197.83Z" fill="#C0E5E8"/>
<path opacity="0.4118" d="M70.7001 197.12C95.4921 197.12 115.59 185.515 115.59 171.2C115.59 156.885 95.4921 145.28 70.7001 145.28C45.908 145.28 25.8101 156.885 25.8101 171.2C25.8101 185.515 45.908 197.12 70.7001 197.12Z" fill="#C0E5E8"/>
<path opacity="0.4314" d="M70.7 196.41C94.8128 196.41 114.36 185.123 114.36 171.2C114.36 157.277 94.8128 145.99 70.7 145.99C46.5873 145.99 27.04 157.277 27.04 171.2C27.04 185.123 46.5873 196.41 70.7 196.41Z" fill="#C0E5E8"/>
<path opacity="0.451" d="M70.7 195.7C94.139 195.7 113.14 184.731 113.14 171.2C113.14 157.669 94.139 146.7 70.7 146.7C47.261 146.7 28.26 157.669 28.26 171.2C28.26 184.731 47.261 195.7 70.7 195.7Z" fill="#C0E5E8"/>
<path opacity="0.4706" d="M70.7 194.99C93.4596 194.99 111.91 184.339 111.91 171.2C111.91 158.061 93.4596 147.41 70.7 147.41C47.9403 147.41 29.49 158.061 29.49 171.2C29.49 184.339 47.9403 194.99 70.7 194.99Z" fill="#C0E5E8"/>
<path opacity="0.4902" d="M70.7 194.28C92.7803 194.28 110.68 183.947 110.68 171.2C110.68 158.453 92.7803 148.12 70.7 148.12C48.6196 148.12 30.72 158.453 30.72 171.2C30.72 183.947 48.6196 194.28 70.7 194.28Z" fill="#C0E5E8"/>
<path opacity="0.5098" d="M70.6999 193.57C92.101 193.57 109.45 183.555 109.45 171.2C109.45 158.845 92.101 148.83 70.6999 148.83C49.2989 148.83 31.95 158.845 31.95 171.2C31.95 183.555 49.2989 193.57 70.6999 193.57Z" fill="#C0E5E8"/>
<path opacity="0.5294" d="M70.7001 192.86C91.4218 192.86 108.22 183.163 108.22 171.2C108.22 159.238 91.4218 149.54 70.7001 149.54C49.9783 149.54 33.1801 159.238 33.1801 171.2C33.1801 183.163 49.9783 192.86 70.7001 192.86Z" fill="#C0E5E8"/>
<path opacity="0.549" d="M70.7 192.15C90.7424 192.15 106.99 182.771 106.99 171.2C106.99 159.63 90.7424 150.25 70.7 150.25C50.6576 150.25 34.41 159.63 34.41 171.2C34.41 182.771 50.6576 192.15 70.7 192.15Z" fill="#C0E5E8"/>
<path opacity="0.5686" d="M70.7 191.44C90.0631 191.44 105.76 182.378 105.76 171.2C105.76 160.022 90.0631 150.96 70.7 150.96C51.3369 150.96 35.64 160.022 35.64 171.2C35.64 182.378 51.3369 191.44 70.7 191.44Z" fill="#C0E5E8"/>
<path opacity="0.5882" d="M70.7 190.73C89.3838 190.73 104.53 181.986 104.53 171.2C104.53 160.414 89.3838 151.67 70.7 151.67C52.0162 151.67 36.87 160.414 36.87 171.2C36.87 181.986 52.0162 190.73 70.7 190.73Z" fill="#C0E5E8"/>
<path opacity="0.6078" d="M70.7 190.02C88.7045 190.02 103.3 181.594 103.3 171.2C103.3 160.806 88.7045 152.38 70.7 152.38C52.6955 152.38 38.1 160.806 38.1 171.2C38.1 181.594 52.6955 190.02 70.7 190.02Z" fill="#C0E5E8"/>
<path opacity="0.6275" d="M70.7 189.31C88.0251 189.31 102.07 181.202 102.07 171.2C102.07 161.198 88.0251 153.09 70.7 153.09C53.3748 153.09 39.33 161.198 39.33 171.2C39.33 181.202 53.3748 189.31 70.7 189.31Z" fill="#C0E5E8"/>
<path opacity="0.6471" d="M70.7 188.6C87.3514 188.6 100.85 180.81 100.85 171.2C100.85 161.59 87.3514 153.8 70.7 153.8C54.0487 153.8 40.55 161.59 40.55 171.2C40.55 180.81 54.0487 188.6 70.7 188.6Z" fill="#C0E5E8"/>
<path opacity="0.6667" d="M70.7 187.89C86.6721 187.89 99.62 180.418 99.62 171.2C99.62 161.982 86.6721 154.51 70.7 154.51C54.728 154.51 41.78 161.982 41.78 171.2C41.78 180.418 54.728 187.89 70.7 187.89Z" fill="#C0E5E8"/>
<path opacity="0.6863" d="M70.7 187.19C85.9928 187.19 98.39 180.031 98.39 171.2C98.39 162.369 85.9928 155.21 70.7 155.21C55.4072 155.21 43.01 162.369 43.01 171.2C43.01 180.031 55.4072 187.19 70.7 187.19Z" fill="#C0E5E8"/>
<path opacity="0.7059" d="M70.7 186.48C85.3134 186.48 97.16 179.639 97.16 171.2C97.16 162.761 85.3134 155.92 70.7 155.92C56.0865 155.92 44.24 162.761 44.24 171.2C44.24 179.639 56.0865 186.48 70.7 186.48Z" fill="#C0E5E8"/>
<path opacity="0.7255" d="M70.7 185.77C84.6341 185.77 95.93 179.247 95.93 171.2C95.93 163.153 84.6341 156.63 70.7 156.63C56.7658 156.63 45.47 163.153 45.47 171.2C45.47 179.247 56.7658 185.77 70.7 185.77Z" fill="#C0E5E8"/>
<path opacity="0.7451" d="M70.6999 185.06C83.9548 185.06 94.6999 178.855 94.6999 171.2C94.6999 163.545 83.9548 157.34 70.6999 157.34C57.4451 157.34 46.7 163.545 46.7 171.2C46.7 178.855 57.4451 185.06 70.6999 185.06Z" fill="#C0E5E8"/>
<path opacity="0.7647" d="M70.7001 184.35C83.2756 184.35 93.4701 178.463 93.4701 171.2C93.4701 163.937 83.2756 158.05 70.7001 158.05C58.1245 158.05 47.9301 163.937 47.9301 171.2C47.9301 178.463 58.1245 184.35 70.7001 184.35Z" fill="#C0E5E8"/>
<path opacity="0.7843" d="M70.7 183.64C82.5962 183.64 92.24 178.07 92.24 171.2C92.24 164.33 82.5962 158.76 70.7 158.76C58.8038 158.76 49.16 164.33 49.16 171.2C49.16 178.07 58.8038 183.64 70.7 183.64Z" fill="#C0E5E8"/>
<path opacity="0.8039" d="M70.7 182.93C81.9169 182.93 91.01 177.679 91.01 171.2C91.01 164.722 81.9169 159.47 70.7 159.47C59.4831 159.47 50.39 164.722 50.39 171.2C50.39 177.679 59.4831 182.93 70.7 182.93Z" fill="#C0E5E8"/>
<path opacity="0.8235" d="M70.7 182.22C81.2376 182.22 89.78 177.286 89.78 171.2C89.78 165.114 81.2376 160.18 70.7 160.18C60.1624 160.18 51.62 165.114 51.62 171.2C51.62 177.286 60.1624 182.22 70.7 182.22Z" fill="#C0E5E8"/>
<path opacity="0.8431" d="M70.7 181.51C80.5638 181.51 88.56 176.894 88.56 171.2C88.56 165.506 80.5638 160.89 70.7 160.89C60.8362 160.89 52.84 165.506 52.84 171.2C52.84 176.894 60.8362 181.51 70.7 181.51Z" fill="#C0E5E8"/>
<path opacity="0.8627" d="M70.6999 180.8C79.8844 180.8 87.3299 176.502 87.3299 171.2C87.3299 165.898 79.8844 161.6 70.6999 161.6C61.5154 161.6 54.0699 165.898 54.0699 171.2C54.0699 176.502 61.5154 180.8 70.6999 180.8Z" fill="#C0E5E8"/>
<path opacity="0.8824" d="M81.59 164.91C87.6 168.38 87.6 174.01 81.59 177.48C75.58 180.95 65.83 180.95 59.81 177.48C53.8 174.01 53.8 168.38 59.81 164.91C65.83 161.44 75.58 161.44 81.59 164.91Z" fill="#C0E5E8"/>
<path opacity="0.902" d="M80.72 165.41C86.25 168.6 86.25 173.78 80.72 176.98C75.19 180.17 66.22 180.17 60.68 176.98C55.15 173.79 55.15 168.61 60.68 165.41C66.22 162.22 75.19 162.22 80.72 165.41Z" fill="#C0E5E8"/>
<path opacity="0.9216" d="M70.7 178.67C77.8466 178.67 83.64 175.326 83.64 171.2C83.64 167.075 77.8466 163.73 70.7 163.73C63.5534 163.73 57.76 167.075 57.76 171.2C57.76 175.326 63.5534 178.67 70.7 178.67Z" fill="#C0E5E8"/>
<path opacity="0.9412" d="M78.9801 166.41C83.5501 169.05 83.5501 173.33 78.9801 175.97C74.4101 178.61 66.9901 178.61 62.4201 175.97C57.8501 173.33 57.8501 169.05 62.4201 166.41C66.9901 163.77 74.4101 163.77 78.9801 166.41Z" fill="#C0E5E8"/>
<path opacity="0.9608" d="M78.11 166.92C82.2 169.28 82.2 173.12 78.11 175.48C74.02 177.84 67.38 177.84 63.29 175.48C59.2 173.12 59.2 169.28 63.29 166.92C67.38 164.55 74.02 164.55 78.11 166.92Z" fill="#C0E5E8"/>
<path opacity="0.9804" d="M77.24 167.42C80.85 169.51 80.85 172.89 77.24 174.97C73.63 177.06 67.77 177.06 64.15 174.97C60.54 172.88 60.54 169.5 64.15 167.42C67.77 165.33 73.63 165.33 77.24 167.42Z" fill="#C0E5E8"/>
<path d="M70.7001 175.83C75.1294 175.83 78.7201 173.757 78.7201 171.2C78.7201 168.643 75.1294 166.57 70.7001 166.57C66.2707 166.57 62.6801 168.643 62.6801 171.2C62.6801 173.757 66.2707 175.83 70.7001 175.83Z" fill="#C0E5E8"/>
</g>
<path d="M47.5501 156.37L46.5801 156.93L38.3201 152.16L39.2801 151.6L47.5501 156.37Z" fill="#C0E5E8"/>
<path d="M42.2501 160.57L41.5601 161.25L31.4401 157.88L32.1301 157.19L42.2501 160.57Z" fill="#C0E5E8"/>
<path d="M39.01 165.41L38.65 166.18L27.37 164.43L27.72 163.67L39.01 165.41Z" fill="#C0E5E8"/>
<path d="M26.3676 170.575V171.365H38.0475V170.575H26.3676Z" fill="#C0E5E8"/>
<path d="M39.45 175.71L39.8 176.47L28.51 178.22L28.16 177.46L39.45 175.71Z" fill="#C0E5E8"/>
<path d="M43.0901 180.46L43.7801 181.14L33.6601 184.52L32.9701 183.83L43.0901 180.46Z" fill="#C0E5E8"/>
<path d="M48.7401 184.5L49.7101 185.06L41.4501 189.83L40.4801 189.27L48.7401 184.5Z" fill="#C0E5E8"/>
<path d="M56.01 187.56L57.2 187.96L51.36 193.8L50.17 193.4L56.01 187.56Z" fill="#C0E5E8"/>
<path d="M64.41 189.43L65.73 189.64L62.7 196.15L61.38 195.95L64.41 189.43Z" fill="#C0E5E8"/>
<path d="M73.3522 196.73H74.7222V189.98H73.3522V196.73Z" fill="#C0E5E8"/>
<path d="M82.24 189.18L83.56 188.97L86.59 195.49L85.26 195.69L82.24 189.18Z" fill="#C0E5E8"/>
<path d="M90.4701 187.07L91.6501 186.68L97.4901 192.52L96.3101 192.91L90.4701 187.07Z" fill="#C0E5E8"/>
<path d="M97.4701 183.81L98.4301 183.25L106.7 188.02L105.73 188.58L97.4701 183.81Z" fill="#C0E5E8"/>
<path d="M102.77 179.61L103.45 178.93L113.57 182.3L112.88 182.99L102.77 179.61Z" fill="#C0E5E8"/>
<path d="M106 174.77L106.36 174L117.64 175.75L117.29 176.51L106 174.77Z" fill="#C0E5E8"/>
<path d="M118.639 169.606V168.816H106.959V169.606H118.639Z" fill="#C0E5E8"/>
<path d="M105.57 164.47L105.21 163.71L116.5 161.96L116.85 162.72L105.57 164.47Z" fill="#C0E5E8"/>
<path d="M101.92 159.72L101.24 159.04L111.35 155.67L112.04 156.35L101.92 159.72Z" fill="#C0E5E8"/>
<path d="M96.27 155.68L95.3 155.12L103.56 150.35L104.53 150.91L96.27 155.68Z" fill="#C0E5E8"/>
<path d="M89.0001 152.62L87.8201 152.22L93.6601 146.38L94.8401 146.78L89.0001 152.62Z" fill="#C0E5E8"/>
<path d="M80.61 150.75L79.29 150.55L82.31 144.03L83.63 144.23L80.61 150.75Z" fill="#C0E5E8"/>
<path d="M71.66 143.45H70.29V150.2H71.66V143.45Z" fill="#C0E5E8"/>
<path d="M62.7701 151L61.4501 151.21L58.4301 144.69L59.7501 144.49L62.7701 151Z" fill="#C0E5E8"/>
<path d="M54.55 153.11L53.36 153.5L47.52 147.66L48.71 147.27L54.55 153.11Z" fill="#C0E5E8"/>
<g style="mix-blend-mode:screen" opacity="0.75">
<path d="M132.38 58.07L18.89 57.01L37.23 162.49L38.35 168.72C39.25 174.57 41.63 178.81 48.29 182.65C61.55 190.31 83.06 190.31 96.32 182.65C102.79 178.91 105.2 173.71 106.25 169.15L106.56 167.84L132.38 58.07Z" fill="url(#paint0_linear_1_11637)"/>
</g>
<g opacity="0.75">
<path d="M89.27 105.66C88.99 105.66 88.77 105.44 88.77 105.16V96.45C88.77 96.17 88.99 95.95 89.27 95.95C89.55 95.95 89.77 96.17 89.77 96.45V105.16C89.77 105.43 89.54 105.66 89.27 105.66Z" fill="#C0E5E8"/>
</g>
<g opacity="0.75">
<path d="M62.88 87.45C62.6 87.45 62.38 87.23 62.38 86.95V79.04C62.38 78.76 62.6 78.54 62.88 78.54C63.16 78.54 63.38 78.76 63.38 79.04V86.95C63.38 87.23 63.16 87.45 62.88 87.45Z" fill="#C0E5E8"/>
</g>
<g opacity="0.75">
<path d="M39.8 117.32C39.52 117.32 39.3 117.1 39.3 116.82V108.9C39.3 108.62 39.52 108.4 39.8 108.4C40.08 108.4 40.3 108.62 40.3 108.9V116.82C40.3 117.09 40.08 117.32 39.8 117.32Z" fill="#C0E5E8"/>
</g>
<g opacity="0.7">
<path opacity="0.0385" d="M46.2701 128.66C46.2701 130.88 44.4701 132.69 42.2401 132.69C40.0201 132.69 38.2101 130.89 38.2101 128.66C38.2101 126.44 40.0101 124.63 42.2401 124.63C44.4701 124.63 46.2701 126.43 46.2701 128.66Z" fill="#D3FCFF"/>
<path opacity="0.0769" d="M46.1401 128.66C46.1401 130.81 44.4001 132.55 42.2501 132.55C40.1001 132.55 38.3601 130.81 38.3601 128.66C38.3601 126.51 40.1001 124.77 42.2501 124.77C44.3901 124.77 46.1401 126.51 46.1401 128.66Z" fill="#D3FCFF"/>
<path opacity="0.1154" d="M46.0001 128.66C46.0001 130.73 44.3201 132.41 42.2501 132.41C40.1801 132.41 38.5001 130.73 38.5001 128.66C38.5001 126.59 40.1801 124.91 42.2501 124.91C44.3201 124.9 46.0001 126.58 46.0001 128.66Z" fill="#D3FCFF"/>
<path opacity="0.1538" d="M45.8601 128.66C45.8601 130.66 44.2401 132.27 42.2501 132.27C40.2501 132.27 38.6401 130.65 38.6401 128.66C38.6401 126.66 40.2601 125.05 42.2501 125.05C44.2401 125.04 45.8601 126.66 45.8601 128.66Z" fill="#D3FCFF"/>
<path opacity="0.1923" d="M45.7201 128.66C45.7201 130.58 44.1601 132.14 42.2401 132.14C40.3201 132.14 38.7601 130.58 38.7601 128.66C38.7601 126.74 40.3201 125.18 42.2401 125.18C44.1701 125.18 45.7201 126.74 45.7201 128.66Z" fill="#D3FCFF"/>
<path opacity="0.2308" d="M45.59 128.66C45.59 130.5 44.09 132 42.25 132C40.41 132 38.91 130.5 38.91 128.66C38.91 126.82 40.41 125.32 42.25 125.32C44.09 125.32 45.59 126.81 45.59 128.66Z" fill="#D3FCFF"/>
<path opacity="0.2692" d="M45.4501 128.66C45.4501 130.43 44.02 131.86 42.25 131.86C40.48 131.86 39.05 130.43 39.05 128.66C39.05 126.89 40.48 125.46 42.25 125.46C44.01 125.45 45.4501 126.89 45.4501 128.66Z" fill="#D3FCFF"/>
<path opacity="0.3077" d="M45.3101 128.66C45.3101 130.35 43.9401 131.72 42.2501 131.72C40.5601 131.72 39.1901 130.35 39.1901 128.66C39.1901 126.97 40.5601 125.6 42.2501 125.6C43.9401 125.59 45.3101 126.96 45.3101 128.66Z" fill="#D3FCFF"/>
<path opacity="0.3462" d="M45.1701 128.66C45.1701 130.28 43.8601 131.59 42.2401 131.59C40.6201 131.59 39.3101 130.28 39.3101 128.66C39.3101 127.04 40.6201 125.73 42.2401 125.73C43.8601 125.73 45.1701 127.04 45.1701 128.66Z" fill="#D3FCFF"/>
<path opacity="0.3846" d="M45.0401 128.66C45.0401 130.2 43.7901 131.45 42.2501 131.45C40.7101 131.45 39.4601 130.2 39.4601 128.66C39.4601 127.12 40.7101 125.87 42.2501 125.87C43.7901 125.87 45.0401 127.12 45.0401 128.66Z" fill="#D3FCFF"/>
<path opacity="0.4231" d="M44.9001 128.66C44.9001 130.12 43.7101 131.31 42.2501 131.31C40.7901 131.31 39.6001 130.12 39.6001 128.66C39.6001 127.2 40.7901 126.01 42.2501 126.01C43.7101 126.01 44.9001 127.19 44.9001 128.66Z" fill="#D3FCFF"/>
<path opacity="0.4615" d="M44.7601 128.66C44.7601 130.05 43.6301 131.17 42.2501 131.17C40.8601 131.17 39.7401 130.04 39.7401 128.66C39.7401 127.27 40.8701 126.15 42.2501 126.15C43.6301 126.14 44.7601 127.27 44.7601 128.66Z" fill="#D3FCFF"/>
<path opacity="0.5" d="M44.6201 128.66C44.6201 129.97 43.5601 131.04 42.2401 131.04C40.9301 131.04 39.8601 129.98 39.8601 128.66C39.8601 127.35 40.9201 126.28 42.2401 126.28C43.5601 126.28 44.6201 127.34 44.6201 128.66Z" fill="#D3FCFF"/>
<path opacity="0.5385" d="M44.4801 128.66C44.4801 129.9 43.4801 130.9 42.2401 130.9C41.0001 130.9 40.0001 129.9 40.0001 128.66C40.0001 127.42 41.0001 126.42 42.2401 126.42C43.4801 126.42 44.4801 127.42 44.4801 128.66Z" fill="#D3FCFF"/>
<path opacity="0.5769" d="M44.35 128.66C44.35 129.82 43.41 130.76 42.25 130.76C41.09 130.76 40.15 129.82 40.15 128.66C40.15 127.5 41.09 126.56 42.25 126.56C43.41 126.56 44.35 127.5 44.35 128.66Z" fill="#D3FCFF"/>
<path opacity="0.6154" d="M44.21 128.66C44.21 129.74 43.33 130.62 42.25 130.62C41.17 130.62 40.29 129.74 40.29 128.66C40.29 127.58 41.17 126.7 42.25 126.7C43.33 126.69 44.21 127.57 44.21 128.66Z" fill="#D3FCFF"/>
<path opacity="0.6538" d="M44.07 128.66C44.07 129.67 43.25 130.49 42.24 130.49C41.23 130.49 40.41 129.67 40.41 128.66C40.41 127.65 41.23 126.83 42.24 126.83C43.25 126.83 44.07 127.65 44.07 128.66Z" fill="#D3FCFF"/>
<path opacity="0.6923" d="M43.93 128.66C43.93 129.59 43.1701 130.35 42.2401 130.35C41.3101 130.35 40.55 129.59 40.55 128.66C40.55 127.73 41.3101 126.97 42.2401 126.97C43.1801 126.97 43.93 127.72 43.93 128.66Z" fill="#D3FCFF"/>
<path opacity="0.7308" d="M43.8001 128.66C43.8001 129.52 43.1101 130.21 42.2501 130.21C41.3901 130.21 40.7001 129.52 40.7001 128.66C40.7001 127.8 41.3901 127.11 42.2501 127.11C43.1001 127.11 43.8001 127.8 43.8001 128.66Z" fill="#D3FCFF"/>
<path opacity="0.7692" d="M43.6601 128.66C43.6601 129.44 43.0301 130.07 42.2501 130.07C41.4701 130.07 40.8401 129.44 40.8401 128.66C40.8401 127.88 41.4701 127.25 42.2501 127.25C43.0301 127.24 43.6601 127.88 43.6601 128.66Z" fill="#D3FCFF"/>
<path opacity="0.8077" d="M42.2501 129.94C42.957 129.94 43.5301 129.367 43.5301 128.66C43.5301 127.953 42.957 127.38 42.2501 127.38C41.5432 127.38 40.9701 127.953 40.9701 128.66C40.9701 129.367 41.5432 129.94 42.2501 129.94Z" fill="#D3FCFF"/>
<path opacity="0.8462" d="M42.2501 129.8C42.8797 129.8 43.3901 129.29 43.3901 128.66C43.3901 128.03 42.8797 127.52 42.2501 127.52C41.6205 127.52 41.1101 128.03 41.1101 128.66C41.1101 129.29 41.6205 129.8 42.2501 129.8Z" fill="#D3FCFF"/>
<path opacity="0.8846" d="M42.2501 129.66C42.8024 129.66 43.2501 129.212 43.2501 128.66C43.2501 128.108 42.8024 127.66 42.2501 127.66C41.6978 127.66 41.2501 128.108 41.2501 128.66C41.2501 129.212 41.6978 129.66 42.2501 129.66Z" fill="#D3FCFF"/>
<path opacity="0.9231" d="M42.2501 129.52C42.7251 129.52 43.1101 129.135 43.1101 128.66C43.1101 128.185 42.7251 127.8 42.2501 127.8C41.7752 127.8 41.3901 128.185 41.3901 128.66C41.3901 129.135 41.7752 129.52 42.2501 129.52Z" fill="#D3FCFF"/>
<path opacity="0.9615" d="M42.25 129.39C42.6532 129.39 42.98 129.063 42.98 128.66C42.98 128.257 42.6532 127.93 42.25 127.93C41.8469 127.93 41.52 128.257 41.52 128.66C41.52 129.063 41.8469 129.39 42.25 129.39Z" fill="#D3FCFF"/>
<path d="M42.25 129.25C42.5759 129.25 42.84 128.986 42.84 128.66C42.84 128.334 42.5759 128.07 42.25 128.07C41.9242 128.07 41.66 128.334 41.66 128.66C41.66 128.986 41.9242 129.25 42.25 129.25Z" fill="#D3FCFF"/>
</g>
<g opacity="0.7">
<path opacity="0.0385" d="M74.57 98.83C74.57 101.05 72.77 102.86 70.54 102.86C68.32 102.86 66.51 101.06 66.51 98.83C66.51 96.61 68.31 94.8 70.54 94.8C72.77 94.8 74.57 96.61 74.57 98.83Z" fill="#D3FCFF"/>
<path opacity="0.0769" d="M74.43 98.8299C74.43 100.98 72.69 102.72 70.54 102.72C68.39 102.72 66.65 100.98 66.65 98.8299C66.65 96.6799 68.39 94.9399 70.54 94.9399C72.69 94.9399 74.43 96.6799 74.43 98.8299Z" fill="#D3FCFF"/>
<path opacity="0.1154" d="M74.29 98.8298C74.29 100.9 72.61 102.58 70.54 102.58C68.47 102.58 66.79 100.9 66.79 98.8298C66.79 96.7598 68.47 95.0798 70.54 95.0798C72.61 95.0798 74.29 96.7598 74.29 98.8298Z" fill="#D3FCFF"/>
<path opacity="0.1538" d="M74.1601 98.83C74.1601 100.83 72.5401 102.44 70.5501 102.44C68.5501 102.44 66.9401 100.82 66.9401 98.83C66.9401 96.83 68.5601 95.22 70.5501 95.22C72.5401 95.22 74.1601 96.84 74.1601 98.83Z" fill="#D3FCFF"/>
<path opacity="0.1923" d="M74.0201 98.8299C74.0201 100.75 72.4601 102.31 70.5401 102.31C68.6201 102.31 67.0601 100.75 67.0601 98.8299C67.0601 96.9099 68.6201 95.3499 70.5401 95.3499C72.4601 95.3499 74.0201 96.9099 74.0201 98.8299Z" fill="#D3FCFF"/>
<path opacity="0.2308" d="M73.88 98.83C73.88 100.67 72.38 102.17 70.54 102.17C68.7 102.17 67.2 100.67 67.2 98.83C67.2 96.99 68.7 95.49 70.54 95.49C72.39 95.49 73.88 96.99 73.88 98.83Z" fill="#D3FCFF"/>
<path opacity="0.2692" d="M73.74 98.8299C73.74 100.6 72.31 102.03 70.54 102.03C68.77 102.03 67.34 100.6 67.34 98.8299C67.34 97.0599 68.77 95.6299 70.54 95.6299C72.31 95.6299 73.74 97.0599 73.74 98.8299Z" fill="#D3FCFF"/>
<path opacity="0.3077" d="M73.61 98.83C73.61 100.52 72.24 101.89 70.55 101.89C68.86 101.89 67.49 100.52 67.49 98.83C67.49 97.14 68.86 95.77 70.55 95.77C72.23 95.77 73.61 97.14 73.61 98.83Z" fill="#D3FCFF"/>
<path opacity="0.3462" d="M73.47 98.8299C73.47 100.45 72.16 101.76 70.54 101.76C68.92 101.76 67.61 100.45 67.61 98.8299C67.61 97.2099 68.92 95.8999 70.54 95.8999C72.16 95.8999 73.47 97.2199 73.47 98.8299Z" fill="#D3FCFF"/>
<path opacity="0.3846" d="M73.33 98.83C73.33 100.37 72.08 101.62 70.54 101.62C69 101.62 67.75 100.37 67.75 98.83C67.75 97.29 69 96.04 70.54 96.04C72.08 96.04 73.33 97.29 73.33 98.83Z" fill="#D3FCFF"/>
<path opacity="0.4231" d="M73.19 98.8299C73.19 100.29 72 101.48 70.54 101.48C69.08 101.48 67.89 100.29 67.89 98.8299C67.89 97.3699 69.08 96.1799 70.54 96.1799C72.01 96.1799 73.19 97.3699 73.19 98.8299Z" fill="#D3FCFF"/>
<path opacity="0.4615" d="M73.06 98.8298C73.06 100.22 71.93 101.34 70.55 101.34C69.16 101.34 68.04 100.21 68.04 98.8298C68.04 97.4398 69.17 96.3198 70.55 96.3198C71.93 96.3198 73.06 97.4398 73.06 98.8298Z" fill="#D3FCFF"/>
<path opacity="0.5" d="M72.92 98.83C72.92 100.14 71.86 101.21 70.54 101.21C69.23 101.21 68.16 100.15 68.16 98.83C68.16 97.52 69.22 96.45 70.54 96.45C71.85 96.46 72.92 97.52 72.92 98.83Z" fill="#D3FCFF"/>
<path opacity="0.5385" d="M72.78 98.8298C72.78 100.07 71.78 101.07 70.54 101.07C69.3 101.07 68.3 100.07 68.3 98.8298C68.3 97.5898 69.3 96.5898 70.54 96.5898C71.78 96.5898 72.78 97.5998 72.78 98.8298Z" fill="#D3FCFF"/>
<path opacity="0.5769" d="M72.6401 98.83C72.6401 99.99 71.7001 100.93 70.5401 100.93C69.3801 100.93 68.4401 99.99 68.4401 98.83C68.4401 97.67 69.3801 96.73 70.5401 96.73C71.7001 96.73 72.6401 97.67 72.6401 98.83Z" fill="#D3FCFF"/>
<path opacity="0.6154" d="M72.51 98.8299C72.51 99.9099 71.63 100.79 70.55 100.79C69.47 100.79 68.59 99.9099 68.59 98.8299C68.59 97.7499 69.47 96.8699 70.55 96.8699C71.63 96.8699 72.51 97.7499 72.51 98.8299Z" fill="#D3FCFF"/>
<path opacity="0.6538" d="M72.37 98.83C72.37 99.84 71.55 100.66 70.54 100.66C69.53 100.66 68.71 99.84 68.71 98.83C68.71 97.82 69.53 97 70.54 97C71.55 97.01 72.37 97.82 72.37 98.83Z" fill="#D3FCFF"/>
<path opacity="0.6923" d="M72.23 98.8299C72.23 99.7599 71.47 100.52 70.54 100.52C69.61 100.52 68.85 99.7599 68.85 98.8299C68.85 97.8999 69.61 97.1399 70.54 97.1399C71.47 97.1399 72.23 97.8999 72.23 98.8299Z" fill="#D3FCFF"/>
<path opacity="0.7308" d="M72.09 98.83C72.09 99.69 71.4 100.38 70.54 100.38C69.68 100.38 68.99 99.69 68.99 98.83C68.99 97.97 69.68 97.28 70.54 97.28C71.4 97.28 72.09 97.98 72.09 98.83Z" fill="#D3FCFF"/>
<path opacity="0.7692" d="M71.95 98.8299C71.95 99.6099 71.32 100.24 70.54 100.24C69.76 100.24 69.13 99.6099 69.13 98.8299C69.13 98.0499 69.76 97.4199 70.54 97.4199C71.32 97.4199 71.95 98.0499 71.95 98.8299Z" fill="#D3FCFF"/>
<path opacity="0.8077" d="M71.82 98.83C71.82 99.53 71.25 100.11 70.54 100.11C69.84 100.11 69.26 99.54 69.26 98.83C69.26 98.13 69.83 97.55 70.54 97.55C71.25 97.56 71.82 98.13 71.82 98.83Z" fill="#D3FCFF"/>
<path opacity="0.8462" d="M71.68 98.8299C71.68 99.4599 71.17 99.9699 70.54 99.9699C69.91 99.9699 69.4 99.4599 69.4 98.8299C69.4 98.1999 69.91 97.6899 70.54 97.6899C71.17 97.6899 71.68 98.1999 71.68 98.8299Z" fill="#D3FCFF"/>
<path opacity="0.8846" d="M71.54 98.8298C71.54 99.3798 71.09 99.8298 70.54 99.8298C69.99 99.8298 69.54 99.3798 69.54 98.8298C69.54 98.2798 69.99 97.8298 70.54 97.8298C71.09 97.8298 71.54 98.2798 71.54 98.8298Z" fill="#D3FCFF"/>
<path opacity="0.9231" d="M71.4001 98.83C71.4001 99.31 71.0101 99.69 70.5401 99.69C70.0601 99.69 69.6801 99.3 69.6801 98.83C69.6801 98.35 70.0701 97.97 70.5401 97.97C71.0201 97.97 71.4001 98.35 71.4001 98.83Z" fill="#D3FCFF"/>
<path opacity="0.9615" d="M71.2701 98.8299C71.2701 99.2299 70.9501 99.5599 70.5401 99.5599C70.1401 99.5599 69.8101 99.2399 69.8101 98.8299C69.8101 98.4299 70.1301 98.0999 70.5401 98.0999C70.9401 98.1099 71.2701 98.4299 71.2701 98.8299Z" fill="#D3FCFF"/>
<path d="M71.13 98.83C71.13 99.15 70.87 99.42 70.54 99.42C70.22 99.42 69.95 99.16 69.95 98.83C69.95 98.51 70.21 98.24 70.54 98.24C70.87 98.24 71.13 98.51 71.13 98.83Z" fill="#D3FCFF"/>
</g>
<g opacity="0.7">
<path opacity="0.0385" d="M39.03 44.7402C39.03 46.9602 37.23 48.7702 35 48.7702C32.78 48.7702 30.97 46.9702 30.97 44.7402C30.97 42.5202 32.77 40.7102 35 40.7102C37.22 40.7102 39.03 42.5102 39.03 44.7402Z" fill="#D3FCFF"/>
<path opacity="0.0769" d="M38.89 44.7401C38.89 46.8901 37.15 48.6301 35 48.6301C32.85 48.6301 31.11 46.8901 31.11 44.7401C31.11 42.5901 32.85 40.8501 35 40.8501C37.15 40.8501 38.89 42.5901 38.89 44.7401Z" fill="#D3FCFF"/>
<path opacity="0.1154" d="M38.75 44.7402C38.75 46.8102 37.07 48.4902 35 48.4902C32.93 48.4902 31.25 46.8102 31.25 44.7402C31.25 42.6702 32.93 40.9902 35 40.9902C37.07 40.9902 38.75 42.6702 38.75 44.7402Z" fill="#D3FCFF"/>
<path opacity="0.1538" d="M38.61 44.7402C38.61 46.7402 36.99 48.3502 35 48.3502C33 48.3502 31.39 46.7302 31.39 44.7402C31.39 42.7402 33.01 41.1302 35 41.1302C37 41.1202 38.61 42.7402 38.61 44.7402Z" fill="#D3FCFF"/>
<path opacity="0.1923" d="M38.4799 44.74C38.4799 46.66 36.9199 48.22 34.9999 48.22C33.0799 48.22 31.5199 46.66 31.5199 44.74C31.5199 42.82 33.0799 41.26 34.9999 41.26C36.9199 41.26 38.4799 42.82 38.4799 44.74Z" fill="#D3FCFF"/>
<path opacity="0.2308" d="M38.3399 44.7401C38.3399 46.5801 36.8399 48.0801 34.9999 48.0801C33.1599 48.0801 31.6599 46.5801 31.6599 44.7401C31.6599 42.9001 33.1599 41.4001 34.9999 41.4001C36.8399 41.4001 38.3399 42.8901 38.3399 44.7401Z" fill="#D3FCFF"/>
<path opacity="0.2692" d="M38.1999 44.74C38.1999 46.51 36.7699 47.94 34.9999 47.94C33.2299 47.94 31.7999 46.51 31.7999 44.74C31.7999 42.97 33.2299 41.54 34.9999 41.54C36.7699 41.54 38.1999 42.97 38.1999 44.74Z" fill="#D3FCFF"/>
<path opacity="0.3077" d="M38.0599 44.7402C38.0599 46.4302 36.6899 47.8002 34.9999 47.8002C33.3099 47.8002 31.9399 46.4302 31.9399 44.7402C31.9399 43.0502 33.3099 41.6802 34.9999 41.6802C36.6899 41.6702 38.0599 43.0502 38.0599 44.7402Z" fill="#D3FCFF"/>
<path opacity="0.3462" d="M37.9299 44.7401C37.9299 46.3601 36.6199 47.6701 34.9999 47.6701C33.3799 47.6701 32.0699 46.3601 32.0699 44.7401C32.0699 43.1201 33.3799 41.8101 34.9999 41.8101C36.6199 41.8101 37.9299 43.1201 37.9299 44.7401Z" fill="#D3FCFF"/>
<path opacity="0.3846" d="M37.79 44.7402C37.79 46.2802 36.54 47.5302 35 47.5302C33.46 47.5302 32.21 46.2802 32.21 44.7402C32.21 43.2002 33.46 41.9502 35 41.9502C36.54 41.9502 37.79 43.2002 37.79 44.7402Z" fill="#D3FCFF"/>
<path opacity="0.4231" d="M37.65 44.7401C37.65 46.2001 36.46 47.3901 35 47.3901C33.54 47.3901 32.35 46.2001 32.35 44.7401C32.35 43.2801 33.54 42.0901 35 42.0901C36.46 42.0901 37.65 43.2701 37.65 44.7401Z" fill="#D3FCFF"/>
<path opacity="0.4615" d="M37.51 44.74C37.51 46.13 36.38 47.25 35 47.25C33.61 47.25 32.49 46.12 32.49 44.74C32.49 43.35 33.62 42.23 35 42.23C36.39 42.22 37.51 43.35 37.51 44.74Z" fill="#D3FCFF"/>
<path opacity="0.5" d="M37.38 44.7401C37.38 46.0501 36.32 47.1201 35 47.1201C33.69 47.1201 32.62 46.0601 32.62 44.7401C32.62 43.4301 33.68 42.3601 35 42.3601C36.31 42.3601 37.38 43.4301 37.38 44.7401Z" fill="#D3FCFF"/>
<path opacity="0.5385" d="M37.24 44.74C37.24 45.98 36.24 46.98 35 46.98C33.76 46.98 32.76 45.98 32.76 44.74C32.76 43.5 33.76 42.5 35 42.5C36.24 42.5 37.24 43.5 37.24 44.74Z" fill="#D3FCFF"/>
<path opacity="0.5769" d="M37.0999 44.7401C37.0999 45.9001 36.1599 46.8401 34.9999 46.8401C33.8399 46.8401 32.8999 45.9001 32.8999 44.7401C32.8999 43.5801 33.8399 42.6401 34.9999 42.6401C36.1599 42.6401 37.0999 43.5801 37.0999 44.7401Z" fill="#D3FCFF"/>
<path opacity="0.6154" d="M36.9599 44.7401C36.9599 45.8201 36.0799 46.7001 34.9999 46.7001C33.9199 46.7001 33.0399 45.8201 33.0399 44.7401C33.0399 43.6601 33.9199 42.7801 34.9999 42.7801C36.0799 42.7701 36.9599 43.6501 36.9599 44.7401Z" fill="#D3FCFF"/>
<path opacity="0.6538" d="M36.8299 44.7402C36.8299 45.7502 36.0099 46.5702 34.9999 46.5702C33.9899 46.5702 33.1699 45.7502 33.1699 44.7402C33.1699 43.7302 33.9899 42.9102 34.9999 42.9102C36.0099 42.9102 36.8299 43.7302 36.8299 44.7402Z" fill="#D3FCFF"/>
<path opacity="0.6923" d="M36.6899 44.7401C36.6899 45.6701 35.9299 46.43 34.9999 46.43C34.0699 46.43 33.3099 45.6701 33.3099 44.7401C33.3099 43.8101 34.0699 43.05 34.9999 43.05C35.9299 43.05 36.6899 43.8101 36.6899 44.7401Z" fill="#D3FCFF"/>
<path opacity="0.7308" d="M36.5499 44.7402C36.5499 45.6002 35.86 46.2902 35 46.2902C34.14 46.2902 33.45 45.6002 33.45 44.7402C33.45 43.8802 34.14 43.1902 35 43.1902C35.86 43.1902 36.5499 43.8802 36.5499 44.7402Z" fill="#D3FCFF"/>
<path opacity="0.7692" d="M36.41 44.7402C36.41 45.5202 35.78 46.1502 35 46.1502C34.22 46.1502 33.59 45.5202 33.59 44.7402C33.59 43.9602 34.22 43.3302 35 43.3302C35.78 43.3202 36.41 43.9602 36.41 44.7402Z" fill="#D3FCFF"/>
<path opacity="0.8077" d="M36.27 44.7402C36.27 45.4402 35.7 46.0202 34.99 46.0202C34.29 46.0202 33.71 45.4502 33.71 44.7402C33.71 44.0402 34.28 43.4602 34.99 43.4602C35.7 43.4602 36.27 44.0302 36.27 44.7402Z" fill="#D3FCFF"/>
<path opacity="0.8462" d="M36.14 44.7401C36.14 45.3701 35.63 45.8801 35 45.8801C34.37 45.8801 33.86 45.3701 33.86 44.7401C33.86 44.1101 34.37 43.6001 35 43.6001C35.63 43.6001 36.14 44.1101 36.14 44.7401Z" fill="#D3FCFF"/>
<path opacity="0.8846" d="M36 44.7402C36 45.2902 35.55 45.7402 35 45.7402C34.45 45.7402 34 45.2902 34 44.7402C34 44.1902 34.45 43.7402 35 43.7402C35.55 43.7402 36 44.1902 36 44.7402Z" fill="#D3FCFF"/>
<path opacity="0.9231" d="M35.86 44.7401C35.86 45.2201 35.47 45.6001 35 45.6001C34.52 45.6001 34.14 45.2101 34.14 44.7401C34.14 44.2601 34.53 43.8801 35 43.8801C35.48 43.8701 35.86 44.2601 35.86 44.7401Z" fill="#D3FCFF"/>
<path opacity="0.9615" d="M35.72 44.74C35.72 45.14 35.4 45.47 34.99 45.47C34.59 45.47 34.26 45.15 34.26 44.74C34.26 44.34 34.58 44.01 34.99 44.01C35.4 44.01 35.72 44.34 35.72 44.74Z" fill="#D3FCFF"/>
<path d="M35.5899 44.7401C35.5899 45.0601 35.3299 45.3301 34.9999 45.3301C34.6799 45.3301 34.4099 45.0701 34.4099 44.7401C34.4099 44.4201 34.6699 44.1501 34.9999 44.1501C35.3199 44.1501 35.5899 44.4101 35.5899 44.7401Z" fill="#D3FCFF"/>
</g>
<g opacity="0.7">
<path opacity="0.0385" d="M70.15 23.9399C70.15 26.1599 68.35 27.9699 66.12 27.9699C63.9 27.9699 62.09 26.1699 62.09 23.9399C62.09 21.7199 63.89 19.9099 66.12 19.9099C68.35 19.9099 70.15 21.7199 70.15 23.9399Z" fill="#D3FCFF"/>
<path opacity="0.0769" d="M70.02 23.9401C70.02 26.0901 68.28 27.83 66.13 27.83C63.98 27.83 62.24 26.0901 62.24 23.9401C62.24 21.7901 63.98 20.05 66.13 20.05C68.28 20.05 70.02 21.7901 70.02 23.9401Z" fill="#D3FCFF"/>
<path opacity="0.1154" d="M69.88 23.9399C69.88 26.0099 68.2 27.6899 66.13 27.6899C64.06 27.6899 62.38 26.0099 62.38 23.9399C62.38 21.8699 64.06 20.1899 66.13 20.1899C68.2 20.1899 69.88 21.8699 69.88 23.9399Z" fill="#D3FCFF"/>
<path opacity="0.1538" d="M69.74 23.9401C69.74 25.9401 68.12 27.5501 66.13 27.5501C64.13 27.5501 62.52 25.9301 62.52 23.9401C62.52 21.9401 64.14 20.3301 66.13 20.3301C68.12 20.3301 69.74 21.9401 69.74 23.9401Z" fill="#D3FCFF"/>
<path opacity="0.1923" d="M69.6 23.94C69.6 25.86 68.04 27.42 66.12 27.42C64.2 27.42 62.64 25.86 62.64 23.94C62.64 22.02 64.2 20.46 66.12 20.46C68.05 20.46 69.6 22.02 69.6 23.94Z" fill="#D3FCFF"/>
<path opacity="0.2308" d="M69.4699 23.9401C69.4699 25.7801 67.9699 27.2801 66.1299 27.2801C64.2899 27.2801 62.7899 25.7801 62.7899 23.9401C62.7899 22.1001 64.2899 20.6001 66.1299 20.6001C67.9699 20.6001 69.4699 22.1001 69.4699 23.9401Z" fill="#D3FCFF"/>
<path opacity="0.2692" d="M69.3299 23.94C69.3299 25.71 67.8999 27.14 66.1299 27.14C64.3599 27.14 62.9299 25.71 62.9299 23.94C62.9299 22.17 64.3599 20.74 66.1299 20.74C67.8999 20.74 69.3299 22.17 69.3299 23.94Z" fill="#D3FCFF"/>
<path opacity="0.3077" d="M69.1899 23.9401C69.1899 25.6301 67.8199 27.0001 66.1299 27.0001C64.4399 27.0001 63.0699 25.6301 63.0699 23.9401C63.0699 22.2501 64.4399 20.8801 66.1299 20.8801C67.8199 20.8801 69.1899 22.2501 69.1899 23.9401Z" fill="#D3FCFF"/>
<path opacity="0.3462" d="M69.0499 23.94C69.0499 25.56 67.7399 26.87 66.1199 26.87C64.4999 26.87 63.1899 25.56 63.1899 23.94C63.1899 22.32 64.4999 21.01 66.1199 21.01C67.7399 21.01 69.0499 22.32 69.0499 23.94Z" fill="#D3FCFF"/>
<path opacity="0.3846" d="M68.92 23.9399C68.92 25.4799 67.67 26.7299 66.13 26.7299C64.59 26.7299 63.34 25.4799 63.34 23.9399C63.34 22.3999 64.59 21.1499 66.13 21.1499C67.67 21.1499 68.92 22.3999 68.92 23.9399Z" fill="#D3FCFF"/>
<path opacity="0.4231" d="M68.78 23.94C68.78 25.4 67.59 26.59 66.13 26.59C64.67 26.59 63.48 25.4 63.48 23.94C63.48 22.48 64.67 21.29 66.13 21.29C67.59 21.29 68.78 22.48 68.78 23.94Z" fill="#D3FCFF"/>
<path opacity="0.4615" d="M68.64 23.9399C68.64 25.3299 67.51 26.4499 66.13 26.4499C64.74 26.4499 63.62 25.3199 63.62 23.9399C63.62 22.5499 64.75 21.4299 66.13 21.4299C67.52 21.4299 68.64 22.5499 68.64 23.9399Z" fill="#D3FCFF"/>
<path opacity="0.5" d="M68.5 23.9401C68.5 25.2501 67.44 26.3201 66.12 26.3201C64.81 26.3201 63.74 25.2601 63.74 23.9401C63.74 22.6301 64.8 21.5601 66.12 21.5601C67.44 21.5601 68.5 22.6301 68.5 23.9401Z" fill="#D3FCFF"/>
<path opacity="0.5385" d="M68.37 23.94C68.37 25.18 67.37 26.18 66.13 26.18C64.89 26.18 63.89 25.18 63.89 23.94C63.89 22.7 64.89 21.7 66.13 21.7C67.36 21.7 68.37 22.7 68.37 23.94Z" fill="#D3FCFF"/>
<path opacity="0.5769" d="M68.23 23.9401C68.23 25.1001 67.29 26.0401 66.13 26.0401C64.97 26.0401 64.03 25.1001 64.03 23.9401C64.03 22.7801 64.97 21.8401 66.13 21.8401C67.29 21.8401 68.23 22.7801 68.23 23.9401Z" fill="#D3FCFF"/>
<path opacity="0.6154" d="M68.0899 23.94C68.0899 25.02 67.2099 25.9 66.1299 25.9C65.0499 25.9 64.1699 25.02 64.1699 23.94C64.1699 22.86 65.0499 21.98 66.1299 21.98C67.2099 21.98 68.0899 22.86 68.0899 23.94Z" fill="#D3FCFF"/>
<path opacity="0.6538" d="M67.9499 23.9401C67.9499 24.9501 67.1299 25.7701 66.1199 25.7701C65.1099 25.7701 64.2899 24.9501 64.2899 23.9401C64.2899 22.9301 65.1099 22.1101 66.1199 22.1101C67.1399 22.1101 67.9499 22.9301 67.9499 23.9401Z" fill="#D3FCFF"/>
<path opacity="0.6923" d="M67.8199 23.94C67.8199 24.87 67.0599 25.63 66.1299 25.63C65.1999 25.63 64.4399 24.87 64.4399 23.94C64.4399 23.01 65.1999 22.25 66.1299 22.25C67.0599 22.25 67.8199 23.01 67.8199 23.94Z" fill="#D3FCFF"/>
<path opacity="0.7308" d="M67.68 23.9401C67.68 24.8001 66.99 25.4901 66.13 25.4901C65.27 25.4901 64.58 24.8001 64.58 23.9401C64.58 23.0801 65.27 22.3901 66.13 22.3901C66.98 22.3901 67.68 23.0801 67.68 23.9401Z" fill="#D3FCFF"/>
<path opacity="0.7692" d="M67.54 23.94C67.54 24.72 66.91 25.35 66.13 25.35C65.35 25.35 64.72 24.72 64.72 23.94C64.72 23.16 65.35 22.53 66.13 22.53C66.91 22.53 67.54 23.16 67.54 23.94Z" fill="#D3FCFF"/>
<path opacity="0.8077" d="M67.4 23.9399C67.4 24.6399 66.83 25.2199 66.12 25.2199C65.42 25.2199 64.84 24.6499 64.84 23.9399C64.84 23.2399 65.41 22.6599 66.12 22.6599C66.83 22.6599 67.4 23.2399 67.4 23.9399Z" fill="#D3FCFF"/>
<path opacity="0.8462" d="M67.27 23.9401C67.27 24.5701 66.76 25.08 66.13 25.08C65.5 25.08 64.99 24.5701 64.99 23.9401C64.99 23.3101 65.5 22.8 66.13 22.8C66.76 22.8 67.27 23.3101 67.27 23.9401Z" fill="#D3FCFF"/>
<path opacity="0.8846" d="M67.13 23.9399C67.13 24.4899 66.68 24.9399 66.13 24.9399C65.58 24.9399 65.13 24.4899 65.13 23.9399C65.13 23.3899 65.58 22.9399 66.13 22.9399C66.68 22.9399 67.13 23.3899 67.13 23.9399Z" fill="#D3FCFF"/>
<path opacity="0.9231" d="M66.99 23.9401C66.99 24.4201 66.6 24.8001 66.13 24.8001C65.65 24.8001 65.27 24.4101 65.27 23.9401C65.27 23.4601 65.66 23.0801 66.13 23.0801C66.6 23.0801 66.99 23.4601 66.99 23.9401Z" fill="#D3FCFF"/>
<path opacity="0.9615" d="M66.85 23.94C66.85 24.34 66.53 24.67 66.12 24.67C65.72 24.67 65.39 24.35 65.39 23.94C65.39 23.54 65.71 23.21 66.12 23.21C66.53 23.21 66.85 23.54 66.85 23.94Z" fill="#D3FCFF"/>
<path d="M66.7199 23.9401C66.7199 24.2601 66.4599 24.5301 66.1299 24.5301C65.8099 24.5301 65.5399 24.2701 65.5399 23.9401C65.5399 23.6201 65.7999 23.3501 66.1299 23.3501C66.4499 23.3501 66.7199 23.6201 66.7199 23.9401Z" fill="#D3FCFF"/>
</g>
<g opacity="0.7">
<path opacity="0.0385" d="M132.88 46.9499C132.88 49.1699 131.08 50.9799 128.85 50.9799C126.63 50.9799 124.82 49.1799 124.82 46.9499C124.82 44.7299 126.62 42.9199 128.85 42.9199C131.08 42.9299 132.88 44.7299 132.88 46.9499Z" fill="#D3FCFF"/>
<path opacity="0.0769" d="M132.74 46.9501C132.74 49.1001 131 50.8401 128.85 50.8401C126.7 50.8401 124.96 49.1001 124.96 46.9501C124.96 44.8001 126.7 43.0601 128.85 43.0601C131 43.0601 132.74 44.8001 132.74 46.9501Z" fill="#D3FCFF"/>
<path opacity="0.1154" d="M132.61 46.95C132.61 49.02 130.93 50.7 128.86 50.7C126.79 50.7 125.11 49.02 125.11 46.95C125.11 44.88 126.79 43.2 128.86 43.2C130.93 43.2 132.61 44.88 132.61 46.95Z" fill="#D3FCFF"/>
<path opacity="0.1538" d="M132.47 46.9501C132.47 48.9501 130.85 50.5601 128.86 50.5601C126.86 50.5601 125.25 48.9401 125.25 46.9501C125.25 44.9501 126.87 43.3401 128.86 43.3401C130.85 43.3401 132.47 44.9601 132.47 46.9501Z" fill="#D3FCFF"/>
<path opacity="0.1923" d="M132.33 46.95C132.33 48.87 130.77 50.43 128.85 50.43C126.93 50.43 125.37 48.87 125.37 46.95C125.37 45.03 126.93 43.47 128.85 43.47C130.77 43.48 132.33 45.03 132.33 46.95Z" fill="#D3FCFF"/>
<path opacity="0.2308" d="M132.19 46.9501C132.19 48.7901 130.69 50.2901 128.85 50.2901C127.01 50.2901 125.51 48.7901 125.51 46.9501C125.51 45.1101 127.01 43.6101 128.85 43.6101C130.7 43.6101 132.19 45.1101 132.19 46.9501Z" fill="#D3FCFF"/>
<path opacity="0.2692" d="M132.06 46.95C132.06 48.72 130.63 50.15 128.86 50.15C127.09 50.15 125.66 48.72 125.66 46.95C125.66 45.18 127.09 43.75 128.86 43.75C130.62 43.75 132.06 45.18 132.06 46.95Z" fill="#D3FCFF"/>
<path opacity="0.3077" d="M131.92 46.9501C131.92 48.6401 130.55 50.0101 128.86 50.0101C127.17 50.0101 125.8 48.6401 125.8 46.9501C125.8 45.2601 127.17 43.8901 128.86 43.8901C130.55 43.8901 131.92 45.2601 131.92 46.9501Z" fill="#D3FCFF"/>
<path opacity="0.3462" d="M131.78 46.95C131.78 48.57 130.47 49.88 128.85 49.88C127.23 49.88 125.92 48.57 125.92 46.95C125.92 45.33 127.23 44.02 128.85 44.02C130.47 44.03 131.78 45.34 131.78 46.95Z" fill="#D3FCFF"/>
<path opacity="0.3846" d="M131.64 46.9502C131.64 48.4902 130.39 49.7402 128.85 49.7402C127.31 49.7402 126.06 48.4902 126.06 46.9502C126.06 45.4102 127.31 44.1602 128.85 44.1602C130.39 44.1602 131.64 45.4102 131.64 46.9502Z" fill="#D3FCFF"/>
<path opacity="0.4231" d="M131.51 46.9501C131.51 48.4101 130.32 49.6 128.86 49.6C127.4 49.6 126.21 48.4101 126.21 46.9501C126.21 45.4901 127.4 44.3 128.86 44.3C130.32 44.3 131.51 45.4901 131.51 46.9501Z" fill="#D3FCFF"/>
<path opacity="0.4615" d="M131.37 46.9499C131.37 48.3399 130.24 49.4599 128.86 49.4599C127.47 49.4599 126.35 48.3299 126.35 46.9499C126.35 45.5599 127.48 44.4399 128.86 44.4399C130.24 44.4399 131.37 45.5599 131.37 46.9499Z" fill="#D3FCFF"/>
<path opacity="0.5" d="M131.23 46.9501C131.23 48.2601 130.17 49.3301 128.85 49.3301C127.54 49.3301 126.47 48.2701 126.47 46.9501C126.47 45.6401 127.53 44.5701 128.85 44.5701C130.17 44.5801 131.23 45.6401 131.23 46.9501Z" fill="#D3FCFF"/>
<path opacity="0.5385" d="M131.09 46.95C131.09 48.19 130.09 49.19 128.85 49.19C127.61 49.19 126.61 48.19 126.61 46.95C126.61 45.71 127.61 44.71 128.85 44.71C130.09 44.71 131.09 45.72 131.09 46.95Z" fill="#D3FCFF"/>
<path opacity="0.5769" d="M130.96 46.9501C130.96 48.1101 130.02 49.0501 128.86 49.0501C127.7 49.0501 126.76 48.1101 126.76 46.9501C126.76 45.7901 127.7 44.8501 128.86 44.8501C130.01 44.8501 130.96 45.7901 130.96 46.9501Z" fill="#D3FCFF"/>
<path opacity="0.6154" d="M130.82 46.95C130.82 48.03 129.94 48.91 128.86 48.91C127.78 48.91 126.9 48.03 126.9 46.95C126.9 45.87 127.78 44.99 128.86 44.99C129.94 44.99 130.82 45.87 130.82 46.95Z" fill="#D3FCFF"/>
<path opacity="0.6538" d="M130.68 46.9501C130.68 47.9601 129.86 48.7801 128.85 48.7801C127.84 48.7801 127.02 47.9601 127.02 46.9501C127.02 45.9401 127.84 45.1201 128.85 45.1201C129.86 45.1301 130.68 45.9401 130.68 46.9501Z" fill="#D3FCFF"/>
<path opacity="0.6923" d="M130.54 46.95C130.54 47.88 129.78 48.64 128.85 48.64C127.92 48.64 127.16 47.88 127.16 46.95C127.16 46.02 127.92 45.26 128.85 45.26C129.79 45.26 130.54 46.02 130.54 46.95Z" fill="#D3FCFF"/>
<path opacity="0.7308" d="M130.41 46.9501C130.41 47.8101 129.72 48.5001 128.86 48.5001C128 48.5001 127.31 47.8101 127.31 46.9501C127.31 46.0901 128 45.4001 128.86 45.4001C129.71 45.4001 130.41 46.1001 130.41 46.9501Z" fill="#D3FCFF"/>
<path opacity="0.7692" d="M130.27 46.95C130.27 47.73 129.64 48.36 128.86 48.36C128.08 48.36 127.45 47.73 127.45 46.95C127.45 46.17 128.08 45.54 128.86 45.54C129.63 45.54 130.27 46.17 130.27 46.95Z" fill="#D3FCFF"/>
<path opacity="0.8077" d="M130.13 46.9499C130.13 47.6499 129.56 48.2299 128.85 48.2299C128.15 48.2299 127.57 47.6599 127.57 46.9499C127.57 46.2499 128.14 45.6699 128.85 45.6699C129.56 45.6799 130.13 46.2499 130.13 46.9499Z" fill="#D3FCFF"/>
<path opacity="0.8462" d="M129.99 46.9501C129.99 47.5801 129.48 48.0901 128.85 48.0901C128.22 48.0901 127.71 47.5801 127.71 46.9501C127.71 46.3201 128.22 45.8101 128.85 45.8101C129.48 45.8101 129.99 46.3201 129.99 46.9501Z" fill="#D3FCFF"/>
<path opacity="0.8846" d="M129.86 46.95C129.86 47.5 129.41 47.95 128.86 47.95C128.31 47.95 127.86 47.5 127.86 46.95C127.86 46.4 128.31 45.95 128.86 45.95C129.41 45.95 129.86 46.4 129.86 46.95Z" fill="#D3FCFF"/>
<path opacity="0.9231" d="M129.72 46.9501C129.72 47.4301 129.33 47.8101 128.86 47.8101C128.38 47.8101 128 47.4201 128 46.9501C128 46.4701 128.39 46.0901 128.86 46.0901C129.33 46.0901 129.72 46.4801 129.72 46.9501Z" fill="#D3FCFF"/>
<path opacity="0.9615" d="M129.58 46.95C129.58 47.35 129.26 47.68 128.85 47.68C128.45 47.68 128.12 47.36 128.12 46.95C128.12 46.55 128.44 46.22 128.85 46.22C129.26 46.23 129.58 46.55 129.58 46.95Z" fill="#D3FCFF"/>
<path d="M129.44 46.9501C129.44 47.2701 129.18 47.5401 128.85 47.5401C128.53 47.5401 128.26 47.2801 128.26 46.9501C128.26 46.6301 128.52 46.3601 128.85 46.3601C129.18 46.3601 129.44 46.6301 129.44 46.9501Z" fill="#D3FCFF"/>
</g>
<path d="M87.81 64.3298L87.76 82.8398L85.79 83.9898L85.84 65.4698L87.81 64.3298Z" fill="url(#paint1_linear_1_11637)"/>
<path d="M85.8401 65.4698L85.7901 83.9898L83.8101 82.8398L83.8601 64.3298L85.8401 65.4698Z" fill="url(#paint2_linear_1_11637)"/>
<path d="M87.8101 64.3299L85.8401 65.4699L83.8601 64.3299L85.8301 63.1799L87.8101 64.3299Z" fill="url(#paint3_linear_1_11637)"/>
<path d="M94.85 19.3398L94.76 66.7798L85.8 71.9898L85.89 24.5498L94.85 19.3398Z" fill="url(#paint4_linear_1_11637)"/>
<path d="M85.89 24.5498L85.8 71.9898L76.78 66.7798L76.87 19.3398L85.89 24.5498Z" fill="url(#paint5_linear_1_11637)"/>
<path d="M94.85 19.3399L85.89 24.5499L76.87 19.3399L85.83 14.1299L94.85 19.3399Z" fill="url(#paint6_linear_1_11637)"/>
<path d="M87.81 1.13989L87.76 19.6599L85.79 20.7999L85.84 2.28989L87.81 1.13989Z" fill="url(#paint7_linear_1_11637)"/>
<path d="M85.8401 2.2899L85.7901 20.7999L83.8101 19.6599L83.8601 1.1499L85.8401 2.2899Z" fill="url(#paint8_linear_1_11637)"/>
<path d="M87.8101 1.14L85.8401 2.29L83.8601 1.15L85.8301 0L87.8101 1.14Z" fill="url(#paint9_linear_1_11637)"/>
<path d="M102.17 86.5798L102.12 98.2798L100.14 99.4198L100.2 87.7298L102.17 86.5798Z" fill="url(#paint10_linear_1_11637)"/>
<path d="M100.2 87.7298L100.14 99.4198L98.16 98.2798L98.21 86.5798L100.2 87.7298Z" fill="url(#paint11_linear_1_11637)"/>
<path d="M102.17 86.5799L100.2 87.7299L98.2101 86.5799L100.18 85.4399L102.17 86.5799Z" fill="url(#paint12_linear_1_11637)"/>
<path d="M109.2 45.4099L109.11 89.0399L100.15 94.2499L100.24 50.6199L109.2 45.4099Z" fill="url(#paint13_linear_1_11637)"/>
<path d="M100.24 50.6199L100.15 94.2499L91.13 89.0399L91.22 45.4099L100.24 50.6199Z" fill="url(#paint14_linear_1_11637)"/>
<path d="M109.2 45.41L100.24 50.6199L91.22 45.41L100.18 40.2L109.2 45.41Z" fill="url(#paint15_linear_1_11637)"/>
<path d="M102.17 33.1199L102.12 45.7299L100.14 46.8699L100.2 34.2699L102.17 33.1199Z" fill="url(#paint16_linear_1_11637)"/>
<path d="M100.2 34.2699L100.14 46.8699L98.16 45.7299L98.21 33.1199L100.2 34.2699Z" fill="url(#paint17_linear_1_11637)"/>
<path d="M102.17 33.12L100.2 34.27L98.2101 33.12L100.18 31.98L102.17 33.12Z" fill="url(#paint18_linear_1_11637)"/>
<path d="M116.52 124.83L116.47 135.35L114.5 136.5L114.55 125.98L116.52 124.83Z" fill="url(#paint19_linear_1_11637)"/>
<path d="M114.55 125.98L114.5 136.5L112.52 135.35L112.57 124.83L114.55 125.98Z" fill="url(#paint20_linear_1_11637)"/>
<path d="M116.52 124.83L114.55 125.98L112.57 124.83L114.54 123.69L116.52 124.83Z" fill="url(#paint21_linear_1_11637)"/>
<path d="M123.56 71.8499L123.47 127.29L114.51 132.49L114.6 77.0599L123.56 71.8499Z" fill="url(#paint22_linear_1_11637)"/>
<path d="M114.6 77.0599L114.51 132.49L105.49 127.29L105.57 71.8499L114.6 77.0599Z" fill="url(#paint23_linear_1_11637)"/>
<path d="M123.56 71.8499L114.6 77.0599L105.57 71.8499L114.54 66.6499L123.56 71.8499Z" fill="url(#paint24_linear_1_11637)"/>
<path d="M116.52 53.6599L116.47 72.1699L114.5 73.3099L114.55 54.7999L116.52 53.6599Z" fill="url(#paint25_linear_1_11637)"/>
<path d="M114.55 54.7999L114.5 73.3099L112.52 72.1699L112.57 53.6599L114.55 54.7999Z" fill="url(#paint26_linear_1_11637)"/>
<path d="M116.52 53.66L114.55 54.8L112.57 53.66L114.54 52.51L116.52 53.66Z" fill="url(#paint27_linear_1_11637)"/>
<path d="M130.88 153.23L130.82 164.86L128.85 166L128.91 154.38L130.88 153.23Z" fill="url(#paint28_linear_1_11637)"/>
<path d="M128.91 154.38L128.85 166L126.87 164.86L126.92 153.23L128.91 154.38Z" fill="url(#paint29_linear_1_11637)"/>
<path d="M130.88 153.23L128.91 154.38L126.92 153.23L128.89 152.09L130.88 153.23Z" fill="url(#paint30_linear_1_11637)"/>
<path d="M137.91 101.36L137.82 155.69L128.86 160.9L128.95 106.57L137.91 101.36Z" fill="url(#paint31_linear_1_11637)"/>
<path d="M128.95 106.57L128.86 160.9L119.84 155.69L119.93 101.36L128.95 106.57Z" fill="url(#paint32_linear_1_11637)"/>
<path d="M137.91 101.36L128.95 106.57L119.93 101.36L128.89 96.1501L137.91 101.36Z" fill="url(#paint33_linear_1_11637)"/>
<path d="M130.88 83.1599L130.82 101.67L128.85 102.82L128.91 84.3099L130.88 83.1599Z" fill="url(#paint34_linear_1_11637)"/>
<path d="M128.91 84.3099L128.85 102.82L126.87 101.67L126.92 83.1599L128.91 84.3099Z" fill="url(#paint35_linear_1_11637)"/>
<path d="M130.88 83.16L128.91 84.31L126.92 83.16L128.89 82.02L130.88 83.16Z" fill="url(#paint36_linear_1_11637)"/>
<path d="M75.03 155.73C75.03 155.73 71.77 155.92 67.88 153.57C63.99 151.22 62.69 146.65 64.12 145.19C65.54 143.72 70.53 145.84 71.43 146.64C72.33 147.45 72.43 148.94 75.54 149.99C78.65 151.03 81.65 150.63 81.65 153.38C81.63 154.66 75.03 155.73 75.03 155.73Z" fill="#42220B"/>
<path d="M104.36 142.26C104.36 142.26 107.72 146.54 107.57 151.03C107.43 155.52 102.26 167.12 96.89 170C96.89 170 91.57 170.55 88.36 167.06C85.14 163.57 76.24 156.66 75.03 155.74C75.03 155.74 75.43 150.83 79.92 152.39L86.47 156.19L93.26 158.04L90.63 145.74C90.62 145.74 95.21 139.18 104.36 142.26Z" fill="url(#paint37_linear_1_11637)"/>
<path d="M35.78 157.75C35.78 157.75 33.76 160.39 29.8 162.1C25.84 163.81 24.5 165.18 24.17 167.11C23.84 169.04 24.6 169.75 27.35 169.63C30.1 169.51 32.19 168.32 33.43 166.19C34.67 164.06 38.02 165.24 38.02 165.24C38.02 165.24 39.52 165.44 40.66 164.8C41.39 164.39 41.81 163.81 41.71 162.98C41.6 162.06 41.53 160.48 42.13 159.67C43.03 158.45 35.78 157.75 35.78 157.75Z" fill="#42220B"/>
<path d="M92.0299 150.72C92.0299 150.72 80.6399 146.36 74.2299 142.9C67.8299 139.45 62.2399 138.5 62.2399 138.5C62.2399 138.5 62.0199 143.8 56.0499 148.47C50.0799 153.14 42.3899 160.63 42.3899 160.63C42.3899 160.63 34.6599 161.94 34.6599 157.21C34.6599 157.21 54.0099 134.82 56.6199 131.68C58.2699 129.69 70.7199 128.45 77.9099 131.06C85.0999 133.67 94.2299 144.82 92.0299 150.72Z" fill="url(#paint38_linear_1_11637)"/>
<path d="M70.45 116.7C70.45 116.7 68.82 116.27 67.85 117.9C66.88 119.53 66.77 120.56 66.77 120.56L66.9 121.36L69.4 119.91C69.4 119.91 70.93 118.31 70.45 116.7Z" fill="#E6AC8A"/>
<path d="M82.4699 116.41C82.4699 116.41 89.3199 115.54 95.2199 120.89C101.12 126.24 100.65 129.2 101.55 133.2C102.29 136.5 104.63 139.2 105.42 142.31C105.71 143.45 105.15 144.63 104.09 145.14C100.81 146.7 93.3599 149.76 90.1699 146.93C87.0199 144.13 85.6299 141.78 85.6299 141.78L82.8399 135.76C82.8399 135.76 78.4199 133.76 77.4299 130.7C76.4499 127.64 71.9399 117.44 82.4699 116.41Z" fill="url(#paint39_linear_1_11637)"/>
<path d="M81.47 127.36L79.83 129.58L79.26 125.93C79.26 125.93 80.44 126.86 81.47 127.36Z" fill="white"/>
<path d="M78.73 125.3C78.73 125.3 68.92 132.53 64.74 133.82C64.74 133.82 63.15 135.25 62.63 135.01C59.94 133.78 59.59 130.07 61.92 128.24C65.42 125.49 71.48 121.11 75.41 120.49C81.21 119.57 78.73 125.3 78.73 125.3Z" fill="url(#paint40_linear_1_11637)"/>
<path d="M77.0499 111.73C79.0799 111.86 81.8199 112.75 82.8499 116.39L83.0699 118.07H84.6999C85.8099 118.07 86.8599 118.62 87.4799 119.54C88.2599 120.7 88.8999 122.38 87.6899 123.9C85.5599 126.57 83.7899 127.35 83.7899 127.35H81.1799C81.1799 127.35 79.0699 129.77 78.1999 129.69C77.3299 129.61 72.1999 127.73 70.5999 124.7C69.1399 121.93 67.4999 116.53 72.8999 112.9C74.1199 112.07 75.5699 111.63 77.0499 111.73Z" fill="#FFC1A5"/>
<path d="M84.23 118.98C83.8 117.67 83.53 115.29 81.7 113.56C80.79 112.7 79.87 112.15 78.98 111.83C77.51 111.31 76.11 111.39 74.87 111.72C72.88 112.25 69.89 114.36 69.16 116.7C68.43 119.04 67.69 121.02 68.26 122.4C68.83 123.78 69.06 123.77 69.77 124.4C70.27 124.84 71.95 125.16 73.5 125.27C74.89 125.36 76.17 125.28 76.4 124.94C76.87 124.22 77.53 123.44 77.53 123.44C78.46 123.08 79.16 124.3 79.31 124.91L80.02 124.03C80.02 124.03 79.22 123.08 79.66 122.31C80.1 121.54 80.77 121.18 81.4 121.79C82.03 122.4 84.24 122.21 84.34 121.38C84.35 121.39 84.64 120.25 84.23 118.98Z" fill="#6F4018"/>
<path d="M84.08 118.47C84.08 118.47 85.87 119.79 86.14 121.45C86.41 123.12 84.73 125.68 81.47 127.36L82.07 130.18C82.07 130.18 85.87 128.45 87.39 125.97C88.94 123.43 89.22 122.21 88.36 120.39C87.5 118.56 85.01 116.88 83.63 116.83L84.08 118.47Z" fill="white"/>
<path d="M71.0299 122.37C70.4299 122.68 68.7999 123.9 68.7999 123.9C69.0299 123.67 70.3899 122.25 70.8299 121.67C71.2799 121.09 70.8899 120.56 70.5199 120.56C70.1499 120.56 68.7899 121.55 68.7899 121.55C68.7899 121.55 69.4099 120.81 69.8699 120.39C70.3399 119.97 70.6099 119.24 70.1399 118.83C69.6699 118.42 67.7199 120.08 67.0899 120.87C67.2099 119.92 68.1199 118.98 68.3099 118.61C68.4999 118.24 68.4299 117.57 67.9399 117.51C67.4499 117.45 66.4999 118.65 66.1599 119.64C65.8099 120.63 65.9499 121.42 66.3499 121.77C66.0399 122.47 66.4499 123.03 66.4499 123.03L65.4699 125.44C65.2899 126.67 63.8299 128.71 66.9599 129.89C67.6999 128.75 69.5799 128.27 69.5799 128.27C70.4499 128.09 71.1399 126.93 71.1399 126.93C71.0799 126.22 70.4499 125.21 70.4499 125.21C70.4499 125.21 70.9699 124.12 71.6599 123.4C72.3899 122.7 71.6299 122.06 71.0299 122.37Z" fill="#FFC1A5"/>
<path d="M83.4999 155.41C83.4999 155.41 81.4399 157.62 81.0499 159.68C80.7599 161.21 80.0799 162.6 79.7499 163.22C79.6199 163.46 79.5599 163.73 79.5699 164C79.6199 165.13 79.8399 168.19 80.8399 169.93C81.1999 170.55 81.6799 170.13 81.7099 169.4C81.9199 170.31 82.9599 171.75 83.4399 171.61C83.9199 171.47 83.8299 171.04 83.7399 170.79C84.1799 171.07 84.5799 170.94 84.5599 170.33C84.9499 170.45 85.2199 170.1 85.0699 169.38C84.9199 168.67 84.0599 167.23 84.3699 166.25C84.6699 165.27 86.1299 162.3 85.3199 159.31L86.0099 158.15L86.2499 155.13L83.4999 155.41Z" fill="#FFD7BF"/>
<path d="M99.8 129.58C99.8 129.58 96.63 125.09 93.12 129.58C91.54 131.6 93.39 135.97 94.58 137.19C94.58 137.19 93.72 144.25 97.74 147.31C93.07 148.62 84.95 154.09 83.33 155.23L85.99 158.15C85.99 158.15 102.08 153.96 103.75 152.14C105.42 150.32 105.08 146.47 103.75 143C102.42 139.53 101.18 136.87 101.18 136.87C101.18 136.87 101.56 132.45 99.8 129.58Z" fill="url(#paint41_linear_1_11637)"/>
<path d="M65.49 125.45L63.51 127.02C62.82 127.45 62.24 127.84 61.75 128.18C59.28 129.91 59.63 133.72 62.39 134.94C62.41 134.95 62.43 134.96 62.45 134.97C63.06 135.23 63.77 135.09 64.26 134.65C65.8 133.24 66.71 130.8 67.65 129.34C64.77 128.05 65.3 126.68 65.49 125.45Z" fill="url(#paint42_linear_1_11637)"/>
<path d="M57.74 194.11L42.03 185.04L48.93 181.05L64.64 190.12L57.74 194.11Z" fill="white"/>
<path d="M42.67 185.04L48.93 181.42L64 190.12L57.74 193.74L42.67 185.04Z" fill="#0CCD43"/>
<path d="M59.07 192.29L61.49 190.89C60.69 190.43 60.54 189.74 61.03 189.18L50.55 183.13C49.59 183.41 48.39 183.33 47.59 182.86L45.17 184.26C45.97 184.72 46.12 185.41 45.63 185.97L56.11 192.02C57.07 191.74 58.27 191.83 59.07 192.29Z" fill="white"/>
<path d="M50.34 185.85C49.78 186.18 48.86 186.18 48.3 185.85C47.74 185.52 47.74 185 48.3 184.67C48.86 184.34 49.78 184.34 50.34 184.67C50.91 185 50.91 185.53 50.34 185.85Z" fill="#07802A"/>
<path d="M50.14 185.74C49.69 186 48.95 186 48.5 185.74C48.05 185.48 48.05 185.05 48.5 184.79C48.95 184.53 49.69 184.53 50.14 184.79C50.6 185.05 50.6 185.48 50.14 185.74Z" fill="#0CCD43"/>
<path d="M57.34 190.72C58.1353 190.72 58.78 190.348 58.78 189.89C58.78 189.432 58.1353 189.06 57.34 189.06C56.5447 189.06 55.9 189.432 55.9 189.89C55.9 190.348 56.5447 190.72 57.34 190.72Z" fill="#07802A"/>
<path d="M57.3401 190.56C57.9807 190.56 58.5001 190.26 58.5001 189.89C58.5001 189.52 57.9807 189.22 57.3401 189.22C56.6994 189.22 56.1801 189.52 56.1801 189.89C56.1801 190.26 56.6994 190.56 57.3401 190.56Z" fill="#0CCD43"/>
<path d="M55.39 188.77C54.26 189.43 52.41 189.43 51.28 188.77C50.15 188.11 50.15 187.05 51.28 186.4C52.41 185.74 54.26 185.74 55.39 186.4C56.53 187.05 56.53 188.11 55.39 188.77Z" fill="#07802A"/>
<path d="M53.34 188.93C54.6323 188.93 55.68 188.326 55.68 187.58C55.68 186.834 54.6323 186.23 53.34 186.23C52.0477 186.23 51 186.834 51 187.58C51 188.326 52.0477 188.93 53.34 188.93Z" fill="#0CCD43"/>
<path d="M52.8101 185.01C52.8001 185.01 52.7801 185.01 52.7701 185L50.1301 183.48C50.0901 183.46 50.0801 183.41 50.1001 183.37C50.1201 183.33 50.1701 183.32 50.2101 183.34L52.8501 184.86C52.8901 184.88 52.9001 184.93 52.8801 184.97C52.8701 185 52.8401 185.01 52.8101 185.01Z" fill="#0CCD43"/>
<path d="M60.6601 189.58C60.6501 189.58 60.6301 189.58 60.6201 189.57L57.9801 188.05C57.9401 188.03 57.9301 187.98 57.9501 187.94C57.9701 187.9 58.0201 187.89 58.0601 187.91L60.7001 189.43C60.7401 189.45 60.7501 189.5 60.7301 189.54C60.7101 189.56 60.6801 189.58 60.6601 189.58Z" fill="#0CCD43"/>
<path d="M60.32 189.77C60.31 189.77 60.29 189.77 60.28 189.76L57.64 188.24C57.6 188.22 57.59 188.17 57.61 188.13C57.63 188.09 57.68 188.08 57.72 188.1L60.36 189.62C60.4 189.64 60.41 189.69 60.39 189.73C60.38 189.76 60.35 189.77 60.32 189.77Z" fill="#0CCD43"/>
<path d="M57.35 191.49C57.34 191.49 57.32 191.49 57.31 191.48L54.67 189.96C54.63 189.94 54.62 189.89 54.64 189.85C54.66 189.81 54.71 189.8 54.75 189.82L57.39 191.34C57.43 191.36 57.44 191.41 57.42 191.45C57.4 191.47 57.38 191.49 57.35 191.49Z" fill="#0CCD43"/>
<path d="M56.09 191.19C56.08 191.19 56.06 191.19 56.05 191.18L54.3 190.17C54.26 190.15 54.25 190.1 54.27 190.06C54.29 190.02 54.34 190.01 54.38 190.03L56.13 191.04C56.17 191.06 56.18 191.11 56.16 191.15C56.14 191.17 56.12 191.19 56.09 191.19Z" fill="#0CCD43"/>
<path d="M59.35 189.6C59.34 189.6 59.32 189.6 59.31 189.59L57.95 188.81C57.91 188.79 57.9 188.74 57.92 188.7C57.94 188.66 57.99 188.65 58.03 188.67L59.39 189.45C59.43 189.47 59.44 189.52 59.42 189.56C59.4 189.58 59.37 189.6 59.35 189.6Z" fill="#0CCD43"/>
<path d="M51.02 184.41C51.01 184.41 50.99 184.41 50.98 184.4L49.77 183.7C49.73 183.68 49.72 183.63 49.74 183.59C49.76 183.55 49.81 183.54 49.85 183.56L51.06 184.26C51.1 184.28 51.11 184.33 51.09 184.37C51.08 184.39 51.05 184.41 51.02 184.41Z" fill="#0CCD43"/>
<path d="M48.73 186.51C48.72 186.51 48.7 186.51 48.69 186.5L47.41 185.76C47.37 185.74 47.36 185.69 47.38 185.65C47.4 185.61 47.45 185.6 47.49 185.62L48.77 186.36C48.81 186.38 48.82 186.43 48.8 186.47C48.78 186.49 48.75 186.51 48.73 186.51Z" fill="#0CCD43"/>
<path d="M48.83 186.99C48.82 186.99 48.8 186.99 48.79 186.98L46.43 185.62C46.39 185.6 46.38 185.55 46.4 185.51C46.42 185.47 46.47 185.46 46.51 185.48L48.87 186.84C48.91 186.86 48.92 186.91 48.9 186.95C48.88 186.98 48.86 186.99 48.83 186.99Z" fill="#0CCD43"/>
<path d="M94.11 188.67L78.4 179.61L85.3 175.62L101.01 184.69L94.11 188.67Z" fill="white"/>
<path d="M79.04 179.61L85.3 175.99L100.37 184.69L94.11 188.3L79.04 179.61Z" fill="#0CCD43"/>
<path d="M95.44 186.86L97.86 185.46C97.06 185 96.91 184.31 97.4 183.75L86.92 177.7C85.96 177.98 84.76 177.9 83.96 177.43L81.54 178.83C82.34 179.29 82.49 179.98 82 180.54L92.48 186.59C93.44 186.31 94.64 186.4 95.44 186.86Z" fill="white"/>
<path d="M85.69 180.66C86.4853 180.66 87.13 180.288 87.13 179.83C87.13 179.371 86.4853 179 85.69 179C84.8947 179 84.25 179.371 84.25 179.83C84.25 180.288 84.8947 180.66 85.69 180.66Z" fill="#07802A"/>
<path d="M85.69 180.5C86.3307 180.5 86.85 180.2 86.85 179.83C86.85 179.46 86.3307 179.16 85.69 179.16C85.0494 179.16 84.53 179.46 84.53 179.83C84.53 180.2 85.0494 180.5 85.69 180.5Z" fill="#0CCD43"/>
<path d="M93.71 185.29C94.5053 185.29 95.15 184.918 95.15 184.46C95.15 184.001 94.5053 183.63 93.71 183.63C92.9147 183.63 92.27 184.001 92.27 184.46C92.27 184.918 92.9147 185.29 93.71 185.29Z" fill="#07802A"/>
<path d="M94.53 184.93C94.08 185.19 93.34 185.19 92.89 184.93C92.44 184.67 92.44 184.24 92.89 183.98C93.34 183.72 94.08 183.72 94.53 183.98C94.98 184.25 94.98 184.67 94.53 184.93Z" fill="#0CCD43"/>
<path d="M91.76 183.33C90.63 183.99 88.79 183.99 87.65 183.33C86.52 182.67 86.52 181.61 87.65 180.96C88.78 180.3 90.62 180.3 91.76 180.96C92.9 181.62 92.9 182.68 91.76 183.33Z" fill="#07802A"/>
<path d="M89.71 183.5C91.0023 183.5 92.05 182.895 92.05 182.15C92.05 181.404 91.0023 180.8 89.71 180.8C88.4176 180.8 87.37 181.404 87.37 182.15C87.37 182.895 88.4176 183.5 89.71 183.5Z" fill="#0CCD43"/>
<path d="M89.19 179.58C89.18 179.58 89.16 179.58 89.15 179.57L86.51 178.05C86.47 178.03 86.46 177.98 86.48 177.94C86.5 177.9 86.55 177.89 86.59 177.91L89.23 179.43C89.27 179.45 89.28 179.5 89.26 179.54C89.24 179.57 89.21 179.58 89.19 179.58Z" fill="#0CCD43"/>
<path d="M97.0301 184.15C97.0201 184.15 97.0001 184.15 96.9901 184.14L94.3501 182.62C94.3101 182.6 94.3001 182.55 94.3201 182.51C94.3401 182.47 94.3901 182.46 94.4301 182.48L97.0701 184C97.1101 184.02 97.1201 184.07 97.1001 184.11C97.0801 184.13 97.0501 184.15 97.0301 184.15Z" fill="#0CCD43"/>
<path d="M96.69 184.34C96.68 184.34 96.66 184.34 96.65 184.33L94.01 182.81C93.97 182.79 93.96 182.74 93.98 182.7C94 182.66 94.05 182.65 94.09 182.67L96.73 184.19C96.77 184.21 96.78 184.26 96.76 184.3C96.75 184.32 96.72 184.34 96.69 184.34Z" fill="#0CCD43"/>
<path d="M93.72 186.06C93.71 186.06 93.69 186.06 93.68 186.05L91.04 184.53C91 184.51 90.99 184.46 91.01 184.42C91.03 184.38 91.08 184.37 91.12 184.39L93.76 185.91C93.8 185.93 93.81 185.98 93.79 186.02C93.78 186.04 93.75 186.06 93.72 186.06Z" fill="#0CCD43"/>
<path d="M92.46 185.75C92.45 185.75 92.43 185.75 92.42 185.74L90.68 184.73C90.64 184.71 90.63 184.66 90.65 184.62C90.67 184.58 90.72 184.57 90.76 184.59L92.5 185.6C92.54 185.62 92.55 185.67 92.53 185.71C92.51 185.74 92.49 185.75 92.46 185.75Z" fill="#0CCD43"/>
<path d="M95.72 184.17C95.71 184.17 95.69 184.17 95.68 184.16L94.32 183.38C94.28 183.36 94.27 183.31 94.29 183.27C94.31 183.23 94.36 183.22 94.4 183.24L95.76 184.02C95.8 184.04 95.81 184.09 95.79 184.13C95.77 184.15 95.74 184.17 95.72 184.17Z" fill="#0CCD43"/>
<path d="M87.39 178.97C87.38 178.97 87.36 178.97 87.35 178.96L86.14 178.26C86.1 178.24 86.09 178.19 86.11 178.15C86.13 178.11 86.18 178.1 86.22 178.12L87.43 178.82C87.47 178.84 87.48 178.89 87.46 178.93C87.45 178.96 87.42 178.97 87.39 178.97Z" fill="#0CCD43"/>
<path d="M85.1 181.08C85.09 181.08 85.07 181.08 85.06 181.07L83.78 180.33C83.74 180.31 83.73 180.26 83.75 180.22C83.77 180.18 83.82 180.17 83.86 180.19L85.14 180.93C85.18 180.95 85.19 181 85.17 181.04C85.15 181.06 85.12 181.08 85.1 181.08Z" fill="#0CCD43"/>
<path d="M85.2 181.56C85.19 181.56 85.17 181.56 85.16 181.55L82.8 180.19C82.76 180.17 82.75 180.12 82.77 180.08C82.79 180.04 82.84 180.03 82.88 180.05L85.24 181.41C85.28 181.43 85.29 181.48 85.27 181.52C85.25 181.55 85.23 181.56 85.2 181.56Z" fill="#0CCD43"/>
<path d="M62.91 163.86L47.2 172.93L54.0999 176.91L69.8099 167.84L62.91 163.86Z" fill="white"/>
<path d="M47.84 172.93L54.1 176.54L69.17 167.84L62.91 164.23L47.84 172.93Z" fill="#0CCD43"/>
<path d="M64.24 165.68L66.66 167.08C65.86 167.54 65.71 168.23 66.2 168.79L55.72 174.84C54.76 174.56 53.56 174.64 52.76 175.11L50.34 173.71C51.14 173.25 51.29 172.56 50.8 172L61.28 165.95C62.25 166.22 63.44 166.14 64.24 165.68Z" fill="white"/>
<path d="M54.4899 173.53C55.2852 173.53 55.9299 173.159 55.9299 172.7C55.9299 172.242 55.2852 171.87 54.4899 171.87C53.6946 171.87 53.0499 172.242 53.0499 172.7C53.0499 173.159 53.6946 173.53 54.4899 173.53Z" fill="#07802A"/>
<path d="M54.49 173.37C55.1306 173.37 55.65 173.07 55.65 172.7C55.65 172.33 55.1306 172.03 54.49 172.03C53.8493 172.03 53.33 172.33 53.33 172.7C53.33 173.07 53.8493 173.37 54.49 173.37Z" fill="#0CCD43"/>
<path d="M63.5299 167.49C62.9699 167.17 62.0499 167.17 61.4899 167.49C60.9299 167.81 60.9299 168.34 61.4899 168.67C62.0499 168.99 62.9699 168.99 63.5299 168.67C64.0899 168.35 64.0899 167.81 63.5299 167.49Z" fill="#07802A"/>
<path d="M63.3299 167.6C62.8799 167.34 62.1399 167.34 61.6899 167.6C61.2399 167.86 61.2399 168.29 61.6899 168.55C62.1399 168.81 62.8799 168.81 63.3299 168.55C63.7799 168.29 63.7799 167.86 63.3299 167.6Z" fill="#0CCD43"/>
<path d="M60.5599 169.2C59.4199 168.54 57.5799 168.54 56.4499 169.2C55.3199 169.86 55.3199 170.92 56.4499 171.57C57.5799 172.23 59.4199 172.23 60.5599 171.57C61.6999 170.92 61.6999 169.85 60.5599 169.2Z" fill="#07802A"/>
<path d="M60.16 169.43C59.25 168.9 57.77 168.9 56.85 169.43C55.94 169.96 55.94 170.81 56.85 171.34C57.76 171.87 59.24 171.87 60.16 171.34C61.07 170.81 61.07 169.96 60.16 169.43Z" fill="#0CCD43"/>
<path d="M55.3499 174.63C55.3199 174.63 55.2999 174.62 55.2799 174.59C55.2599 174.55 55.2699 174.5 55.3099 174.48L57.9499 172.96C57.9899 172.94 58.0399 172.95 58.0599 172.99C58.0799 173.03 58.0699 173.08 58.0299 173.1L55.3899 174.62C55.3799 174.63 55.3599 174.63 55.3499 174.63Z" fill="#0CCD43"/>
<path d="M63.19 170.07C63.16 170.07 63.14 170.06 63.12 170.03C63.1 169.99 63.11 169.94 63.15 169.92L65.79 168.4C65.83 168.38 65.88 168.39 65.9 168.43C65.92 168.47 65.91 168.52 65.87 168.54L63.23 170.06C63.22 170.07 63.21 170.07 63.19 170.07Z" fill="#0CCD43"/>
<path d="M62.8599 169.88C62.8299 169.88 62.8099 169.87 62.7899 169.84C62.7699 169.8 62.7799 169.75 62.8199 169.73L65.4599 168.21C65.4999 168.19 65.5499 168.2 65.5699 168.24C65.5899 168.28 65.5799 168.33 65.5399 168.35L62.8999 169.87C62.8899 169.87 62.8699 169.88 62.8599 169.88Z" fill="#0CCD43"/>
<path d="M59.8799 168.16C59.8499 168.16 59.8299 168.15 59.8099 168.12C59.7899 168.08 59.7999 168.03 59.8399 168.01L62.4799 166.49C62.5199 166.47 62.5699 166.48 62.5899 166.52C62.6099 166.56 62.5999 166.61 62.5599 166.63L59.9199 168.15C59.9099 168.16 59.8999 168.16 59.8799 168.16Z" fill="#0CCD43"/>
<path d="M59.5099 167.95C59.4799 167.95 59.4599 167.94 59.4399 167.91C59.4199 167.87 59.4299 167.82 59.4699 167.8L61.2099 166.79C61.2499 166.77 61.2999 166.78 61.3199 166.82C61.3399 166.86 61.3299 166.91 61.2899 166.93L59.5499 167.94C59.5399 167.94 59.5299 167.95 59.5099 167.95Z" fill="#0CCD43"/>
<path d="M63.16 169.31C63.13 169.31 63.11 169.3 63.09 169.27C63.07 169.23 63.08 169.18 63.12 169.16L64.48 168.38C64.52 168.36 64.57 168.37 64.59 168.41C64.61 168.45 64.6 168.5 64.56 168.52L63.2 169.3C63.19 169.31 63.17 169.31 63.16 169.31Z" fill="#0CCD43"/>
<path d="M54.9799 174.42C54.9499 174.42 54.9299 174.41 54.9099 174.38C54.8899 174.34 54.8999 174.29 54.9399 174.27L56.1499 173.57C56.1899 173.55 56.2399 173.56 56.2599 173.6C56.2799 173.64 56.2699 173.69 56.2299 173.71L55.0199 174.41C55.0099 174.42 54.9899 174.42 54.9799 174.42Z" fill="#0CCD43"/>
<path d="M52.6199 172.36C52.5899 172.36 52.5699 172.35 52.5499 172.32C52.5299 172.28 52.5399 172.23 52.5799 172.21L53.8599 171.47C53.8999 171.45 53.9499 171.46 53.9699 171.5C53.9899 171.54 53.9799 171.59 53.9399 171.61L52.6599 172.35C52.6499 172.35 52.6299 172.36 52.6199 172.36Z" fill="#0CCD43"/>
<path d="M51.6399 172.49C51.6099 172.49 51.5899 172.48 51.5699 172.45C51.5499 172.41 51.5599 172.36 51.5999 172.34L53.9599 170.98C53.9999 170.96 54.0499 170.97 54.0699 171.01C54.0899 171.05 54.0799 171.1 54.0399 171.12L51.6799 172.48C51.6699 172.49 51.6499 172.49 51.6399 172.49Z" fill="#0CCD43"/>
<path d="M113.12 174.54C112.99 174.27 112.74 174.02 112.37 173.81C111.22 173.15 109.36 173.15 108.21 173.81C107.84 174.02 107.6 174.27 107.46 174.54H107.35V175.01C107.35 175.44 107.64 175.88 108.21 176.21C109.36 176.87 111.22 176.87 112.37 176.21C112.94 175.88 113.23 175.44 113.23 175.01V174.54H113.12Z" fill="#739FAB"/>
<path d="M112.17 173.45C111.13 172.85 109.45 172.85 108.41 173.45C107.37 174.05 107.37 175.02 108.41 175.62C109.45 176.22 111.13 176.22 112.17 175.62C113.21 175.02 113.21 174.05 112.17 173.45Z" fill="#D3FCFF"/>
<path d="M112.37 173.26C111.22 172.6 109.36 172.6 108.21 173.26C107.06 173.92 107.06 175 108.21 175.66C109.36 176.32 111.22 176.32 112.37 175.66C113.52 175 113.52 173.93 112.37 173.26ZM112.17 175.55C111.13 176.15 109.45 176.15 108.41 175.55C107.37 174.95 107.37 173.98 108.41 173.38C109.45 172.78 111.13 172.78 112.17 173.38C113.21 173.98 113.21 174.95 112.17 175.55Z" fill="#9AD4E4"/>
<path d="M112.37 175.67C111.22 176.33 109.36 176.33 108.21 175.67C107.65 175.35 107.36 174.93 107.35 174.5C107.33 174.95 107.62 175.4 108.21 175.74C109.36 176.4 111.22 176.4 112.37 175.74C112.96 175.4 113.25 174.95 113.23 174.5C113.21 174.92 112.93 175.34 112.37 175.67Z" fill="#D3FCFF"/>
<path d="M112.17 173.38C111.13 172.78 109.45 172.78 108.41 173.38C107.87 173.69 107.62 174.1 107.63 174.5C107.65 174.12 107.9 173.74 108.41 173.45C109.45 172.85 111.13 172.85 112.17 173.45C112.67 173.74 112.93 174.12 112.95 174.5C112.96 174.1 112.7 173.69 112.17 173.38Z" fill="#739FAB"/>
<path d="M74.94 181.79C74.81 181.52 74.56 181.27 74.19 181.06C73.04 180.4 71.18 180.4 70.03 181.06C69.66 181.27 69.42 181.52 69.28 181.79H69.17V182.26C69.17 182.69 69.46 183.13 70.03 183.46C71.18 184.12 73.04 184.12 74.19 183.46C74.76 183.13 75.05 182.69 75.05 182.26V181.79H74.94Z" fill="#739FAB"/>
<path d="M72.11 183.33C73.579 183.33 74.77 182.641 74.77 181.79C74.77 180.939 73.579 180.25 72.11 180.25C70.6409 180.25 69.45 180.939 69.45 181.79C69.45 182.641 70.6409 183.33 72.11 183.33Z" fill="#D3FCFF"/>
<path d="M74.2 180.52C73.05 179.86 71.19 179.86 70.04 180.52C68.89 181.18 68.89 182.26 70.04 182.92C71.19 183.58 73.05 183.58 74.2 182.92C75.34 182.26 75.34 181.18 74.2 180.52ZM74 182.81C72.96 183.41 71.28 183.41 70.24 182.81C69.2 182.21 69.2 181.24 70.24 180.64C71.28 180.04 72.96 180.04 74 180.64C75.03 181.24 75.03 182.21 74 182.81Z" fill="#9AD4E4"/>
<path d="M74.2 182.92C73.05 183.58 71.19 183.58 70.04 182.92C69.48 182.6 69.19 182.18 69.18 181.75C69.16 182.2 69.45 182.65 70.04 182.99C71.19 183.65 73.05 183.65 74.2 182.99C74.79 182.65 75.08 182.2 75.06 181.75C75.04 182.18 74.75 182.6 74.2 182.92Z" fill="#D3FCFF"/>
<path d="M74 180.64C72.96 180.04 71.28 180.04 70.24 180.64C69.7 180.95 69.45 181.36 69.46 181.76C69.48 181.38 69.73 181 70.24 180.71C71.28 180.11 72.96 180.11 74 180.71C74.5 181 74.76 181.38 74.78 181.76C74.79 181.35 74.53 180.94 74 180.64Z" fill="#739FAB"/>
<path d="M72.6401 194.45C72.5101 194.18 72.2601 193.93 71.8901 193.72C70.7401 193.06 68.8801 193.06 67.7301 193.72C67.3601 193.93 67.1201 194.18 66.9801 194.45H66.8701V194.92C66.8701 195.35 67.1601 195.79 67.7301 196.12C68.8801 196.78 70.7401 196.78 71.8901 196.12C72.4601 195.79 72.7501 195.35 72.7501 194.92V194.45H72.6401Z" fill="#739FAB"/>
<path d="M69.81 195.99C71.2791 195.99 72.47 195.301 72.47 194.45C72.47 193.6 71.2791 192.91 69.81 192.91C68.3409 192.91 67.15 193.6 67.15 194.45C67.15 195.301 68.3409 195.99 69.81 195.99Z" fill="#D3FCFF"/>
<path d="M71.89 193.17C70.74 192.51 68.8801 192.51 67.7301 193.17C66.5801 193.83 66.5801 194.91 67.7301 195.57C68.8801 196.23 70.74 196.23 71.89 195.57C73.0401 194.91 73.0401 193.84 71.89 193.17ZM71.6901 195.46C70.6501 196.06 68.9701 196.06 67.9301 195.46C66.8901 194.86 66.8901 193.89 67.9301 193.29C68.9701 192.69 70.6501 192.69 71.6901 193.29C72.7301 193.89 72.7301 194.86 71.6901 195.46Z" fill="#9AD4E4"/>
<path d="M71.8901 195.58C70.7401 196.24 68.8801 196.24 67.7301 195.58C67.1701 195.26 66.8801 194.84 66.8701 194.41C66.8501 194.86 67.1401 195.31 67.7301 195.65C68.8801 196.31 70.7401 196.31 71.8901 195.65C72.4801 195.31 72.7701 194.86 72.7501 194.41C72.7401 194.84 72.4501 195.26 71.8901 195.58Z" fill="#D3FCFF"/>
<path d="M71.6901 193.29C70.6501 192.69 68.9701 192.69 67.9301 193.29C67.3901 193.6 67.1401 194.01 67.1501 194.41C67.1701 194.03 67.4201 193.65 67.9301 193.36C68.9701 192.76 70.6501 192.76 71.6901 193.36C72.1901 193.65 72.4501 194.03 72.4701 194.41C72.4901 194.01 72.2301 193.6 71.6901 193.29Z" fill="#739FAB"/>
<path d="M38.93 178.42C38.8 178.15 38.55 177.9 38.18 177.69C37.03 177.03 35.17 177.03 34.02 177.69C33.65 177.9 33.41 178.15 33.27 178.42H33.16V178.89C33.16 179.32 33.45 179.76 34.02 180.09C35.17 180.75 37.03 180.75 38.18 180.09C38.75 179.76 39.04 179.32 39.04 178.89V178.42H38.93Z" fill="#739FAB"/>
<path d="M36.0999 179.96C37.569 179.96 38.7599 179.271 38.7599 178.42C38.7599 177.57 37.569 176.88 36.0999 176.88C34.6309 176.88 33.4399 177.57 33.4399 178.42C33.4399 179.271 34.6309 179.96 36.0999 179.96Z" fill="#D3FCFF"/>
<path d="M38.19 177.14C37.04 176.48 35.18 176.48 34.03 177.14C32.88 177.8 32.88 178.88 34.03 179.54C35.18 180.2 37.04 180.2 38.19 179.54C39.33 178.88 39.33 177.81 38.19 177.14ZM37.99 179.43C36.95 180.03 35.27 180.03 34.23 179.43C33.19 178.83 33.19 177.86 34.23 177.26C35.27 176.66 36.95 176.66 37.99 177.26C39.02 177.86 39.02 178.83 37.99 179.43Z" fill="#9AD4E4"/>
<path d="M38.19 179.55C37.04 180.21 35.18 180.21 34.03 179.55C33.47 179.23 33.18 178.81 33.17 178.38C33.15 178.83 33.44 179.28 34.03 179.62C35.18 180.28 37.04 180.28 38.19 179.62C38.78 179.28 39.07 178.83 39.05 178.38C39.03 178.8 38.74 179.22 38.19 179.55Z" fill="#D3FCFF"/>
<path d="M37.99 177.26C36.95 176.66 35.27 176.66 34.23 177.26C33.69 177.57 33.44 177.98 33.45 178.38C33.47 178 33.72 177.62 34.23 177.33C35.27 176.73 36.95 176.73 37.99 177.33C38.49 177.62 38.75 178 38.77 178.38C38.78 177.98 38.52 177.57 37.99 177.26Z" fill="#739FAB"/>
<path d="M59.5 159.52C59.37 159.25 59.12 159 58.75 158.79C57.6 158.13 55.74 158.13 54.59 158.79C54.22 159 53.98 159.25 53.84 159.52H53.73V159.99C53.73 160.42 54.02 160.86 54.59 161.19C55.74 161.85 57.6 161.85 58.75 161.19C59.32 160.86 59.61 160.42 59.61 159.99V159.52H59.5Z" fill="#739FAB"/>
<path d="M58.55 158.44C57.51 157.84 55.83 157.84 54.79 158.44C53.75 159.04 53.75 160.01 54.79 160.61C55.83 161.21 57.51 161.21 58.55 160.61C59.59 160.01 59.59 159.04 58.55 158.44Z" fill="#D3FCFF"/>
<path d="M58.75 158.25C57.6 157.59 55.74 157.59 54.59 158.25C53.44 158.91 53.44 159.99 54.59 160.65C55.74 161.31 57.6 161.31 58.75 160.65C59.9 159.99 59.9 158.91 58.75 158.25ZM58.55 160.54C57.51 161.14 55.83 161.14 54.79 160.54C53.75 159.94 53.75 158.97 54.79 158.37C55.83 157.77 57.51 157.77 58.55 158.37C59.59 158.96 59.59 159.94 58.55 160.54Z" fill="#9AD4E4"/>
<path d="M58.7501 160.65C57.6001 161.31 55.7401 161.31 54.5901 160.65C54.0301 160.33 53.7501 159.91 53.7301 159.48C53.7101 159.93 54.0001 160.38 54.5901 160.72C55.7401 161.38 57.6001 161.38 58.7501 160.72C59.3401 160.38 59.6301 159.93 59.6101 159.48C59.5901 159.91 59.3101 160.33 58.7501 160.65Z" fill="#D3FCFF"/>
<path d="M58.5501 158.36C57.5101 157.76 55.8301 157.76 54.7901 158.36C54.2501 158.67 54.0001 159.08 54.0101 159.48C54.0301 159.1 54.2801 158.72 54.7901 158.43C55.8301 157.83 57.5101 157.83 58.5501 158.43C59.0501 158.72 59.3101 159.1 59.3301 159.48C59.3401 159.08 59.0901 158.67 58.5501 158.36Z" fill="#739FAB"/>
<path opacity="0.75" d="M132.72 59.6799L138.98 63.2899V65.2499L132.72 61.6399V59.6799Z" fill="#D81D3A"/>
<path opacity="0.5" d="M132.72 57.0398L138.98 60.6498V62.6098L132.72 58.9998V57.0398Z" fill="#D81D3A"/>
<path opacity="0.25" d="M132.72 54.3899L138.98 58.0099V59.9699L132.72 56.3499V54.3899Z" fill="#D81D3A"/>
<path d="M130.31 66.7298L135.85 75.4798L141.4 73.1298L138.98 71.7398V65.9398L132.72 62.3198V68.1198L130.31 66.7298Z" fill="#D81D3A"/>
<path opacity="0.75" d="M25.1901 66.4199L31.1401 69.8499V71.7099L25.1901 68.2799V66.4199Z" fill="#D81D3A"/>
<path opacity="0.5" d="M25.1901 63.8999L31.1401 67.3399V69.1999L25.1901 65.7699V63.8999Z" fill="#D81D3A"/>
<path opacity="0.25" d="M25.1901 61.3899L31.1401 64.8299V66.6899L25.1901 63.2499V61.3899Z" fill="#D81D3A"/>
<path d="M22.89 73.1099L28.16 81.4299L33.43 79.1999L31.14 77.8699V72.3599L25.19 68.9299V74.4399L22.89 73.1099Z" fill="#D81D3A"/>
<path opacity="0.75" d="M56.5701 48.8999L64.4301 53.4299V55.8899L56.5701 51.3599V48.8999Z" fill="#D81D3A"/>
<path opacity="0.5" d="M56.5701 45.5801L64.4301 50.1201V52.5701L56.5701 48.0401V45.5801Z" fill="#D81D3A"/>
<path opacity="0.25" d="M56.5701 42.26L64.4301 46.8V49.26L56.5701 44.72V42.26Z" fill="#D81D3A"/>
<path d="M53.54 57.74L60.5 68.73L67.47 65.78L64.43 64.03V56.75L56.57 52.21V59.49L53.54 57.74Z" fill="#D81D3A"/>
<path d="M50.11 22.0299L50.1 24.1499C51.28 24.9999 52.09 26.1299 52.77 27.3399L51.68 28.1299C51 27.0099 50.43 26.2799 49.55 25.7699C48.55 25.1899 47.95 25.4399 47.94 26.5399C47.93 29.0799 52.95 31.4699 52.94 35.7399C52.93 37.7599 51.9 38.6399 50.07 37.9699L50.06 40.1499L48.58 39.2999L48.59 37.1799C47.47 36.4099 46.23 35.0999 45.41 33.7399L46.37 32.6399C47.24 33.9299 48.1 34.9599 49.09 35.5299C50.29 36.2199 50.88 35.8799 50.88 34.7399C50.89 31.9399 45.87 29.4499 45.88 25.4799C45.89 23.5099 46.96 22.7299 48.62 23.3499L48.63 21.1899L50.11 22.0299Z" fill="#D81D3A"/>
<path d="M50.11 22.0299L50.1 24.1499C51.28 24.9999 52.09 26.1299 52.77 27.3399L51.68 28.1299C51 27.0099 50.43 26.2799 49.55 25.7699C48.55 25.1899 47.95 25.4399 47.94 26.5399C47.93 29.0799 52.95 31.4699 52.94 35.7399C52.93 37.7599 51.9 38.6399 50.07 37.9699L50.06 40.1499L48.58 39.2999L48.59 37.1799C47.47 36.4099 46.23 35.0999 45.41 33.7399L46.37 32.6399C47.24 33.9299 48.1 34.9599 49.09 35.5299C50.29 36.2199 50.88 35.8799 50.88 34.7399C50.89 31.9399 45.87 29.4499 45.88 25.4799C45.89 23.5099 46.96 22.7299 48.62 23.3499L48.63 21.1899L50.11 22.0299Z" fill="#D81D3A"/>
<path d="M148 94.7199V97.2499C149.4 98.2599 150.37 99.6099 151.19 101.06L149.88 102.01C149.07 100.68 148.39 99.8099 147.33 99.1899C146.14 98.4999 145.42 98.7999 145.41 100.11C145.4 103.14 151.39 105.99 151.37 111.09C151.36 113.5 150.12 114.55 147.95 113.75L147.94 116.35L146.18 115.33L146.19 112.8C144.85 111.88 143.38 110.31 142.39 108.69L143.54 107.37C144.57 108.91 145.61 110.14 146.79 110.82C148.22 111.65 148.92 111.24 148.93 109.87C148.94 106.53 142.95 103.56 142.97 98.8099C142.98 96.4499 144.26 95.5299 146.24 96.2599L146.25 93.6799L148 94.7199Z" fill="#D81D3A"/>
<path d="M148 94.7199V97.2499C149.4 98.2599 150.37 99.6099 151.19 101.06L149.88 102.01C149.07 100.68 148.39 99.8099 147.33 99.1899C146.14 98.4999 145.42 98.7999 145.41 100.11C145.4 103.14 151.39 105.99 151.37 111.09C151.36 113.5 150.12 114.55 147.95 113.75L147.94 116.35L146.18 115.33L146.19 112.8C144.85 111.88 143.38 110.31 142.39 108.69L143.54 107.37C144.57 108.91 145.61 110.14 146.79 110.82C148.22 111.65 148.92 111.24 148.93 109.87C148.94 106.53 142.95 103.56 142.97 98.8099C142.98 96.4499 144.26 95.5299 146.24 96.2599L146.25 93.6799L148 94.7199Z" fill="#D81D3A"/>
<path d="M47.26 80.5898L47.25 82.4998C48.31 83.2698 49.05 84.2898 49.66 85.3898L48.67 86.1098C48.05 85.0998 47.54 84.4398 46.74 83.9798C45.84 83.4598 45.29 83.6798 45.29 84.6798C45.28 86.9798 49.82 89.1398 49.81 92.9998C49.8 94.8198 48.87 95.6198 47.21 95.0198L47.2 96.9898L45.86 96.2198L45.87 94.3098C44.86 93.6098 43.74 92.4198 42.99 91.1898L43.86 90.1898C44.64 91.3498 45.43 92.2898 46.33 92.8098C47.42 93.4398 47.95 93.1298 47.95 92.0898C47.96 89.5598 43.42 87.3098 43.43 83.7098C43.44 81.9198 44.41 81.2198 45.91 81.7798L45.92 79.8298L47.26 80.5898Z" fill="#D81D3A"/>
<path d="M47.26 80.5898L47.25 82.4998C48.31 83.2698 49.05 84.2898 49.66 85.3898L48.67 86.1098C48.05 85.0998 47.54 84.4398 46.74 83.9798C45.84 83.4598 45.29 83.6798 45.29 84.6798C45.28 86.9798 49.82 89.1398 49.81 92.9998C49.8 94.8198 48.87 95.6198 47.21 95.0198L47.2 96.9898L45.86 96.2198L45.87 94.3098C44.86 93.6098 43.74 92.4198 42.99 91.1898L43.86 90.1898C44.64 91.3498 45.43 92.2898 46.33 92.8098C47.42 93.4398 47.95 93.1298 47.95 92.0898C47.96 89.5598 43.42 87.3098 43.43 83.7098C43.44 81.9198 44.41 81.2198 45.91 81.7798L45.92 79.8298L47.26 80.5898Z" fill="#D81D3A"/>
<defs>
<linearGradient id="paint0_linear_1_11637" x1="75.6332" y1="60.2691" x2="75.6332" y2="185.278" gradientUnits="userSpaceOnUse">
<stop/>
<stop offset="0.0896" stop-color="#080B0C"/>
<stop offset="0.2512" stop-color="#1F282C"/>
<stop offset="0.4665" stop-color="#44575F"/>
<stop offset="0.7273" stop-color="#7798A6"/>
<stop offset="1" stop-color="#B1E3F8"/>
</linearGradient>
<linearGradient id="paint1_linear_1_11637" x1="86.8014" y1="65.9701" x2="86.8014" y2="82.3755" gradientUnits="userSpaceOnUse">
<stop stop-color="#D81D3A"/>
<stop offset="1" stop-color="#BF1A33"/>
</linearGradient>
<linearGradient id="paint2_linear_1_11637" x1="84.8245" y1="66.2585" x2="84.8245" y2="82.4967" gradientUnits="userSpaceOnUse">
<stop stop-color="#D86375"/>
<stop offset="1" stop-color="#D81D3A"/>
</linearGradient>
<linearGradient id="paint3_linear_1_11637" x1="85.836" y1="63.2217" x2="85.836" y2="65.3819" gradientUnits="userSpaceOnUse">
<stop stop-color="#D86375"/>
<stop offset="0.2071" stop-color="#D55B6E"/>
<stop offset="0.5253" stop-color="#CE465B"/>
<stop offset="0.913" stop-color="#C2233B"/>
<stop offset="1" stop-color="#BF1A33"/>
</linearGradient>
<linearGradient id="paint4_linear_1_11637" x1="90.3221" y1="23.7379" x2="90.3221" y2="67.68" gradientUnits="userSpaceOnUse">
<stop stop-color="#D81D3A"/>
<stop offset="1" stop-color="#BF1A33"/>
</linearGradient>
<linearGradient id="paint5_linear_1_11637" x1="81.3307" y1="24.5103" x2="81.3307" y2="68.0046" gradientUnits="userSpaceOnUse">
<stop stop-color="#D86375"/>
<stop offset="1" stop-color="#D81D3A"/>
</linearGradient>
<linearGradient id="paint6_linear_1_11637" x1="85.8567" y1="14.305" x2="85.8567" y2="24.1302" gradientUnits="userSpaceOnUse">
<stop stop-color="#D86375"/>
<stop offset="0.2071" stop-color="#D55B6E"/>
<stop offset="0.5253" stop-color="#CE465B"/>
<stop offset="0.913" stop-color="#C2233B"/>
<stop offset="1" stop-color="#BF1A33"/>
</linearGradient>
<linearGradient id="paint7_linear_1_11637" x1="86.8014" y1="2.78579" x2="86.8014" y2="19.1912" gradientUnits="userSpaceOnUse">
<stop stop-color="#D81D3A"/>
<stop offset="1" stop-color="#BF1A33"/>
</linearGradient>
<linearGradient id="paint8_linear_1_11637" x1="84.8245" y1="3.0742" x2="84.8245" y2="19.3124" gradientUnits="userSpaceOnUse">
<stop stop-color="#D86375"/>
<stop offset="1" stop-color="#D81D3A"/>
</linearGradient>
<linearGradient id="paint9_linear_1_11637" x1="85.836" y1="0.0374" x2="85.836" y2="2.1975" gradientUnits="userSpaceOnUse">
<stop stop-color="#D86375"/>
<stop offset="0.2071" stop-color="#D55B6E"/>
<stop offset="0.5253" stop-color="#CE465B"/>
<stop offset="0.913" stop-color="#C2233B"/>
<stop offset="1" stop-color="#BF1A33"/>
</linearGradient>
<linearGradient id="paint10_linear_1_11637" x1="101.156" y1="87.6551" x2="101.156" y2="98.3717" gradientUnits="userSpaceOnUse">
<stop stop-color="#D81D3A"/>
<stop offset="1" stop-color="#BF1A33"/>
</linearGradient>
<linearGradient id="paint11_linear_1_11637" x1="99.1793" y1="87.8434" x2="99.1793" y2="98.4508" gradientUnits="userSpaceOnUse">
<stop stop-color="#D86375"/>
<stop offset="1" stop-color="#D81D3A"/>
</linearGradient>
<linearGradient id="paint12_linear_1_11637" x1="100.191" y1="85.4756" x2="100.191" y2="87.6358" gradientUnits="userSpaceOnUse">
<stop stop-color="#D86375"/>
<stop offset="0.2071" stop-color="#D55B6E"/>
<stop offset="0.5253" stop-color="#CE465B"/>
<stop offset="0.913" stop-color="#C2233B"/>
<stop offset="1" stop-color="#BF1A33"/>
</linearGradient>
<linearGradient id="paint13_linear_1_11637" x1="104.677" y1="49.4893" x2="104.677" y2="90.2466" gradientUnits="userSpaceOnUse">
<stop stop-color="#D81D3A"/>
<stop offset="1" stop-color="#BF1A33"/>
</linearGradient>
<linearGradient id="paint14_linear_1_11637" x1="95.6855" y1="50.2058" x2="95.6855" y2="90.5476" gradientUnits="userSpaceOnUse">
<stop stop-color="#D86375"/>
<stop offset="1" stop-color="#D81D3A"/>
</linearGradient>
<linearGradient id="paint15_linear_1_11637" x1="100.211" y1="40.375" x2="100.211" y2="50.2001" gradientUnits="userSpaceOnUse">
<stop stop-color="#D86375"/>
<stop offset="0.2071" stop-color="#D55B6E"/>
<stop offset="0.5253" stop-color="#CE465B"/>
<stop offset="0.913" stop-color="#C2233B"/>
<stop offset="1" stop-color="#BF1A33"/>
</linearGradient>
<linearGradient id="paint16_linear_1_11637" x1="101.156" y1="34.2689" x2="101.156" y2="45.7447" gradientUnits="userSpaceOnUse">
<stop stop-color="#D81D3A"/>
<stop offset="1" stop-color="#BF1A33"/>
</linearGradient>
<linearGradient id="paint17_linear_1_11637" x1="99.1793" y1="34.4707" x2="99.1793" y2="45.8295" gradientUnits="userSpaceOnUse">
<stop stop-color="#D86375"/>
<stop offset="1" stop-color="#D81D3A"/>
</linearGradient>
<linearGradient id="paint18_linear_1_11637" x1="100.191" y1="32.0135" x2="100.191" y2="34.1737" gradientUnits="userSpaceOnUse">
<stop stop-color="#D86375"/>
<stop offset="0.2071" stop-color="#D55B6E"/>
<stop offset="0.5253" stop-color="#CE465B"/>
<stop offset="0.913" stop-color="#C2233B"/>
<stop offset="1" stop-color="#BF1A33"/>
</linearGradient>
<linearGradient id="paint19_linear_1_11637" x1="115.511" y1="125.807" x2="115.511" y2="135.541" gradientUnits="userSpaceOnUse">
<stop stop-color="#D81D3A"/>
<stop offset="1" stop-color="#BF1A33"/>
</linearGradient>
<linearGradient id="paint20_linear_1_11637" x1="113.534" y1="125.978" x2="113.534" y2="135.613" gradientUnits="userSpaceOnUse">
<stop stop-color="#D86375"/>
<stop offset="1" stop-color="#D81D3A"/>
</linearGradient>
<linearGradient id="paint21_linear_1_11637" x1="114.546" y1="123.726" x2="114.546" y2="125.886" gradientUnits="userSpaceOnUse">
<stop stop-color="#D86375"/>
<stop offset="0.2071" stop-color="#D55B6E"/>
<stop offset="0.5253" stop-color="#CE465B"/>
<stop offset="0.913" stop-color="#C2233B"/>
<stop offset="1" stop-color="#BF1A33"/>
</linearGradient>
<linearGradient id="paint22_linear_1_11637" x1="119.032" y1="76.9164" x2="119.032" y2="127.53" gradientUnits="userSpaceOnUse">
<stop stop-color="#D81D3A"/>
<stop offset="1" stop-color="#BF1A33"/>
</linearGradient>
<linearGradient id="paint23_linear_1_11637" x1="110.04" y1="77.8061" x2="110.04" y2="127.903" gradientUnits="userSpaceOnUse">
<stop stop-color="#D86375"/>
<stop offset="1" stop-color="#D81D3A"/>
</linearGradient>
<linearGradient id="paint24_linear_1_11637" x1="114.566" y1="66.8162" x2="114.566" y2="76.6414" gradientUnits="userSpaceOnUse">
<stop stop-color="#D86375"/>
<stop offset="0.2071" stop-color="#D55B6E"/>
<stop offset="0.5253" stop-color="#CE465B"/>
<stop offset="0.913" stop-color="#C2233B"/>
<stop offset="1" stop-color="#BF1A33"/>
</linearGradient>
<linearGradient id="paint25_linear_1_11637" x1="115.511" y1="55.297" x2="115.511" y2="71.7024" gradientUnits="userSpaceOnUse">
<stop stop-color="#D81D3A"/>
<stop offset="1" stop-color="#BF1A33"/>
</linearGradient>
<linearGradient id="paint26_linear_1_11637" x1="113.534" y1="55.5853" x2="113.534" y2="71.8236" gradientUnits="userSpaceOnUse">
<stop stop-color="#D86375"/>
<stop offset="1" stop-color="#D81D3A"/>
</linearGradient>
<linearGradient id="paint27_linear_1_11637" x1="114.546" y1="52.5485" x2="114.546" y2="54.7087" gradientUnits="userSpaceOnUse">
<stop stop-color="#D86375"/>
<stop offset="0.2071" stop-color="#D55B6E"/>
<stop offset="0.5253" stop-color="#CE465B"/>
<stop offset="0.913" stop-color="#C2233B"/>
<stop offset="1" stop-color="#BF1A33"/>
</linearGradient>
<linearGradient id="paint28_linear_1_11637" x1="129.866" y1="154.299" x2="129.866" y2="164.955" gradientUnits="userSpaceOnUse">
<stop stop-color="#D81D3A"/>
<stop offset="1" stop-color="#BF1A33"/>
</linearGradient>
<linearGradient id="paint29_linear_1_11637" x1="127.889" y1="154.487" x2="127.889" y2="165.034" gradientUnits="userSpaceOnUse">
<stop stop-color="#D86375"/>
<stop offset="1" stop-color="#D81D3A"/>
</linearGradient>
<linearGradient id="paint30_linear_1_11637" x1="128.901" y1="152.126" x2="128.901" y2="154.286" gradientUnits="userSpaceOnUse">
<stop stop-color="#D86375"/>
<stop offset="0.2071" stop-color="#D55B6E"/>
<stop offset="0.5253" stop-color="#CE465B"/>
<stop offset="0.913" stop-color="#C2233B"/>
<stop offset="1" stop-color="#BF1A33"/>
</linearGradient>
<linearGradient id="paint31_linear_1_11637" x1="133.387" y1="106.329" x2="133.387" y2="156.021" gradientUnits="userSpaceOnUse">
<stop stop-color="#D81D3A"/>
<stop offset="1" stop-color="#BF1A33"/>
</linearGradient>
<linearGradient id="paint32_linear_1_11637" x1="124.395" y1="107.203" x2="124.395" y2="156.388" gradientUnits="userSpaceOnUse">
<stop stop-color="#D86375"/>
<stop offset="1" stop-color="#D81D3A"/>
</linearGradient>
<linearGradient id="paint33_linear_1_11637" x1="128.921" y1="96.321" x2="128.921" y2="106.146" gradientUnits="userSpaceOnUse">
<stop stop-color="#D86375"/>
<stop offset="0.2071" stop-color="#D55B6E"/>
<stop offset="0.5253" stop-color="#CE465B"/>
<stop offset="0.913" stop-color="#C2233B"/>
<stop offset="1" stop-color="#BF1A33"/>
</linearGradient>
<linearGradient id="paint34_linear_1_11637" x1="129.866" y1="84.8016" x2="129.866" y2="101.207" gradientUnits="userSpaceOnUse">
<stop stop-color="#D81D3A"/>
<stop offset="1" stop-color="#BF1A33"/>
</linearGradient>
<linearGradient id="paint35_linear_1_11637" x1="127.889" y1="85.09" x2="127.889" y2="101.328" gradientUnits="userSpaceOnUse">
<stop stop-color="#D86375"/>
<stop offset="1" stop-color="#D81D3A"/>
</linearGradient>
<linearGradient id="paint36_linear_1_11637" x1="128.901" y1="82.0531" x2="128.901" y2="84.2133" gradientUnits="userSpaceOnUse">
<stop stop-color="#D86375"/>
<stop offset="0.2071" stop-color="#D55B6E"/>
<stop offset="0.5253" stop-color="#CE465B"/>
<stop offset="0.913" stop-color="#C2233B"/>
<stop offset="1" stop-color="#BF1A33"/>
</linearGradient>
<linearGradient id="paint37_linear_1_11637" x1="87.9757" y1="167.603" x2="91.7172" y2="151.941" gradientUnits="userSpaceOnUse">
<stop stop-color="#BF8258"/>
<stop offset="0.091" stop-color="#B77D55"/>
<stop offset="0.3959" stop-color="#A36F4B"/>
<stop offset="0.7" stop-color="#976746"/>
<stop offset="1" stop-color="#936444"/>
</linearGradient>
<linearGradient id="paint38_linear_1_11637" x1="53.7685" y1="145.167" x2="76.3043" y2="146.124" gradientUnits="userSpaceOnUse">
<stop stop-color="#BF8258"/>
<stop offset="0.091" stop-color="#B77D55"/>
<stop offset="0.3959" stop-color="#A36F4B"/>
<stop offset="0.7" stop-color="#976746"/>
<stop offset="1" stop-color="#936444"/>
</linearGradient>
<linearGradient id="paint39_linear_1_11637" x1="84.1895" y1="135.894" x2="98.6913" y2="126.613" gradientUnits="userSpaceOnUse">
<stop stop-color="#CCCEE3"/>
<stop offset="0.1746" stop-color="#DFE0ED"/>
<stop offset="0.3885" stop-color="#EEEEF5"/>
<stop offset="0.6373" stop-color="#F7F6FA"/>
<stop offset="1" stop-color="#FAF9FB"/>
</linearGradient>
<linearGradient id="paint40_linear_1_11637" x1="60.3671" y1="127.71" x2="79.2576" y2="127.71" gradientUnits="userSpaceOnUse">
<stop stop-color="#FAF9FB"/>
<stop offset="1" stop-color="#CCCEE3"/>
</linearGradient>
<linearGradient id="paint41_linear_1_11637" x1="90.3556" y1="135.127" x2="95.1412" y2="155.575" gradientUnits="userSpaceOnUse">
<stop stop-color="#FAF9FB"/>
<stop offset="1" stop-color="#CCCEE3"/>
</linearGradient>
<linearGradient id="paint42_linear_1_11637" x1="60.0905" y1="130.276" x2="67.6551" y2="130.276" gradientUnits="userSpaceOnUse">
<stop stop-color="#FAF9FB"/>
<stop offset="1" stop-color="#CCCEE3"/>
</linearGradient>
</defs>
</svg>
