<svg width="165" height="180" viewBox="0 0 165 180" fill="none" xmlns="http://www.w3.org/2000/svg">
<path d="M59.2456 7.95168L73.0369 15.9054L86.8261 7.95168L73.0369 0L59.2456 7.95168Z" fill="white"/>
<path d="M59.2456 77.0839L73.0369 85.0356V15.9054L59.2456 7.95166V77.0839Z" fill="#D4EBF8"/>
<path d="M73.0369 15.9054V85.0356L86.8261 77.0839V7.95166L73.0369 15.9054Z" fill="#D4EBF8"/>
<path d="M88.0307 48.5129L100.245 55.5571L112.462 48.5129L100.245 41.4707L88.0307 48.5129Z" fill="white"/>
<path d="M88.0307 109.747L100.245 116.791V55.5572L88.0307 48.5129V109.747Z" fill="#C7DEEB"/>
<path d="M100.245 55.5572V116.791L112.462 109.747V48.5129L100.245 55.5572Z" fill="#D4EBF8"/>
<path d="M106.326 74.8317L116.279 80.5722L126.233 74.8317L116.279 69.0933L106.326 74.8317Z" fill="white"/>
<path d="M106.326 124.728L116.279 130.467V80.5723L106.326 74.8318V124.728Z" fill="#C7DEEB"/>
<path d="M116.279 80.5723V130.467L126.233 124.728V74.8318L116.279 80.5723Z" fill="#D4EBF8"/>
<path d="M125.682 93.7039L135.635 99.4423L145.589 93.7039L135.635 87.9634L125.682 93.7039Z" fill="white"/>
<path d="M125.682 143.598L135.635 149.339V99.4423L125.682 93.7039V143.598Z" fill="#C7DEEB"/>
<path d="M135.635 99.4423V149.339L145.589 143.598V93.7039L135.635 99.4423Z" fill="#D4EBF8"/>
<path d="M35.873 68.3725L45.8264 74.113L55.7798 68.3725L45.8264 62.634L35.873 68.3725Z" fill="white"/>
<path d="M35.873 118.269L45.8264 124.008V74.1131L35.873 68.3726V118.269Z" fill="#C7DEEB"/>
<path d="M45.8264 74.1131V124.008L55.7798 118.269V68.3726L45.8264 74.1131Z" fill="#D4EBF8"/>
<path d="M21.9748 93.1023L31.9303 98.8407L41.8837 93.1023L31.9303 87.3618L21.9748 93.1023Z" fill="white"/>
<path d="M21.9748 142.997L31.9303 148.737V98.8407L21.9748 93.1023V142.997Z" fill="#C7DEEB"/>
<path d="M31.9303 98.8407V148.737L41.8837 142.997V93.1023L31.9303 98.8407Z" fill="#D4EBF8"/>
<path d="M46.8336 90.692C48.9962 89.5771 51.0354 89.6962 53.0108 90.6181L53.0129 90.616L46.4266 86.7315C44.223 85.4791 41.9474 85.1773 39.5156 86.4318C32.8388 89.8748 26.8652 97.1449 22.2441 107.46C18.7844 115.179 17.3147 121.776 17.253 122.053L24.5711 126.315C24.6327 126.038 26.1025 119.442 29.5622 111.722C34.1853 101.405 40.1569 94.135 46.8336 90.692Z" fill="#FFD900"/>
<path d="M62.4277 101.951C58.1314 96.5105 54.0284 91.3203 49.6602 91.2156C51.465 93.0757 53.2699 95.3587 55.1117 97.689C58.446 101.91 61.8398 106.209 65.5914 108.468L73.0739 112.827L73.0759 112.822C69.2586 110.595 65.8113 106.236 62.4277 101.951Z" fill="#020617" fill-opacity="0.9"/>
<path d="M129.908 34.6831C117.525 62.8415 97.7642 103.316 83.2205 111.703C75.4379 116.191 69.2668 108.377 63.2993 100.82C57.9259 94.0159 52.8526 87.5896 46.8336 90.6919C40.1569 94.1329 34.1853 101.405 29.5622 111.718C26.1025 119.437 24.6327 126.034 24.5711 126.311L25.5578 126.073C25.6153 125.812 31.4986 99.7769 46.7781 91.9073C52.2626 89.0802 57.2002 95.3319 62.4277 101.951C68.5433 109.695 74.8664 117.705 83.2185 112.888C93.0177 107.238 105.974 87.643 121.727 54.6496C124.958 47.8846 127.978 41.2223 130.661 35.1184L129.908 34.6831Z" fill="#FFD900"/>
<path d="M134.013 40.3888L132.729 17.2092L116.119 30.0699L121.4 33.1146C108.969 61.0964 89.9897 99.3171 75.9024 107.441C73.8489 108.626 71.9063 108.948 70.0521 108.648C74.0359 112.463 78.3075 114.535 83.2205 111.701C97.3119 103.575 116.302 65.3259 128.732 37.342L134.013 40.3888ZM79.2367 106.267L79.21 106.281C79.2285 106.265 79.247 106.25 79.2634 106.236L79.2367 106.267Z" fill="#FFD900"/>
<path d="M47.0721 111.64C43.5076 113.695 43.5076 117.056 47.0721 119.111L73.9907 134.635C77.5531 136.692 83.387 136.692 86.9474 134.635L113.868 119.111C117.433 117.056 117.433 113.693 113.868 111.64L86.9495 96.1163C83.385 94.0612 77.5531 94.0612 73.9907 96.1163L47.0721 111.64Z" fill="white"/>
<path d="M44.4183 115.612C44.5169 116.885 45.3926 118.144 47.0721 119.111L73.9907 134.634C77.5531 136.692 83.387 136.692 86.9474 134.634L113.868 119.111C115.65 118.084 116.542 116.729 116.542 115.374V131.563C116.542 132.916 115.65 134.271 113.868 135.3L86.9474 150.823C83.385 152.878 77.5531 152.878 73.9907 150.823L47.0721 135.3C45.2899 134.271 44.3977 132.916 44.3977 131.563L44.408 115.612H44.4183Z" fill="#C7DEEB"/>
<path d="M44.4183 123.782C44.5169 125.055 45.3926 126.313 47.0721 127.282L73.9907 142.806C77.5531 144.861 83.387 144.861 86.9474 142.806L113.868 127.282C115.65 126.256 116.542 124.901 116.542 123.546V123.938C116.542 125.291 115.65 126.646 113.868 127.674L86.9474 143.198C83.385 145.251 77.5531 145.251 73.9907 143.198L47.0721 127.674C45.2899 126.646 44.3977 125.291 44.3977 123.938L44.408 123.784L44.4183 123.782Z" fill="#48D3F0"/>
<path opacity="0.1" d="M80.5338 134.146C82.9862 134.146 85.3193 133.581 87.1016 132.555L109.981 119.359C112.131 118.121 113.313 116.343 113.313 114.352C113.313 112.36 112.131 110.582 109.981 109.342L87.1016 96.1491C85.3214 95.1226 82.9882 94.5559 80.5338 94.5559C78.0835 94.5559 75.7503 95.1226 73.9701 96.1491L51.0888 109.342C48.9407 110.585 47.7566 112.363 47.7566 114.352C47.7566 116.343 48.9407 118.121 51.0888 119.359L73.9681 132.555C75.7503 133.581 78.0814 134.146 80.5338 134.146Z" fill="#6BD8FF"/>
<path opacity="0.3" d="M80.5338 133.088C82.8032 133.088 84.9493 132.571 86.5712 131.637L109.453 118.444C111.259 117.403 112.252 115.947 112.252 114.352C112.252 112.755 111.259 111.301 109.453 110.258L86.5732 97.0647C84.9493 96.1285 82.8032 95.6111 80.5338 95.6111C78.2664 95.6111 76.1224 96.1285 74.4964 97.0626L51.6192 110.256C49.8102 111.297 48.8173 112.752 48.8173 114.35C48.8173 115.945 49.8102 117.401 51.6192 118.442L74.4964 131.635C76.1224 132.571 78.2664 133.088 80.5338 133.088Z" fill="#6BD8FF"/>
<path opacity="0.5" d="M52.1475 111.174C49.1195 112.921 49.1195 115.777 52.1475 117.526L75.0267 130.719C78.0547 132.466 83.0129 132.466 86.0429 130.719L108.924 117.526C111.952 115.779 111.952 112.921 108.924 111.174L86.0429 97.9803C83.0149 96.2331 78.0567 96.2331 75.0267 97.9803L52.1475 111.174Z" fill="#6BD8FF"/>
<path d="M80.5338 130.97C82.4106 130.97 84.2257 130.547 85.5125 129.804L108.39 116.61C109.498 115.97 110.133 115.148 110.133 114.352C110.133 113.555 109.498 112.73 108.39 112.093L85.5125 98.9002C84.2257 98.1569 82.4106 97.7319 80.5338 97.7319C78.659 97.7319 76.846 98.1569 75.5591 98.9002L52.6778 112.093C51.5698 112.73 50.9346 113.555 50.9346 114.352C50.9346 115.148 51.5719 115.972 52.6778 116.61L75.555 129.804C76.8439 130.547 78.659 130.97 80.5338 130.97Z" fill="#6BD8FF"/>
<path d="M80.5338 129.912C82.2297 129.912 83.8516 129.537 84.9822 128.886L107.864 115.692C108.758 115.177 109.072 114.647 109.072 114.35C109.072 114.052 108.756 113.524 107.864 113.007L84.9822 99.8117C83.8516 99.1609 82.2317 98.7852 80.5338 98.7852C78.8399 98.7852 77.218 99.1588 76.0874 99.8117L53.2082 113.007C52.3119 113.522 51.9974 114.052 51.9974 114.35C51.9974 114.647 52.314 115.175 53.2082 115.692L76.0874 128.886C77.218 129.537 78.8379 129.912 80.5338 129.912Z" fill="white"/>
<g style="mix-blend-mode:darken" opacity="0.3">
<path d="M111.196 11.9326V114.762C111.196 115.912 110.437 117.064 108.924 117.939L86.0429 131.132C83.0149 132.879 78.0567 132.879 75.0267 131.132L52.1475 117.939C50.6324 117.064 49.876 115.914 49.876 114.762V11.9326H111.196Z" fill="url(#paint0_linear_1_10634)"/>
</g>
<path d="M102.788 147.13C101.103 148.101 101.103 149.69 102.788 150.663L115.517 158.003C117.2 158.976 119.959 158.976 121.642 158.003L134.371 150.663C136.057 149.692 136.057 148.101 134.371 147.13L121.642 139.79C119.957 138.819 117.2 138.819 115.515 139.79L102.788 147.13Z" fill="url(#paint1_linear_1_10634)"/>
<path d="M101.534 149.008C101.581 149.61 101.995 150.205 102.788 150.663L115.517 158.003C117.2 158.976 119.959 158.976 121.642 158.003L134.371 150.663C135.214 150.177 135.635 149.536 135.635 148.897V156.554C135.635 157.194 135.214 157.835 134.371 158.321L121.642 165.661C119.959 166.632 117.2 166.632 115.517 165.661L102.788 158.321C101.945 157.835 101.524 157.194 101.524 156.554L101.528 149.01L101.534 149.008Z" fill="#C7DEEB"/>
<path d="M101.534 152.87C101.581 153.472 101.995 154.067 102.788 154.525L115.517 161.865C117.2 162.836 119.959 162.836 121.642 161.865L134.371 154.525C135.214 154.038 135.635 153.4 135.635 152.757V152.942C135.635 153.583 135.214 154.223 134.371 154.71L121.642 162.05C119.959 163.021 117.2 163.021 115.517 162.05L102.788 154.71C101.945 154.223 101.524 153.583 101.524 152.942L101.528 152.87H101.534Z" fill="#F0F0F0"/>
<path opacity="0.1" d="M118.61 157.771C119.77 157.771 120.874 157.504 121.716 157.018L132.535 150.778C133.553 150.193 134.11 149.353 134.11 148.411C134.11 147.471 133.551 146.629 132.535 146.042L121.716 139.804C120.874 139.318 119.772 139.051 118.61 139.051C117.451 139.051 116.349 139.318 115.506 139.804L104.688 146.042C103.672 146.629 103.111 147.469 103.111 148.411C103.111 149.353 103.67 150.193 104.688 150.778L115.506 157.018C116.349 157.504 117.451 157.771 118.61 157.771Z" fill="#F3F3F3"/>
<path opacity="0.3" d="M118.61 157.272C119.683 157.272 120.699 157.028 121.466 156.586L132.285 150.347C133.14 149.854 133.608 149.167 133.608 148.411C133.608 147.655 133.14 146.968 132.285 146.475L121.468 140.238C120.699 139.796 119.686 139.55 118.612 139.55C117.539 139.55 116.526 139.794 115.757 140.236L104.94 146.475C104.085 146.968 103.617 147.655 103.617 148.411C103.617 149.167 104.085 149.854 104.94 150.347L115.757 156.586C116.524 157.028 117.537 157.272 118.61 157.272Z" fill="#F3F3F3"/>
<path opacity="0.5" d="M105.189 146.91C103.758 147.735 103.758 149.086 105.189 149.914L116.008 156.153C117.441 156.979 119.784 156.979 121.217 156.153L132.036 149.914C133.469 149.088 133.469 147.737 132.036 146.91L121.217 140.673C119.784 139.847 117.441 139.847 116.008 140.673L105.189 146.91Z" fill="#F3F3F3"/>
<path d="M118.61 156.27C119.498 156.27 120.356 156.069 120.964 155.718L131.781 149.478C132.305 149.177 132.605 148.787 132.605 148.411C132.605 148.033 132.305 147.643 131.781 147.343L120.964 141.104C120.356 140.753 119.498 140.552 118.61 140.552C117.724 140.552 116.867 140.753 116.259 141.104L105.44 147.343C104.916 147.645 104.616 148.035 104.616 148.411C104.616 148.789 104.916 149.177 105.44 149.478L116.257 155.718C116.865 156.069 117.724 156.27 118.61 156.27Z" fill="#F3F3F3"/>
<path d="M118.61 155.769C119.412 155.769 120.179 155.593 120.713 155.283L131.532 149.043C131.956 148.799 132.104 148.551 132.104 148.409C132.104 148.267 131.954 148.019 131.532 147.774L120.713 141.535C120.179 141.227 119.412 141.051 118.61 141.051C117.809 141.051 117.044 141.227 116.507 141.535L105.689 147.774C105.265 148.019 105.117 148.269 105.117 148.409C105.117 148.551 105.267 148.799 105.689 149.043L116.507 155.283C117.044 155.593 117.809 155.769 118.61 155.769Z" fill="white"/>
<g style="mix-blend-mode:screen" opacity="0.3">
<path d="M133.107 99.7913V148.411C133.107 148.955 132.749 149.499 132.032 149.912L121.213 156.151C119.78 156.976 117.437 156.976 116.004 156.151L105.185 149.912C104.47 149.499 104.112 148.955 104.112 148.411V99.7913H133.107Z" fill="url(#paint2_linear_1_10634)"/>
</g>
<path d="M25.0582 143.771C23.3726 144.742 23.3726 146.331 25.0582 147.304L37.7867 154.644C39.4703 155.617 42.229 155.617 43.9125 154.644L56.6411 147.304C58.3267 146.333 58.3267 144.742 56.6411 143.771L43.9125 136.431C42.2269 135.46 39.4703 135.46 37.7847 136.431L25.0582 143.771Z" fill="url(#paint3_linear_1_10634)"/>
<path d="M23.8022 145.649C23.8495 146.251 24.2627 146.846 25.0562 147.304L37.7847 154.644C39.4683 155.617 42.2269 155.617 43.9105 154.644L56.639 147.304C57.4818 146.818 57.9032 146.177 57.9032 145.539V153.195C57.9032 153.835 57.4818 154.476 56.639 154.962L43.9105 162.302C42.2269 163.273 39.4683 163.273 37.7847 162.302L25.0562 154.962C24.2134 154.476 23.792 153.835 23.792 153.195L23.7961 145.651L23.8022 145.649Z" fill="#C7DEEB"/>
<path d="M23.8022 149.513C23.8495 150.115 24.2627 150.71 25.0562 151.168L37.7847 158.508C39.4683 159.479 42.2269 159.479 43.9105 158.508L56.639 151.168C57.4818 150.682 57.9032 150.043 57.9032 149.4V149.585C57.9032 150.226 57.4818 150.866 56.639 151.353L43.9105 158.693C42.2269 159.664 39.4683 159.664 37.7847 158.693L25.0562 151.353C24.2134 150.866 23.792 150.226 23.792 149.585L23.7961 149.513H23.8022Z" fill="#F0F0F0"/>
<path opacity="0.1" d="M40.8805 154.414C42.0399 154.414 43.1438 154.147 43.9866 153.661L54.8054 147.421C55.8229 146.836 56.38 145.996 56.38 145.054C56.38 144.114 55.8209 143.272 54.8054 142.685L43.9866 136.447C43.1438 135.961 42.0419 135.694 40.8805 135.694C39.7211 135.694 38.6193 135.961 37.7765 136.447L26.9577 142.685C25.9422 143.272 25.381 144.112 25.381 145.054C25.381 145.996 25.9401 146.836 26.9577 147.421L37.7765 153.661C38.6172 154.147 39.7191 154.414 40.8805 154.414Z" fill="#F3F3F3"/>
<path opacity="0.3" d="M40.8805 153.913C41.9535 153.913 42.969 153.669 43.7358 153.227L54.5546 146.988C55.4098 146.495 55.8784 145.807 55.8784 145.052C55.8784 144.296 55.4077 143.609 54.5546 143.116L43.7378 136.878C42.969 136.437 41.9556 136.191 40.8825 136.191C39.8095 136.191 38.7961 136.435 38.0273 136.876L27.2105 143.116C26.3553 143.609 25.8867 144.296 25.8867 145.052C25.8867 145.807 26.3553 146.495 27.2105 146.988L38.0273 153.227C38.794 153.669 39.8074 153.913 40.8805 153.913Z" fill="#F3F3F3"/>
<path opacity="0.5" d="M27.4572 143.551C26.0264 144.377 26.0264 145.727 27.4572 146.555L38.276 152.794C39.7088 153.62 42.0522 153.62 43.485 152.794L54.3038 146.555C55.7366 145.73 55.7366 144.379 54.3038 143.551L43.485 137.314C42.0522 136.488 39.7088 136.488 38.276 137.314L27.4572 143.551Z" fill="#F3F3F3"/>
<path d="M40.8805 152.911C41.7685 152.911 42.6257 152.71 43.2342 152.359L54.051 146.12C54.5752 145.818 54.8753 145.428 54.8753 145.052C54.8753 144.674 54.5752 144.284 54.051 143.984L43.2342 137.745C42.6257 137.394 41.7685 137.193 40.8805 137.193C39.9945 137.193 39.1373 137.394 38.5289 137.745L27.71 143.984C27.1858 144.286 26.8857 144.676 26.8857 145.052C26.8857 145.43 27.1858 145.818 27.71 146.12L38.5268 152.359C39.1353 152.712 39.9925 152.911 40.8805 152.911Z" fill="#F3F3F3"/>
<path d="M40.8805 152.412C41.6822 152.412 42.4489 152.236 42.9834 151.926L53.8022 145.686C54.2257 145.442 54.3737 145.194 54.3737 145.052C54.3737 144.91 54.2236 144.662 53.8022 144.418L42.9834 138.178C42.4489 137.87 41.6822 137.694 40.8805 137.694C40.0788 137.694 39.3141 137.87 38.7776 138.178L27.9587 144.418C27.5353 144.662 27.3873 144.912 27.3873 145.052C27.3873 145.194 27.5373 145.442 27.9587 145.686L38.7776 151.926C39.312 152.234 40.0767 152.412 40.8805 152.412Z" fill="white"/>
<g style="mix-blend-mode:screen" opacity="0.3">
<path d="M55.3769 96.4324V145.052C55.3769 145.596 55.0192 146.14 54.3018 146.553L43.4829 152.792C42.0502 153.618 39.7067 153.618 38.274 152.792L27.4551 146.553C26.7398 146.14 26.3821 145.596 26.3821 145.052V96.4324H55.3769Z" fill="url(#paint4_linear_1_10634)"/>
</g>
<g style="mix-blend-mode:overlay">
<path d="M11.9453 37.0442L17.7936 38.4649V42.0373L11.9453 40.6145L6.09702 48.7818V45.2115L11.9453 37.0442Z" fill="white"/>
<path opacity="0.8" d="M11.9453 46.626L17.7936 48.0467V51.6171L11.9453 50.1963L6.09702 58.3636V54.7912L11.9453 46.626Z" fill="white"/>
<path opacity="0.6" d="M11.9453 56.2058L17.7936 57.6266V61.199L11.9453 59.7762L6.09702 67.9434V64.3731L11.9453 56.2058Z" fill="white"/>
<path opacity="0.4" d="M11.9453 65.7876L17.7936 67.2084V70.7808L11.9453 69.358L6.09702 77.5252V73.9528L11.9453 65.7876Z" fill="white"/>
<path opacity="0.2" d="M11.9453 75.3674L17.7936 76.7902V80.3606L11.9453 78.9398L6.09702 87.105V83.5347L11.9453 75.3674Z" fill="white"/>
<path opacity="0.1" d="M11.9453 84.9492L17.7936 86.37V89.9424L11.9453 88.5196L6.09702 96.6868V93.1144L11.9453 84.9492Z" fill="white"/>
</g>
<path d="M27.5394 20.2047C28.0595 19.905 28.4788 20.1472 28.4788 20.7467V76.7227L26.5979 77.8067V21.8308C26.6 21.2333 27.0193 20.5045 27.5394 20.2047Z" fill="url(#paint5_linear_1_10634)"/>
<path d="M0.431684 87.9121C0.670138 87.7745 0.863368 87.8854 0.863368 88.1605V113.822L0 114.319V88.6594C0 88.3843 0.19323 88.0496 0.431684 87.9121Z" fill="url(#paint6_linear_1_10634)"/>
<path d="M37.3386 37.8142C37.5771 37.6766 37.7703 37.7875 37.7703 38.0626V63.7244L36.907 64.2212V38.5615C36.907 38.2864 37.1002 37.9517 37.3386 37.8142Z" fill="url(#paint7_linear_1_10634)"/>
<path d="M14.3977 113.266C14.6361 113.128 14.8294 113.239 14.8294 113.514V139.176L13.9681 139.673V114.013C13.966 113.738 14.1592 113.403 14.3977 113.266Z" fill="url(#paint8_linear_1_10634)"/>
<path d="M24.3388 80.2766C24.5772 80.139 24.7704 80.2499 24.7704 80.525V106.187L23.9071 106.684V81.0219C23.9071 80.7488 24.1003 80.4141 24.3388 80.2766Z" fill="url(#paint9_linear_1_10634)"/>
<g style="mix-blend-mode:overlay">
<path d="M147.667 23.97L142.392 25.2532V28.4724L147.667 27.1913L152.942 34.5558V31.3345L147.667 23.97Z" fill="white"/>
<path opacity="0.8" d="M147.667 32.6094L142.392 33.8926V37.1118L147.667 35.8307L152.942 43.1952V39.9739L147.667 32.6094Z" fill="white"/>
<path opacity="0.6" d="M147.667 41.249L142.392 42.5322V45.7515L147.667 44.4703L152.942 51.8348V48.6135L147.667 41.249Z" fill="white"/>
<path opacity="0.4" d="M147.667 49.8884L142.392 51.1716V54.3929L147.667 53.1098L152.94 60.4742V57.2529L147.667 49.8884Z" fill="white"/>
<path opacity="0.2" d="M147.667 58.53L142.392 59.8112V63.0325L147.667 61.7493L152.94 69.1138V65.8945L147.667 58.53Z" fill="white"/>
<path opacity="0.1" d="M147.667 67.1694L142.392 68.4506V71.6719L147.667 70.3908L152.94 77.7532V74.5339L147.667 67.1694Z" fill="white"/>
</g>
<path d="M132.361 20.2047C131.84 19.905 131.421 20.1472 131.421 20.7467L131.419 76.7227L133.3 77.8067V21.8308C133.302 21.2333 132.881 20.5045 132.361 20.2047Z" fill="url(#paint10_linear_1_10634)"/>
<path d="M159.47 87.9121C159.232 87.7745 159.039 87.8854 159.039 88.1605V113.822L159.902 114.319V88.6594C159.9 88.3843 159.707 88.0496 159.47 87.9121Z" fill="url(#paint11_linear_1_10634)"/>
<path d="M153.373 118.854C153.135 118.717 152.942 118.828 152.942 119.103V144.765L153.803 145.262V119.602C153.805 119.327 153.61 118.992 153.373 118.854Z" fill="url(#paint12_linear_1_10634)"/>
<path d="M164.57 61.7944C164.332 61.6568 164.139 61.7677 164.139 62.0428V87.7046L165 88.2015V62.5417C165 62.2646 164.807 61.932 164.57 61.7944Z" fill="url(#paint13_linear_1_10634)"/>
<path d="M135.563 80.2766C135.325 80.139 135.132 80.2499 135.132 80.525V106.187L135.995 106.684V81.0219C135.995 80.7488 135.8 80.4141 135.563 80.2766Z" fill="url(#paint14_linear_1_10634)"/>
<path d="M60.0452 159.046L68.7591 164.07L77.4729 159.046L68.7591 154.02L60.0452 159.046Z" fill="white"/>
<path d="M60.0452 169.065L68.7591 174.091V164.07L60.0452 159.046V169.065Z" fill="#C7DEEB"/>
<path d="M68.7591 164.07V174.091L77.473 169.065V159.046L68.7591 164.07Z" fill="#D4EBF8"/>
<path d="M82.6943 160.524L93.9756 167.029L105.255 160.524L93.9756 154.02L82.6943 160.524Z" fill="white"/>
<path d="M82.6943 173.496L93.9756 180V167.028L82.6943 160.524V173.496Z" fill="#C7DEEB"/>
<path d="M93.9756 167.028V180L105.255 173.496V160.524L93.9756 167.028Z" fill="#D4EBF8"/>
<path d="M74.9897 171.147L80.1083 174.099L85.2268 171.147L80.1083 168.195L74.9897 171.147Z" fill="white"/>
<path d="M74.9897 177.033L80.1083 179.986V174.099L74.9897 171.147V177.033Z" fill="#C7DEEB"/>
<path d="M80.1082 174.099V179.986L85.2268 177.033V171.147L80.1082 174.099Z" fill="#D4EBF8"/>
<path d="M102.951 55.9883C103.545 55.9883 104.024 56.4687 104.024 57.06V94.6031H101.878V57.0621C101.878 56.4687 102.359 55.9883 102.951 55.9883Z" fill="url(#paint15_linear_1_10634)"/>
<path d="M118.612 21.5596C118.853 21.5596 119.048 21.7546 119.048 21.9948V37.2761H118.175V21.9948C118.175 21.7546 118.37 21.5596 118.612 21.5596Z" fill="url(#paint16_linear_1_10634)"/>
<path d="M74.1757 18.0549C74.3422 18.0549 74.4779 18.1904 74.4779 18.3567V35.878H73.8735V18.3567C73.8735 18.1904 74.0092 18.0549 74.1757 18.0549Z" fill="url(#paint17_linear_1_10634)"/>
<path d="M106.316 31.4495C106.626 31.4495 106.879 31.6999 106.879 32.01V64.5969H105.752V32.01C105.752 31.6999 106.005 31.4495 106.316 31.4495Z" fill="url(#paint18_linear_1_10634)"/>
<path d="M45.8264 15.9116C45.9888 15.9116 46.1224 16.043 46.1224 16.2052V49.2685H45.5324V16.2073C45.5303 16.043 45.6619 15.9116 45.8264 15.9116Z" fill="url(#paint19_linear_1_10634)"/>
<path d="M58.3164 34.6892C58.4048 34.6892 58.4768 34.7611 58.4768 34.8494V52.8407H58.1561V34.8494C58.1582 34.7611 58.228 34.6892 58.3164 34.6892Z" fill="url(#paint20_linear_1_10634)"/>
<path d="M89.41 17.9463C89.4984 17.9463 89.5704 18.0181 89.5704 18.1064V36.0978H89.2497V18.1064C89.2497 18.0181 89.3216 17.9463 89.41 17.9463Z" fill="url(#paint21_linear_1_10634)"/>
<path d="M58.4788 70.3108C58.5672 70.3108 58.6392 70.3826 58.6392 70.4709V88.4623H58.3185V70.4709C58.3185 70.3826 58.3904 70.3108 58.4788 70.3108Z" fill="url(#paint22_linear_1_10634)"/>
<path d="M95.7003 66.4221C95.8627 66.4221 95.9943 66.5535 95.9943 66.7157V99.7789H95.4063V66.7157C95.4063 66.5535 95.5379 66.4221 95.7003 66.4221Z" fill="url(#paint23_linear_1_10634)"/>
<path opacity="0.3" d="M58.1581 57.524C58.1581 58.0393 58.5775 58.4582 59.0935 58.4582C59.6094 58.4582 60.0267 58.0414 60.0267 57.524C60.0267 57.0087 59.6094 56.5898 59.0935 56.5898C58.5754 56.5898 58.1581 57.0087 58.1581 57.524Z" fill="#1ED4FC"/>
<path opacity="0.3" d="M58.4932 57.524C58.4932 57.8545 58.7604 58.1214 59.0914 58.1214C59.4223 58.1214 59.6896 57.8545 59.6896 57.524C59.6896 57.1934 59.4223 56.9265 59.0914 56.9265C58.7604 56.9265 58.4932 57.1934 58.4932 57.524Z" fill="#1ED4FC"/>
<path d="M58.6926 57.524C58.6926 57.7437 58.8714 57.9223 59.0914 57.9223C59.3113 57.9223 59.4902 57.7437 59.4902 57.524C59.4902 57.3044 59.3093 57.1257 59.0914 57.1257C58.8714 57.1257 58.6926 57.3044 58.6926 57.524Z" fill="#1ED4FC"/>
<path opacity="0.3" d="M81.4712 39.8878C81.4712 40.4031 81.8905 40.8219 82.4065 40.8219C82.9224 40.8219 83.3397 40.4052 83.3397 39.8878C83.3397 39.3724 82.9224 38.9536 82.4065 38.9536C81.8905 38.9536 81.4712 39.3724 81.4712 39.8878Z" fill="#1ED4FC"/>
<path opacity="0.3" d="M81.8083 39.8877C81.8083 40.2183 82.0755 40.4852 82.4065 40.4852C82.7374 40.4852 83.0047 40.2183 83.0047 39.8877C83.0047 39.5572 82.7374 39.2903 82.4065 39.2903C82.0755 39.2903 81.8083 39.5592 81.8083 39.8877Z" fill="#1ED4FC"/>
<path d="M82.0077 39.8878C82.0077 40.1075 82.1865 40.2861 82.4065 40.2861C82.6264 40.2861 82.8053 40.1075 82.8053 39.8878C82.8053 39.6681 82.6244 39.4895 82.4065 39.4895C82.1865 39.4895 82.0077 39.6681 82.0077 39.8878Z" fill="#1ED4FC"/>
<path opacity="0.3" d="M93.7824 21.5596C93.7824 22.6867 94.6971 23.6004 95.8277 23.6004C96.9563 23.6004 97.871 22.6867 97.871 21.5596C97.871 20.4324 96.9563 19.5188 95.8277 19.5188C94.6992 19.5188 93.7824 20.4304 93.7824 21.5596Z" fill="#1ED4FC"/>
<path opacity="0.3" d="M94.5204 21.5595C94.5204 22.2802 95.1062 22.8653 95.8298 22.8653C96.5513 22.8653 97.1372 22.2802 97.1372 21.5595C97.1372 20.8368 96.5513 20.2517 95.8298 20.2517C95.1042 20.2517 94.5204 20.8368 94.5204 21.5595Z" fill="#1ED4FC"/>
<path d="M94.9541 21.5595C94.9541 22.0399 95.3467 22.43 95.8277 22.43C96.3067 22.43 96.6993 22.0399 96.6993 21.5595C96.6993 21.0791 96.3067 20.689 95.8277 20.689C95.3467 20.6869 94.9541 21.0791 94.9541 21.5595Z" fill="#1ED4FC"/>
<path opacity="0.3" d="M51.4917 42.3721C51.4917 43.4992 52.4065 44.4149 53.5371 44.4149C54.6636 44.4149 55.5804 43.5013 55.5804 42.3721C55.5804 41.2449 54.6656 40.3313 53.5371 40.3313C52.4065 40.3292 51.4917 41.2429 51.4917 42.3721Z" fill="#1ED4FC"/>
<path opacity="0.3" d="M52.2276 42.372C52.2276 43.0927 52.8114 43.6799 53.5371 43.6799C54.2586 43.6799 54.8445 43.0947 54.8445 42.372C54.8445 41.6493 54.2586 41.0642 53.5371 41.0642C52.8135 41.0642 52.2276 41.6493 52.2276 42.372Z" fill="#1ED4FC"/>
<path d="M52.6634 42.372C52.6634 42.8524 53.056 43.2425 53.5371 43.2425C54.016 43.2425 54.4087 42.8524 54.4087 42.372C54.4087 41.8916 54.016 41.5015 53.5371 41.5015C53.056 41.4994 52.6634 41.8916 52.6634 42.372Z" fill="#1ED4FC"/>
<path opacity="0.3" d="M56.6493 96.6704C56.6493 97.7976 57.5641 98.7133 58.6947 98.7133C59.8211 98.7133 60.738 97.7996 60.738 96.6704C60.738 95.5433 59.8232 94.6296 58.6947 94.6296C57.5641 94.6296 56.6493 95.5412 56.6493 96.6704Z" fill="#1ED4FC"/>
<path opacity="0.3" d="M57.3852 96.6704C57.3852 97.391 57.969 97.9782 58.6947 97.9782C59.4162 97.9782 60.0021 97.3931 60.0021 96.6704C60.0021 95.9477 59.4162 95.3625 58.6947 95.3625C57.969 95.3625 57.3852 95.9477 57.3852 96.6704Z" fill="#1ED4FC"/>
<path d="M57.821 96.6703C57.821 97.1508 58.2136 97.5408 58.6947 97.5408C59.1736 97.5408 59.5663 97.1508 59.5663 96.6703C59.5663 96.1899 59.1736 95.7998 58.6947 95.7998C58.2136 95.7998 57.821 96.1899 57.821 96.6703Z" fill="#1ED4FC"/>
<path opacity="0.3" d="M88.004 74.9794C88.004 76.1065 88.9187 77.0202 90.0493 77.0202C91.1758 77.0202 92.0926 76.1065 92.0926 74.9794C92.0926 73.8522 91.1758 72.9365 90.0493 72.9365C88.9208 72.9365 88.004 73.8522 88.004 74.9794Z" fill="#1ED4FC"/>
<path opacity="0.3" d="M88.7419 74.9795C88.7419 75.7001 89.3278 76.2873 90.0514 76.2873C90.7729 76.2873 91.3567 75.7001 91.3567 74.9795C91.3567 74.2568 90.7709 73.6716 90.0514 73.6716C89.3278 73.6716 88.7419 74.2568 88.7419 74.9795Z" fill="#1ED4FC"/>
<path d="M89.1777 74.9793C89.1777 75.4597 89.5704 75.8498 90.0514 75.8498C90.5303 75.8498 90.9209 75.4597 90.9209 74.9793C90.9209 74.4988 90.5303 74.1067 90.0514 74.1067C89.5683 74.1067 89.1777 74.4988 89.1777 74.9793Z" fill="#1ED4FC"/>
<path opacity="0.3" d="M100.722 95.3627C100.722 96.4898 101.637 97.4035 102.768 97.4035C103.894 97.4035 104.811 96.4898 104.811 95.3627C104.811 94.2355 103.894 93.3198 102.768 93.3198C101.639 93.3198 100.722 94.2355 100.722 95.3627Z" fill="#1ED4FC"/>
<path opacity="0.3" d="M101.46 95.3628C101.46 96.0834 102.046 96.6706 102.77 96.6706C103.491 96.6706 104.075 96.0834 104.075 95.3628C104.075 94.6401 103.489 94.0549 102.77 94.0549C102.046 94.0549 101.46 94.6401 101.46 95.3628Z" fill="#1ED4FC"/>
<path d="M101.896 95.3626C101.896 95.843 102.289 96.2331 102.77 96.2331C103.249 96.2331 103.639 95.843 103.639 95.3626C103.639 94.8821 103.249 94.49 102.77 94.49C102.287 94.49 101.896 94.8821 101.896 95.3626Z" fill="#1ED4FC"/>
<path opacity="0.3" d="M91.3362 32.1434C91.3362 32.3795 91.5294 32.5704 91.7638 32.5704C92.0002 32.5704 92.1934 32.3774 92.1934 32.1434C92.1934 31.9073 92.0002 31.7163 91.7638 31.7163C91.5294 31.7143 91.3362 31.9052 91.3362 32.1434Z" fill="#1ED4FC"/>
<path opacity="0.3" d="M91.4904 32.1433C91.4904 32.2952 91.6137 32.4163 91.7638 32.4163C91.9159 32.4163 92.0392 32.2932 92.0392 32.1433C92.0392 31.9913 91.9159 31.8682 91.7638 31.8682C91.6137 31.8682 91.4904 31.9913 91.4904 32.1433Z" fill="#1ED4FC"/>
<path d="M91.5829 32.1435C91.5829 32.2441 91.663 32.3262 91.7638 32.3262C91.8645 32.3262 91.9467 32.2441 91.9467 32.1435C91.9467 32.0429 91.8665 31.9607 91.7638 31.9607C91.663 31.9587 91.5829 32.0408 91.5829 32.1435Z" fill="#1ED4FC"/>
<path opacity="0.3" d="M89.1428 42.5179C89.1428 42.754 89.336 42.9449 89.5704 42.9449C89.8068 42.9449 90 42.7519 90 42.5179C90 42.2818 89.8068 42.0908 89.5704 42.0908C89.336 42.0908 89.1428 42.2818 89.1428 42.5179Z" fill="#1ED4FC"/>
<path opacity="0.3" d="M89.297 42.5178C89.297 42.6697 89.4203 42.7909 89.5704 42.7909C89.7225 42.7909 89.8458 42.6677 89.8458 42.5178C89.8458 42.3659 89.7225 42.2427 89.5704 42.2427C89.4203 42.2447 89.297 42.3659 89.297 42.5178Z" fill="#1ED4FC"/>
<path d="M89.3895 42.5179C89.3895 42.6185 89.4696 42.7007 89.5704 42.7007C89.6711 42.7007 89.7533 42.6185 89.7533 42.5179C89.7533 42.4173 89.6731 42.3352 89.5704 42.3352C89.4696 42.3352 89.3895 42.4173 89.3895 42.5179Z" fill="#1ED4FC"/>
<path opacity="0.3" d="M82.9101 27.376C82.9101 27.6121 83.1033 27.8031 83.3377 27.8031C83.5741 27.8031 83.7673 27.6101 83.7673 27.376C83.7673 27.1399 83.5741 26.949 83.3377 26.949C83.1033 26.949 82.9101 27.1399 82.9101 27.376Z" fill="#1ED4FC"/>
<path opacity="0.3" d="M83.0643 27.3759C83.0643 27.5279 83.1876 27.649 83.3377 27.649C83.4898 27.649 83.6131 27.5258 83.6131 27.3759C83.6131 27.224 83.4898 27.1008 83.3377 27.1008C83.1876 27.1029 83.0643 27.224 83.0643 27.3759Z" fill="#1ED4FC"/>
<path d="M83.1568 27.3761C83.1568 27.4767 83.2369 27.5588 83.3377 27.5588C83.4384 27.5588 83.5206 27.4767 83.5206 27.3761C83.5206 27.2755 83.4404 27.1934 83.3377 27.1934C83.2369 27.1934 83.1568 27.2755 83.1568 27.3761Z" fill="#1ED4FC"/>
<path opacity="0.3" d="M102.073 28.5155C102.073 28.7845 102.291 29.0021 102.562 29.0021C102.831 29.0021 103.049 28.7845 103.049 28.5155C103.049 28.2465 102.831 28.0269 102.562 28.0269C102.291 28.0289 102.073 28.2465 102.073 28.5155Z" fill="#1ED4FC"/>
<path opacity="0.3" d="M102.247 28.5154C102.247 28.6879 102.387 28.8275 102.56 28.8275C102.733 28.8275 102.872 28.6879 102.872 28.5154C102.872 28.343 102.733 28.2034 102.56 28.2034C102.387 28.2034 102.247 28.343 102.247 28.5154Z" fill="#1ED4FC"/>
<path d="M102.352 28.5155C102.352 28.6284 102.445 28.7228 102.56 28.7228C102.673 28.7228 102.768 28.6304 102.768 28.5155C102.768 28.4005 102.675 28.3081 102.56 28.3081C102.445 28.3081 102.352 28.4005 102.352 28.5155Z" fill="#1ED4FC"/>
<path opacity="0.3" d="M98.3952 56.3556C98.3952 56.5486 98.5515 56.7067 98.7447 56.7067C98.9379 56.7067 99.0941 56.5507 99.0941 56.3556C99.0941 56.1626 98.9379 56.0066 98.7447 56.0066C98.5515 56.0046 98.3952 56.1626 98.3952 56.3556Z" fill="#1ED4FC"/>
<path opacity="0.3" d="M98.5206 56.3556C98.5206 56.4788 98.6214 56.5794 98.7447 56.5794C98.868 56.5794 98.9688 56.4788 98.9688 56.3556C98.9688 56.2324 98.868 56.1318 98.7447 56.1318C98.6193 56.1318 98.5206 56.2304 98.5206 56.3556Z" fill="#1ED4FC"/>
<path d="M98.5946 56.3556C98.5946 56.4378 98.6625 56.5055 98.7447 56.5055C98.8269 56.5055 98.8948 56.4398 98.8948 56.3556C98.8948 56.2735 98.829 56.2078 98.7447 56.2078C98.6625 56.2058 98.5946 56.2735 98.5946 56.3556Z" fill="#1ED4FC"/>
<path opacity="0.3" d="M90.2282 68.8037C90.2282 69.0727 90.4461 69.2903 90.7154 69.2903C90.9847 69.2903 91.2046 69.0727 91.2046 68.8037C91.2046 68.5348 90.9847 68.3171 90.7154 68.3171C90.4461 68.3171 90.2282 68.5348 90.2282 68.8037Z" fill="#1ED4FC"/>
<path opacity="0.3" d="M90.4029 68.8038C90.4029 68.9762 90.5427 69.1158 90.7153 69.1158C90.888 69.1158 91.0278 68.9762 91.0278 68.8038C91.0278 68.6313 90.888 68.4917 90.7153 68.4917C90.5427 68.4917 90.4029 68.6313 90.4029 68.8038Z" fill="#1ED4FC"/>
<path d="M90.5078 68.8038C90.5078 68.9188 90.6003 69.0112 90.7154 69.0112C90.8284 69.0112 90.923 68.9188 90.923 68.8038C90.923 68.6888 90.8284 68.5964 90.7154 68.5964C90.6003 68.5964 90.5078 68.6888 90.5078 68.8038Z" fill="#1ED4FC"/>
<path opacity="0.3" d="M104.799 72.875C104.799 73.144 105.016 73.3616 105.286 73.3616C105.555 73.3616 105.775 73.144 105.775 72.875C105.775 72.6061 105.555 72.3884 105.286 72.3884C105.019 72.3884 104.799 72.6061 104.799 72.875Z" fill="#1ED4FC"/>
<path opacity="0.3" d="M104.975 72.8751C104.975 73.0475 105.115 73.1871 105.288 73.1871C105.46 73.1871 105.6 73.0475 105.6 72.8751C105.6 72.7026 105.46 72.563 105.288 72.563C105.113 72.563 104.975 72.7026 104.975 72.8751Z" fill="#1ED4FC"/>
<path d="M105.078 72.8751C105.078 72.9901 105.171 73.0824 105.286 73.0824C105.399 73.0824 105.493 72.9901 105.493 72.8751C105.493 72.7601 105.399 72.6677 105.286 72.6677C105.173 72.6677 105.078 72.7601 105.078 72.8751Z" fill="#1ED4FC"/>
<path d="M85.1055 96.3236C85.6235 96.3236 85.7119 95.9048 85.603 95.1923C85.4961 94.4799 83.4939 93.4082 82.4106 92.6075C81.3273 91.8088 80.8668 91.6815 80.8668 91.6815C80.4289 92.975 77.2571 92.7656 74.9157 92.706C72.5723 92.6465 71.1744 93.1782 71.1744 93.1782C71.1744 93.1782 73.5569 83.0523 73.2013 81.1635C72.8477 79.2767 67.3345 74.0659 66.724 75.3429C66.1135 76.6199 64.6375 82.5986 64.3806 85.1732C64.1257 87.7498 64.1647 92.704 64.0661 95.1225C63.9674 97.5411 65.1103 100.549 66.2512 100.728C67.3921 100.904 69.4025 99.8426 70.2679 99.2719C71.1333 98.7011 74.8952 97.0689 75.8593 96.7548C76.8233 96.4406 81.1155 95.6543 82.1392 95.5516C83.1629 95.449 83.9215 95.5516 83.9215 95.5516C83.9215 95.5516 84.5875 96.3236 85.1055 96.3236Z" fill="#BD8668"/>
<path d="M85.603 95.1923C85.4961 94.4819 83.498 93.4102 82.4147 92.6115C82.3407 92.6546 82.2749 92.7019 82.2194 92.7532C81.7014 93.2254 79.7238 94.0795 76.9117 94.2807C74.1017 94.484 70.8168 94.484 70.8168 94.484L71.1765 93.1802C71.1765 93.1802 73.559 83.0543 73.2034 81.1655C72.9649 79.8987 70.4015 77.1332 68.5576 75.8376C69.1065 78.3938 69.9452 83.2678 69.6142 87.9469C69.2134 93.5868 68.2123 98.4978 66.245 100.727C66.2471 100.727 66.2491 100.727 66.2532 100.73C67.3941 100.906 69.4045 99.8446 70.27 99.2739C71.1354 98.7031 74.8972 97.0709 75.8613 96.7568C76.8254 96.4426 81.1176 95.6563 82.1413 95.5536C83.165 95.451 83.9235 95.5536 83.9235 95.5536C83.9235 95.5536 84.5875 96.3235 85.1055 96.3235C85.6235 96.3235 85.7099 95.9047 85.603 95.1923Z" fill="#A46D4F"/>
<path d="M80.8668 91.6815C80.8668 91.6815 81.3252 91.8088 82.4106 92.6075C83.4939 93.4082 85.4961 94.4799 85.603 95.1923C85.7099 95.9048 85.6235 96.3236 85.1055 96.3236C84.5875 96.3236 83.9235 95.5537 83.9235 95.5537C83.9235 95.5537 84.421 96.9293 84.5382 97.4261C84.6553 97.923 84.8506 98.3623 85.2206 98.3623C85.5927 98.3623 86.5774 97.2208 86.9988 96.1963C87.4181 95.1718 87.3893 94.5292 86.822 93.9625C86.2546 93.3979 85.2885 92.6752 85.0438 92.1003C84.7992 91.5255 84.7499 90.8233 85.1795 90.5297C85.6091 90.2382 87.0933 89.653 87.0933 89.653L86.9659 89.2527C86.9659 89.2527 85.8435 89.6325 85.2474 89.6818C84.6512 89.7311 83.2842 89.2527 82.5319 89.4292C81.7857 89.6038 81.0621 90.3347 80.8668 91.6815Z" fill="#001135"/>
<path d="M80.725 116.444C80.725 116.444 80.2316 117.737 81.5267 117.573C82.8217 117.409 83.9749 116.961 83.9153 114.857C83.8557 112.753 83.7036 111.576 83.5391 110.613C83.3747 109.648 82.5504 109.155 82.5504 109.155C82.5504 109.155 83.9749 108.344 84.8465 109.262C85.7181 110.18 85.3645 112.108 85.3645 112.108L86.3656 114.282L86.1662 114.481C86.1662 114.481 85.2823 113.2 85.1651 113.206C85.048 113.212 84.9534 114.623 84.9411 115.399C84.9287 116.175 85.2474 117.68 84.3532 118.996C83.4569 120.312 80.5153 122.205 79.9623 122.041C79.4073 121.877 80.3488 117.22 80.725 116.444Z" fill="#001135"/>
<path d="M80.7249 116.444C80.6694 116.596 80.6468 116.822 80.6386 117.068C80.6756 117.372 80.8771 117.655 81.5246 117.571C82.8196 117.407 83.9729 116.959 83.9132 114.855C83.8536 112.751 83.7015 111.574 83.5371 110.611C83.3726 109.646 82.5483 109.154 82.5483 109.154C82.0323 109.154 81.6479 105.092 81.391 102.557C81.134 100.021 78.2602 98.0934 77.7874 97.8778C77.3146 97.6623 77.1975 97.4857 77.3352 96.9929C77.4729 96.5023 79.5018 88.8729 80.2295 86.2367C80.9572 83.6026 81.0559 79.3752 80.6427 77.899C80.2295 76.4249 78.8523 77.0142 78.104 77.3488C77.3558 77.6835 73.8324 79.2767 73.1828 81.5967C72.5332 83.9167 72.0214 93.7675 72.0214 95.8329C72.0214 97.8963 72.7306 100.021 73.2815 100.572C73.8324 101.122 75.2097 102.046 76.2745 103.639C77.3372 105.232 78.8934 108.515 79.286 109.714C79.6786 110.913 79.9561 112.88 80.1329 113.568C80.3097 114.255 80.9202 115.906 80.7249 116.444Z" fill="#BD8668"/>
<path d="M71.0223 75.8377L69.4909 74.7536C69.4909 74.7536 67.8772 74.0002 67.4517 72.2673C67.4517 72.2673 66.3704 75.4887 65.8462 77.1168C65.322 78.7449 64.3251 83.0605 64.1935 85.6762C64.0619 88.2939 63.9735 93.903 63.9283 95.2662C63.8851 96.6295 64.6766 100.335 66.0867 100.748C67.4969 101.161 69.1044 100.171 69.6759 99.8406C70.2474 99.51 72.671 98.0154 74.0359 97.6191C75.4008 97.2229 77.253 96.3133 80.5112 95.9253C80.5112 95.9253 80.8647 93.4533 79.1462 92.4453C79.1462 92.4453 72.6936 92.3898 71.2176 92.9914C71.2176 92.9914 72.5826 87.8525 72.9587 84.972C73.3329 82.0915 71.0223 75.8377 71.0223 75.8377Z" fill="#1D65BD"/>
<path d="M74.038 97.6192C75.4029 97.2229 77.255 96.3134 80.5132 95.9254C80.5132 95.9254 80.6982 94.6237 80.1432 93.5253C78.4987 93.8312 75.3618 94.3896 73.5981 94.5621C71.1313 94.8044 70.8168 94.482 70.8168 94.482L71.2197 92.9915C71.2197 92.9915 72.5846 87.8525 72.9608 84.972C73.1808 83.2741 72.4695 80.4039 71.8467 78.3323L69.8321 78.4616C69.8321 78.4616 70.4714 82.0238 70.714 84.6189C70.9566 87.214 69.5238 94.2521 68.9749 96.4078C68.5597 98.0359 66.8987 99.6271 65.6366 100.487C65.7805 100.608 65.9305 100.699 66.0888 100.746C67.499 101.159 69.1065 100.169 69.678 99.8386C70.2494 99.5101 72.673 98.0154 74.038 97.6192Z" fill="#003F97"/>
<path d="M79.3579 110.539C79.3579 110.539 79.7115 111.223 80.5153 110.539C81.319 109.856 82.4291 109.17 82.2626 108.18C82.0961 107.189 81.6952 102.234 81.1751 101.148C80.6551 100.062 79.4977 98.974 78.7186 98.3622C77.9396 97.7504 77.1605 97.9167 77.5613 96.6191C77.9622 95.3216 79.9952 87.7476 80.7023 84.8918C81.4115 82.0359 81.2697 79.0876 80.6078 77.2706C79.9459 75.4536 78.5419 74.0493 78.5419 74.0493C78.5419 74.0493 78.2171 74.6981 76.2622 75.1457C73.5446 75.7678 69.4909 74.7535 69.4909 74.7535C69.4909 74.7535 69.3408 77.0099 69.6964 79.2991C70.05 81.5883 71.3738 83.2637 72.6011 84.1362C72.6011 84.1362 72.1056 90.1765 72.0214 91.7101C71.9391 93.2438 71.5876 97.6334 72.3893 99.2841C73.191 100.935 74.3484 101.668 75.1274 102.516C75.9086 103.366 78.8851 108.205 79.3579 110.539Z" fill="#1D65BD"/>
<path d="M88.6494 60.8048C90.5961 57.4849 89.8438 54.822 88.7522 53.7626C87.6586 52.7032 87.2269 50.9581 87.2269 50.9581C87.5723 52.2577 88.8447 53.2124 88.8447 53.2124C88.1849 52.3542 87.8888 50.9252 87.8189 49.1144C87.7491 47.3036 84.7643 46.7 84.7643 46.7L84.2915 48.6791C83.3418 51.0176 83.4651 53.3171 84.8938 54.859C86.3224 56.4009 87.5065 58.6798 87.5065 58.6798C87.3297 56.9101 87.0193 56.481 87.0193 56.481C88.3123 57.4767 88.6494 60.8048 88.6494 60.8048Z" fill="#020617"/>
<path d="M67.5093 18.5703C67.6573 18.5724 67.98 18.6668 68.1301 19.1267C68.2801 19.5866 68.9708 21.6685 69.0201 21.7752C69.0715 21.882 69.2195 21.999 69.3162 21.882C69.4128 21.765 69.4765 20.1204 69.4231 19.6503C69.3696 19.1801 69.4868 18.6566 69.68 18.6689C69.8732 18.6791 70.1076 18.9029 70.161 19.7899C70.2145 20.6768 70.4283 21.8409 70.492 22.2988C70.5557 22.7587 70.642 24.2985 70.492 24.8323C70.3419 25.3641 70.2145 26.3578 70.2145 26.8074C70.2145 27.255 71.4869 30.7904 72.0748 32.0182C72.6627 33.2459 73.1232 34.7303 73.1767 35.8308C73.2301 36.9313 73.744 37.6149 72.9937 38.4054C72.2454 39.1958 70.1281 38.4157 69.5608 36.5576C68.9934 34.6995 68.4919 31.6342 68.385 30.0226C68.2781 28.4088 67.8402 27.2878 67.5935 26.3372C67.3469 25.3866 66.8227 23.9556 66.5986 23.6682C66.3745 23.3808 65.69 22.0565 65.5071 21.767C65.3262 21.4796 65.0898 20.8062 65.2296 20.6994C65.3693 20.5926 65.7435 21.0094 65.9346 21.3194C66.1258 21.6295 66.8864 22.8161 67.057 22.7299C67.2276 22.6416 67.388 22.5903 67.2276 22.2166C67.0673 21.843 66.5431 20.0691 66.4999 19.8987C66.4568 19.7283 66.4403 19.3813 66.6171 19.3854C66.7939 19.3916 67.0755 19.6728 67.1947 20.0588C67.3119 20.4428 67.9533 22.2166 68.1465 22.1633C68.3397 22.1099 68.1999 21.6726 68.0602 21.2866C67.9204 20.9027 67.5257 19.4819 67.4291 19.1924C67.3386 18.9029 67.2338 18.5683 67.5093 18.5703Z" fill="#FFCDA8"/>
<path d="M70.492 22.2986C70.4385 21.9168 70.2823 21.0524 70.2001 20.262C69.9637 20.4324 69.6307 20.7383 69.606 21.1161C69.5669 21.7053 69.8218 22.04 69.4292 22.5717C69.0366 23.1035 67.7559 23.6927 67.7559 23.6927C67.7559 23.6927 69.5032 23.8138 70.566 24.2429C70.5989 23.5634 70.5393 22.6374 70.492 22.2986Z" fill="#D9A782"/>
<path d="M75.4214 58.0351C73.8221 57.8318 73.2342 55.52 73.8324 55.2305C75.6044 54.3703 76.5602 52.3089 76.9323 51.2249C77.1646 50.5474 76.7678 49.6296 76.7678 49.6296L83.9955 49.8616C83.9955 49.8616 82.7456 50.7055 82.3386 51.5164C81.9316 52.3295 81.4074 53.8775 82.0077 54.477C82.0077 54.477 81.2327 55.908 80.2049 56.8771C79.1812 57.84 76.4883 58.1706 75.4214 58.0351Z" fill="#D9A782"/>
<path d="M76.9302 50.1409C76.5355 48.7407 76.2334 47.8476 76.2334 47.8476C76.0114 47.5417 74.1346 40.0211 73.8509 39.0644C73.5651 38.1097 73.3822 36.0956 73.302 35.3441C73.2198 34.5927 72.5291 32.5786 71.9186 31.318C71.3081 30.0574 70.4529 26.8032 70.4529 26.8032L67.758 27.2303C67.758 27.2303 68.2739 29.811 68.3356 30.8088C68.3973 31.8046 68.9461 34.3053 69.1496 35.4858C69.3531 36.6643 70.2288 39.0849 70.3912 40.0807C70.5536 41.0764 71.4499 45.6117 71.6123 46.7902C71.7747 47.9687 72.4325 50.5084 72.0645 52.3747C72.0645 52.3747 71.5198 54.7789 70.7592 55.6288C69.9986 56.4788 66.4341 58.7188 67.2564 61.4207C68.054 64.0486 71.2649 63.3403 72.3215 63.8536C72.3503 63.868 72.379 63.8823 72.4037 63.8988L74.1777 57.7867L75.6825 53.6394C75.6804 53.6414 77.3249 51.5411 76.9302 50.1409Z" fill="#FFD900"/>
<path d="M95.7989 51.617C95.7989 51.617 99.0099 49.954 100.13 49.102C101.251 48.2499 103.865 45.9053 104.568 45.2462C105.271 44.5851 105.783 44.3716 106.603 43.9261C107.426 43.4785 108.289 43.2013 108.908 43.0412C109.527 42.8811 110.112 42.4437 110.423 42.3164C110.731 42.1892 111.021 41.9962 110.988 41.8381C110.955 41.6779 110.497 41.6882 110.285 41.7744C110.071 41.8586 109.142 42.1399 109.068 42.0105C108.994 41.8832 109.095 41.8011 109.372 41.7272C109.65 41.6533 110.26 41.3576 110.602 41.1339C110.943 40.9101 112.1 40.2182 112.014 39.9718C111.927 39.7275 111.459 39.7809 111.128 39.9718C110.797 40.1627 109.89 40.5898 109.592 40.7273C109.294 40.8649 109.058 40.9306 108.974 40.8649C108.889 40.8013 109.656 40.4379 109.987 40.29C110.318 40.1402 111.481 39.3312 111.779 39.0972C112.078 38.8631 112.217 38.586 112.088 38.4361C111.96 38.2862 111.399 38.5428 110.85 38.8754C110.336 39.1875 109.251 39.7357 109.017 39.8527C108.782 39.9697 108.431 39.8958 108.536 39.7254C108.643 39.555 109.455 38.6517 109.765 38.2944C110.073 37.9372 110.721 37.2904 110.367 37.0543C110.016 36.8203 109.498 37.5964 109.22 37.8941C108.943 38.1918 108.205 38.7769 108.014 38.9678C107.82 39.1588 106.361 39.7357 106.094 39.863C105.826 39.9903 104.667 39.9903 104.57 40.3106C104.474 40.6308 104.106 42.3123 103.968 42.452C103.832 42.5916 101.283 44.3798 100.377 44.7638C99.4703 45.1477 95.949 46.9688 95.1391 47.5765C94.3292 48.1842 93.9345 48.4388 93.9345 48.4388L95.7989 51.617Z" fill="#FFCDA8"/>
<path d="M106.893 41.2509C107.366 41.1729 107.839 40.5036 107.621 39.8938C107.539 39.6638 107.547 39.4236 107.592 39.2122C107.08 39.4565 106.283 39.7768 106.092 39.8671C105.874 39.9718 105.058 39.9903 104.714 40.1689C104.862 40.5159 105.025 40.7972 105.119 40.7972C105.36 40.7972 106.42 41.3289 106.893 41.2509Z" fill="#D9A782"/>
<path d="M77.4236 44.7886C77.4236 44.7886 76.8768 45.0288 76.517 45.8152C76.1573 46.6015 76.0627 47.3468 75.9045 47.8395C75.7441 48.3323 75.4646 49.7592 75.9045 50.1575C76.3444 50.5578 77.2262 51.0629 79.0928 51.1964C80.9613 51.3298 82.8402 50.8494 83.6419 50.3833C84.4415 49.9173 85.8702 48.1844 86.2567 46.5071C86.6431 44.8276 85.4159 43.0825 83.9893 42.3105C82.5627 41.5385 80.9079 41.4585 80.0281 41.8301C79.1483 42.2037 77.5593 43.9078 77.4935 44.029C77.4236 44.1501 77.5161 44.6962 77.4236 44.7886Z" fill="#FFCDA8"/>
<path d="M78.0238 44.0556C77.919 43.9838 77.7607 43.9366 77.5901 43.9058C77.5346 43.9694 77.4976 44.0125 77.4894 44.0289C77.4236 44.148 77.5161 44.6962 77.4236 44.7886C77.4236 44.7886 76.8768 45.0288 76.517 45.8151C76.1573 46.6015 76.0627 47.3468 75.9045 47.8395C75.7441 48.3323 75.4646 49.7592 75.9045 50.1575C76.0031 50.2478 76.1285 50.3443 76.2806 50.4408C76.1059 49.0714 77.1851 47.0942 77.1851 47.0942C77.1851 47.0942 76.9056 46.6672 76.8788 46.4188C76.8521 46.1683 78.0259 45.6283 78.4123 45.2957C78.7968 44.9631 78.3692 44.2959 78.0238 44.0556Z" fill="#D9A782"/>
<path d="M83.9112 41.7438C81.7548 40.6085 79.2387 41.5673 79.0455 42.3639C78.9509 42.756 79.6314 43.0229 79.8965 43.1256C80.2481 43.2631 81.5513 43.2488 82.1413 44.2466C83.3377 46.2689 82.0406 48.4021 83.6131 48.9585L83.3192 50.6133C84.421 50.3115 85.5495 49.3485 86.3286 47.3755C87.2639 45.0001 86.0655 42.8792 83.9112 41.7438Z" fill="#020617" fill-opacity="0.8"/>
<path d="M84.7828 42.2982C84.5135 42.0949 84.2237 41.9081 83.9112 41.7438C81.7548 40.6085 79.2387 41.5673 79.0455 42.3639C78.9509 42.756 79.6314 43.0229 79.8965 43.1256C80.2481 43.2631 81.5513 43.2488 82.1413 44.2466C83.3377 46.2689 82.0406 48.4021 83.6131 48.9585L83.3192 50.6133C83.4898 50.566 83.6625 50.5003 83.8331 50.4203L84.826 48.5971C84.826 48.5971 83.4528 48.3672 83.5432 45.811C83.5432 45.811 83.128 47.6116 83.681 48.2214C83.681 48.2214 82.9594 47.9832 83.1609 46.3223C83.3623 44.6613 82.3386 42.9079 80.6016 42.9079C80.5996 42.9059 82.1886 41.6679 84.7828 42.2982Z" fill="#020617"/>
<path d="M103.481 42.5259L101.347 43.9856C100.445 44.5236 97.0981 46.1742 96.1751 46.7306C95.2522 47.287 93.176 48.6708 92.1379 49.2477C91.0998 49.8247 88.3884 51.6643 86.4088 52.2227C84.4292 52.7791 82.7621 54.0315 82.7621 54.0315C82.647 53.9124 82.5791 53.8447 82.5791 53.8447L78.6734 56.0168L74.7266 57.7866L75.6784 53.6393L74.6464 53.2287L67.2523 61.4186L67.1927 61.359C67.1927 61.359 67.5051 63.6216 67.4661 65.611C67.427 67.6005 67.5894 70.4481 67.4702 71.3063C67.3489 72.1645 66.0354 75.3407 65.5687 77.7469C65.5687 77.7469 67.1043 79.5105 70.4694 80.0916C73.8345 80.6726 78.4247 79.5516 80.7928 77.2911C80.7928 77.2911 79.8986 75.6322 79.3168 74.7822C78.7351 73.9323 78.0711 73.3307 78.6323 71.4829C79.1935 69.6372 80.024 67.6251 81.5616 65.7773C82.4106 64.7569 83.6481 62.8291 84.6471 61.2112C85.3008 60.1662 88.9249 56.4049 89.5395 56.0148C90.1542 55.6247 94.7876 52.4321 95.7681 51.9127C96.7487 51.3932 99.6718 49.7631 100.671 49.0322C101.672 48.3013 105.247 44.9609 105.247 44.9609L103.481 42.5259Z" fill="#FFD900"/>
<path opacity="0.2" d="M89.5436 56.0169C90.1583 55.6268 94.7917 52.4342 95.7722 51.9148C96.7528 51.3953 99.6759 49.7652 100.675 49.0343C101.676 48.3034 105.251 44.9629 105.251 44.9629L104.745 44.2649C103.569 45.1457 100.656 47.3343 99.5032 48.2787C98.0416 49.4757 97.5545 49.6871 96.2347 49.8966C94.915 50.108 94.029 50.7424 93.9016 50.8944C93.7741 51.0484 88.6761 53.3848 86.8734 54.5427C84.5793 56.0148 82.462 56.4973 82.0673 59.2505C81.4629 63.4614 79.3579 64.5722 78.0218 65.5104C76.9713 66.2496 74.6937 66.3399 72.6339 65.4591C72.6339 65.4591 76.8624 68.159 76.3218 70.4605C75.4419 74.2074 77.4277 76.86 77.5017 79.2765C78.7824 78.7838 79.9376 78.1145 80.7969 77.2912C80.7969 77.2912 79.9027 75.6323 79.3209 74.7823C78.7392 73.9323 78.0752 73.3307 78.6364 71.4829C79.1976 69.6372 80.0281 67.6251 81.5657 65.7773C82.4147 64.757 83.6522 62.8291 84.6512 61.2112C85.3028 60.1683 88.9269 56.409 89.5436 56.0169Z" fill="black"/>
<path d="M71.9165 44.2669C71.1128 38.781 71.8713 38.7235 71.6 37.6169C71.3286 36.5082 70.4611 35.9149 70.2988 35.4262C70.159 35.0094 68.9112 29.7658 68.5535 27.105L67.7559 27.2323C67.7559 27.2323 68.2719 29.813 68.3336 30.8108C68.3952 31.8066 68.9441 34.3073 69.1476 35.4878C69.3511 36.6663 70.2268 39.0869 70.3892 40.0827C70.5516 41.0784 71.4478 45.6137 71.6102 46.7922C71.7726 47.9707 72.4304 50.5104 72.0625 52.3767C72.0625 52.3767 71.8857 53.1569 71.5938 53.9843C71.7356 53.7256 71.8939 53.5387 72.0029 53.1425C72.634 50.8307 72.7223 49.7528 71.9165 44.2669Z" fill="#C7DEEB"/>
<path d="M78.7351 55.6289L78.0197 55.7151C78.0197 55.7151 77.3948 56.5939 76.9919 56.7745L78.992 55.9307L78.7351 55.6289Z" fill="#C7DEEB"/>
<path d="M82.1187 52.7812C82.1187 52.7812 79.9397 54.5982 78.0197 55.7131C78.0197 55.7131 80.6098 59.5175 81.0806 59.2383C81.5534 58.957 82.9492 53.8448 82.9492 53.8448L82.1187 52.7812Z" fill="#FDFDFD"/>
<path d="M76.9878 50.7446C76.6609 50.9417 71.8734 53.812 71.4314 54.4402C70.9278 55.1568 75.6804 53.6416 75.6804 53.6416C75.6804 53.6416 76.9076 52.073 76.9878 50.7446Z" fill="#FDFDFD"/>
<path d="M83.4795 48.8269C83.8577 48.5559 84.7293 48.4081 84.9082 48.6668C85.085 48.9255 84.6348 49.7016 84.0325 50.0978C83.4302 50.4961 82.427 50.6788 82.4126 50.2908C82.3982 49.9048 83.2184 49.0138 83.4795 48.8269Z" fill="#FFCDA8"/>
<path d="M105.978 39.2411C106.143 38.7525 106.558 38.0216 106.496 37.5493C106.435 37.0771 106.274 36.6891 106.042 36.7589C105.81 36.8287 105.767 37.2249 105.598 37.6438C105.598 37.6438 105.508 37.9476 105.28 38.311C105.053 38.6744 104.786 39.3396 104.688 39.584C104.589 39.8283 104.505 40.2984 104.698 40.5859C104.891 40.8733 105.352 41.7089 105.872 41.2675C106.39 40.8281 105.89 39.4998 105.978 39.2411Z" fill="#FFCDA8"/>
<path d="M69.0757 23.8283C69.0839 23.3397 69.2319 22.966 69.6903 22.8634C70.1487 22.7628 70.3974 22.5924 70.5023 22.4302C70.605 22.268 71.378 21.0115 71.8508 20.9458C72.3236 20.8801 72.3112 21.2394 72.3112 21.2394C72.3112 21.2394 71.639 22.0154 71.5075 22.5C71.3759 22.9866 71.084 23.6702 70.6379 24.4627C70.3419 24.9863 70.0254 24.8241 69.6862 24.7995C69.347 24.7728 69.0757 23.8283 69.0757 23.8283Z" fill="#FFCDA8"/>
<defs>
<linearGradient id="paint0_linear_1_10634" x1="80.5361" y1="7.87479" x2="80.5361" y2="113.152" gradientUnits="userSpaceOnUse">
<stop stop-color="white"/>
<stop offset="1" stop-color="#6BD8FF"/>
</linearGradient>
<linearGradient id="paint1_linear_1_10634" x1="118.58" y1="159.279" x2="118.58" y2="123.166" gradientUnits="userSpaceOnUse">
<stop stop-color="#7AC1FF"/>
<stop offset="1" stop-color="#4DB2FF"/>
</linearGradient>
<linearGradient id="paint2_linear_1_10634" x1="118.611" y1="97.872" x2="118.611" y2="147.65" gradientUnits="userSpaceOnUse">
<stop/>
<stop offset="1" stop-color="#F3F3F3"/>
</linearGradient>
<linearGradient id="paint3_linear_1_10634" x1="40.8491" y1="155.921" x2="40.8491" y2="119.808" gradientUnits="userSpaceOnUse">
<stop stop-color="#7AC1FF"/>
<stop offset="1" stop-color="#4DB2FF"/>
</linearGradient>
<linearGradient id="paint4_linear_1_10634" x1="40.8803" y1="94.5142" x2="40.8803" y2="144.292" gradientUnits="userSpaceOnUse">
<stop/>
<stop offset="1" stop-color="#F3F3F3"/>
</linearGradient>
<linearGradient id="paint5_linear_1_10634" x1="14.761" y1="27.0425" x2="39.9351" y2="70.6991" gradientUnits="userSpaceOnUse">
<stop stop-color="white"/>
<stop offset="1" stop-color="white"/>
</linearGradient>
<linearGradient id="paint6_linear_1_10634" x1="-7.59668" y1="87.2929" x2="4.32391" y2="107.965" gradientUnits="userSpaceOnUse">
<stop stop-color="white"/>
<stop offset="1" stop-color="white"/>
</linearGradient>
<linearGradient id="paint7_linear_1_10634" x1="31.2044" y1="40.4724" x2="43.125" y2="61.1449" gradientUnits="userSpaceOnUse">
<stop stop-color="white"/>
<stop offset="1" stop-color="white"/>
</linearGradient>
<linearGradient id="paint8_linear_1_10634" x1="6.50611" y1="112.885" x2="18.6956" y2="134.024" gradientUnits="userSpaceOnUse">
<stop stop-color="white"/>
<stop offset="1" stop-color="white"/>
</linearGradient>
<linearGradient id="paint9_linear_1_10634" x1="16.6409" y1="80.2309" x2="29.0049" y2="101.672" gradientUnits="userSpaceOnUse">
<stop stop-color="white"/>
<stop offset="1" stop-color="white"/>
</linearGradient>
<linearGradient id="paint10_linear_1_10634" x1="119.423" y1="26.6708" x2="145.273" y2="71.5005" gradientUnits="userSpaceOnUse">
<stop stop-color="white"/>
<stop offset="1" stop-color="white"/>
</linearGradient>
<linearGradient id="paint11_linear_1_10634" x1="153.255" y1="90.3879" x2="165.495" y2="111.615" gradientUnits="userSpaceOnUse">
<stop stop-color="white"/>
<stop offset="1" stop-color="white"/>
</linearGradient>
<linearGradient id="paint12_linear_1_10634" x1="147.587" y1="122.072" x2="160.104" y2="143.779" gradientUnits="userSpaceOnUse">
<stop stop-color="white"/>
<stop offset="1" stop-color="white"/>
</linearGradient>
<linearGradient id="paint13_linear_1_10634" x1="158.784" y1="65.0109" x2="171.301" y2="86.7177" gradientUnits="userSpaceOnUse">
<stop stop-color="white"/>
<stop offset="1" stop-color="white"/>
</linearGradient>
<linearGradient id="paint14_linear_1_10634" x1="135.721" y1="74.0078" x2="135.488" y2="102.914" gradientUnits="userSpaceOnUse">
<stop stop-color="white"/>
<stop offset="1" stop-color="white"/>
</linearGradient>
<linearGradient id="paint15_linear_1_10634" x1="89.761" y1="52.8729" x2="107.858" y2="84.2571" gradientUnits="userSpaceOnUse">
<stop stop-color="white"/>
<stop offset="1" stop-color="white"/>
</linearGradient>
<linearGradient id="paint16_linear_1_10634" x1="112.426" y1="18.8767" x2="119.792" y2="31.6505" gradientUnits="userSpaceOnUse">
<stop stop-color="white"/>
<stop offset="1" stop-color="white"/>
</linearGradient>
<linearGradient id="paint17_linear_1_10634" x1="68.1778" y1="16.7" x2="76.4656" y2="31.0726" gradientUnits="userSpaceOnUse">
<stop stop-color="white"/>
<stop offset="1" stop-color="white"/>
</linearGradient>
<linearGradient id="paint18_linear_1_10634" x1="96.6367" y1="31.4855" x2="112.052" y2="58.218" gradientUnits="userSpaceOnUse">
<stop stop-color="white"/>
<stop offset="1" stop-color="white"/>
</linearGradient>
<linearGradient id="paint19_linear_1_10634" x1="38.571" y1="20.1482" x2="53.9918" y2="46.8907" gradientUnits="userSpaceOnUse">
<stop stop-color="white"/>
<stop offset="1" stop-color="white"/>
</linearGradient>
<linearGradient id="paint20_linear_1_10634" x1="54.3699" y1="36.9949" x2="62.7611" y2="51.5469" gradientUnits="userSpaceOnUse">
<stop stop-color="white"/>
<stop offset="1" stop-color="white"/>
</linearGradient>
<linearGradient id="paint21_linear_1_10634" x1="85.4626" y1="20.2515" x2="93.8539" y2="34.8035" gradientUnits="userSpaceOnUse">
<stop stop-color="white"/>
<stop offset="1" stop-color="white"/>
</linearGradient>
<linearGradient id="paint22_linear_1_10634" x1="54.5307" y1="72.6156" x2="62.9216" y2="87.167" gradientUnits="userSpaceOnUse">
<stop stop-color="white"/>
<stop offset="1" stop-color="white"/>
</linearGradient>
<linearGradient id="paint23_linear_1_10634" x1="84.1022" y1="63.144" x2="99.5226" y2="89.8858" gradientUnits="userSpaceOnUse">
<stop stop-color="white"/>
<stop offset="1" stop-color="white"/>
</linearGradient>
</defs>
</svg>
