<svg width="53" height="49" viewBox="0 0 53 49" fill="none" xmlns="http://www.w3.org/2000/svg">
<path d="M48.75 11.595V9.375C48.747 6.88951 47.7584 4.50667 46.0009 2.74916C44.2433 0.991654 41.8605 0.00297723 39.375 0H9.37501C6.88952 0.00297723 4.50668 0.991654 2.74917 2.74916C0.991664 4.50667 0.00298703 6.88951 9.80009e-06 9.375V33.2812C-0.00371085 36.5356 1.05209 39.7027 3.00781 42.3038C4.96353 44.9049 7.71287 46.7986 10.8402 47.6988C13.9676 48.5989 17.303 48.4565 20.3422 47.293C23.3815 46.1296 25.9594 44.0084 27.6863 41.25H39.375C41.8605 41.247 44.2433 40.2583 46.0009 38.5008C47.7584 36.7433 48.747 34.3605 48.75 31.875V29.655C49.843 29.2686 50.7898 28.5539 51.4611 27.6088C52.1324 26.6637 52.4952 25.5342 52.5 24.375V16.875C52.4952 15.7158 52.1324 14.5863 51.4611 13.6412C50.7898 12.6961 49.843 11.9814 48.75 11.595ZM15 44.5312C12.775 44.5312 10.5999 43.8714 8.74985 42.6353C6.89979 41.3991 5.45785 39.6421 4.60637 37.5864C3.75488 35.5308 3.53209 33.2688 3.96618 31.0865C4.40026 28.9042 5.47172 26.8996 7.04506 25.3263C8.6184 23.753 10.623 22.6815 12.8052 22.2474C14.9875 21.8133 17.2495 22.0361 19.3052 22.8876C21.3609 23.7391 23.1179 25.181 24.354 27.0311C25.5902 28.8811 26.25 31.0562 26.25 33.2812C26.247 36.264 25.0608 39.1238 22.9517 41.2329C20.8425 43.3421 17.9828 44.5283 15 44.5312ZM39.375 37.5H29.385C30.3507 34.2252 30.1687 30.7188 28.8692 27.5616C27.5696 24.4044 25.2306 21.7859 22.2394 20.1398C19.2482 18.4937 15.7845 17.9188 12.4219 18.5103C9.05937 19.1019 5.99979 20.8244 3.75001 23.3925V9.375C3.75001 7.88316 4.34264 6.45242 5.39753 5.39752C6.45243 4.34263 7.88317 3.75 9.37501 3.75H39.375C40.8669 3.75 42.2976 4.34263 43.3525 5.39752C44.4074 6.45242 45 7.88316 45 9.375V11.25H41.25C38.7636 11.25 36.379 12.2377 34.6209 13.9959C32.8627 15.754 31.875 18.1386 31.875 20.625C31.875 23.1114 32.8627 25.496 34.6209 27.2541C36.379 29.0123 38.7636 30 41.25 30H45V31.875C45 33.3668 44.4074 34.7976 43.3525 35.8525C42.2976 36.9074 40.8669 37.5 39.375 37.5ZM48.75 24.375C48.75 24.8723 48.5525 25.3492 48.2008 25.7008C47.8492 26.0525 47.3723 26.25 46.875 26.25H41.25C39.7582 26.25 38.3274 25.6574 37.2725 24.6025C36.2176 23.5476 35.625 22.1168 35.625 20.625C35.625 19.1332 36.2176 17.7024 37.2725 16.6475C38.3274 15.5926 39.7582 15 41.25 15H46.875C47.3723 15 47.8492 15.1975 48.2008 15.5492C48.5525 15.9008 48.75 16.3777 48.75 16.875V24.375ZM21.5625 33.2812C21.5625 33.7785 21.365 34.2554 21.0133 34.6071C20.6617 34.9587 20.1848 35.1562 19.6875 35.1562H16.875V37.9688C16.875 38.466 16.6775 38.9429 16.3258 39.2946C15.9742 39.6462 15.4973 39.8438 15 39.8438C14.5027 39.8438 14.0258 39.6462 13.6742 39.2946C13.3226 38.9429 13.125 38.466 13.125 37.9688V35.1562H10.3125C9.81523 35.1562 9.33832 34.9587 8.98668 34.6071C8.63505 34.2554 8.43751 33.7785 8.43751 33.2812C8.43751 32.784 8.63505 32.3071 8.98668 31.9554C9.33832 31.6038 9.81523 31.4062 10.3125 31.4062H13.125V28.5938C13.125 28.0965 13.3226 27.6196 13.6742 27.2679C14.0258 26.9163 14.5027 26.7188 15 26.7188C15.4973 26.7188 15.9742 26.9163 16.3258 27.2679C16.6775 27.6196 16.875 28.0965 16.875 28.5938V31.4062H19.6875C20.1848 31.4062 20.6617 31.6038 21.0133 31.9554C21.365 32.3071 21.5625 32.784 21.5625 33.2812Z" fill="#F3F4F6"/>
</svg>
