<svg width="17" height="17" viewBox="0 0 17 17" fill="none" xmlns="http://www.w3.org/2000/svg">
<path d="M13.75 16.25C13.5842 16.25 13.4253 16.1842 13.3081 16.0669C13.1908 15.9497 13.125 15.7908 13.125 15.625V5C13.125 4.50272 12.9275 4.02581 12.5758 3.67417C12.2242 3.32254 11.7473 3.125 11.25 3.125H0.625C0.45924 3.125 0.300268 3.05915 0.183058 2.94194C0.065848 2.82473 0 2.66576 0 2.5C0 2.33424 0.065848 2.17527 0.183058 2.05806C0.300268 1.94085 0.45924 1.875 0.625 1.875H11.25C12.0785 1.87599 12.8728 2.20555 13.4586 2.79139C14.0444 3.37722 14.374 4.1715 14.375 5V15.625C14.375 15.7908 14.3092 15.9497 14.1919 16.0669C14.0747 16.1842 13.9158 16.25 13.75 16.25Z" fill="#22C55E"/>
<path d="M15.625 14.375H5C4.1715 14.374 3.37722 14.0444 2.79139 13.4586C2.20555 12.8728 1.87599 12.0785 1.875 11.25V0.625C1.875 0.45924 1.94085 0.300268 2.05806 0.183058C2.17527 0.065848 2.33424 0 2.5 0C2.66576 0 2.82473 0.065848 2.94194 0.183058C3.05915 0.300268 3.125 0.45924 3.125 0.625V11.25C3.125 11.7473 3.32254 12.2242 3.67417 12.5758C4.02581 12.9275 4.50272 13.125 5 13.125H15.625C15.7908 13.125 15.9497 13.1908 16.0669 13.3081C16.1842 13.4253 16.25 13.5842 16.25 13.75C16.25 13.9158 16.1842 14.0747 16.0669 14.1919C15.9497 14.3092 15.7908 14.375 15.625 14.375Z" fill="#22C55E"/>
<path d="M10.625 6.875C11.3154 6.875 11.875 6.31536 11.875 5.625C11.875 4.93464 11.3154 4.375 10.625 4.375C9.93464 4.375 9.375 4.93464 9.375 5.625C9.375 6.31536 9.93464 6.875 10.625 6.875Z" fill="#22C55E"/>
<path d="M12.7375 13.725C12.6596 13.7429 12.5799 13.7513 12.5 13.75H3.75C3.41878 13.749 3.10142 13.617 2.86721 13.3828C2.633 13.1486 2.50099 12.8312 2.5 12.5V9.44374L4.33125 7.81874C4.6873 7.49934 5.15249 7.329 5.63061 7.34296C6.10873 7.35692 6.56319 7.55411 6.9 7.89374L8.66875 9.65624L12.7375 13.725Z" fill="#22C55E"/>
<path d="M13.75 10.9937V12.5C13.7495 12.7899 13.6482 13.0706 13.4635 13.2941C13.2788 13.5176 13.0221 13.6699 12.7375 13.725C12.6596 13.7429 12.5799 13.7513 12.5 13.75H4.0625L8.66875 9.65624L9.33125 9.06874C9.6873 8.74934 10.1525 8.579 10.6306 8.59296C11.1087 8.60692 11.5632 8.80411 11.9 9.14374L13.75 10.9937Z" fill="#22C55E"/>
<path d="M13.75 10.9937V12.5C13.7495 12.7899 13.6482 13.0706 13.4635 13.2941C13.2788 13.5176 13.0221 13.6699 12.7375 13.725C12.6596 13.7429 12.5799 13.7513 12.5 13.75H3.75C3.41878 13.749 3.10142 13.617 2.86721 13.3828C2.633 13.1486 2.50099 12.8312 2.5 12.5V9.44374L4.33125 7.81874C4.6873 7.49934 5.15249 7.329 5.63061 7.34296C6.10873 7.35692 6.56319 7.55411 6.9 7.89374L8.66875 9.65624L9.33125 9.06874C9.6873 8.74934 10.1525 8.579 10.6306 8.59296C11.1087 8.60692 11.5632 8.80411 11.9 9.14374L13.75 10.9937Z" fill="#22C55E"/>
</svg>
