<svg width="42" height="60" viewBox="0 0 42 60" fill="none" xmlns="http://www.w3.org/2000/svg">
<path d="M20.9091 60C32.4384 60 41.8182 50.6202 41.8182 39.0909C41.8182 33.678 39.7504 28.7389 36.3636 25.022V15.4545C36.3636 6.93291 29.4307 0 20.9091 0C12.3875 0 5.45473 6.93291 5.45473 15.4545V25.0216C2.06782 28.7389 0 33.678 0 39.0909C0 50.6202 9.37982 60 20.9091 60ZM23.6364 39.9975V43.6364C23.6364 45.1425 22.4153 46.3636 20.9091 46.3636C19.4029 46.3636 18.1818 45.1425 18.1818 43.6364V39.9975C17.0785 39.1675 16.3636 37.8476 16.3636 36.3636C16.3636 33.8573 18.4027 31.8182 20.9091 31.8182C23.4155 31.8182 25.4545 33.8573 25.4545 36.3636C25.4545 37.8476 24.7396 39.1675 23.6364 39.9975ZM10.9093 15.4545C10.9093 9.94055 15.3953 5.45455 20.9091 5.45455C26.4231 5.45455 30.9091 9.94055 30.9091 15.4545V20.7325C27.9367 19.1069 24.5291 18.1818 20.9091 18.1818C17.2893 18.1818 13.8816 19.1069 10.9093 20.7324V15.4545Z" fill="white"/>
</svg>
