<svg width="46" height="40" viewBox="0 0 46 40" fill="none" xmlns="http://www.w3.org/2000/svg">
<path d="M44.0215 2.40045C42.9586 3.58809 39.9784 6.86321 35.8851 11.0298C33.6896 13.1619 31.5024 15.2131 29.1622 17.5632C29.2401 17.5185 29.318 17.4738 29.3959 17.4291C25.8397 20.8244 21.9106 24.3789 17.9064 27.6568C15.2267 29.8505 12.1268 31.4769 9.09649 33.148C7.24324 34.1707 3.88736 35.7077 3.31136 35.0845C2.37917 34.9616 4.33815 30.1411 7.21542 26.7403C-0.539833 35.2243 -0.0612169 38.572 0.0389585 38.8571C0.214266 39.3629 1.09358 39.9385 1.62785 39.9748C5.61539 40.2487 10.2318 37.8035 14.1136 35.4171C22.8901 30.021 31.0099 23.5462 38.2281 16.1828C38.4674 15.9396 38.7067 15.6937 38.9404 15.445C38.8653 18.7956 38.4646 22.1378 37.7327 25.4073C38.7985 22.4871 39.8893 20.1453 40.2789 19.0778C41.0608 16.9401 45.1123 4.25318 45.9944 -0.00279617C45.3238 0.843927 44.6671 1.63756 44.0215 2.40045Z" fill="white"/>
<path d="M43.9241 1.85832C36.834 5.46877 29.7465 9.07922 22.6563 12.6869C25.798 12.2342 27.6345 12.2342 30.1751 12.0106C24.4734 18.1165 19.498 24.949 13.148 30.3675C21.3346 23.3785 29.5323 16.4371 37.1901 8.81654C39.4802 6.54184 41.7286 4.22523 43.9241 1.85832Z" fill="white"/>
<path d="M27.0891 13.5867C23.8445 15.5372 20.6 17.4878 17.3554 19.4411C18.833 19.1197 19.7039 19.0583 20.9033 18.8682C18.3989 21.9589 16.2674 25.3682 13.4319 28.1543C17.0855 24.5606 20.7447 20.9892 24.1256 17.1161C25.1357 15.9592 26.1263 14.7827 27.0891 13.5867Z" fill="white"/>
</svg>
