<svg width="54" height="54" viewBox="0 0 54 54" fill="none" xmlns="http://www.w3.org/2000/svg">
<path fill-rule="evenodd" clip-rule="evenodd" d="M7.65809 11.6156L15.1686 19.1695C17.5241 17.0273 20.5018 15.7898 23.6811 15.6316L23.7128 4.97813C17.6882 5.13633 12.0362 7.47422 7.65809 11.6156ZM39.4874 24.0879L33.6866 25.7367C33.8542 26.1715 33.9925 26.6203 34.0979 27.0809L39.7323 25.4813C39.6093 25.0266 39.5272 24.5613 39.4874 24.0879ZM29.7526 20.9203L33.7522 14.0895C33.2788 13.998 32.8136 13.8621 32.36 13.6828L28.5186 20.2465C28.9475 20.4422 29.36 20.6672 29.7526 20.9203ZM48.0163 35.1715L37.4682 33.3762C36.8132 35.4926 35.6448 37.4297 34.0663 39.0082C32.4784 40.5949 30.5307 41.7668 28.4003 42.4195L30.1944 52.9652C34.5046 51.9094 38.4327 49.6957 41.5932 46.5352C44.7468 43.3852 46.9569 39.4676 48.0163 35.1715ZM47.285 24.4629C48.3093 24.4629 49.1436 23.6285 49.1436 22.6043C49.1436 21.5789 48.3093 20.7457 47.285 20.7457C46.2597 20.7457 45.4264 21.5789 45.4264 22.6043C45.4264 23.6273 46.2597 24.4629 47.285 24.4629ZM51.0772 28.5996C50.714 27.1605 49.405 26.1164 47.8897 26.1164H46.6792C45.164 26.1164 43.8561 27.1605 43.4917 28.5996C45.7417 30.2496 48.8296 30.2496 51.0772 28.5996ZM47.285 19.3395C45.4839 19.3395 44.0202 20.8031 44.0202 22.6043C44.0202 23.5488 44.4245 24.402 45.0679 24.9984C43.8655 25.4402 42.8823 26.3625 42.369 27.5461C41.3999 26.393 40.8702 24.9504 40.8702 23.4258C40.8702 21.7125 41.5382 20.1023 42.7487 18.8906C43.9991 17.6402 45.6421 17.0145 47.285 17.0145C48.9268 17.0145 50.5698 17.6402 51.8202 18.8906C54.1862 21.2578 54.3116 25.0277 52.1999 27.5449C51.6866 26.3625 50.7034 25.4402 49.5011 24.9984C50.1456 24.402 50.5499 23.5488 50.5499 22.6043C50.5499 20.8031 49.085 19.3395 47.285 19.3395ZM39.0444 11.584C38.6811 10.1449 37.3733 9.10195 35.8569 9.10195H34.6464C33.1311 9.10195 31.8233 10.1449 31.4589 11.584C33.7065 13.2352 36.7956 13.2352 39.0444 11.584ZM35.2511 7.44727C36.2765 7.44727 37.1097 6.61289 37.1097 5.58867C37.1097 4.56328 36.2765 3.73008 35.2511 3.73008C34.2257 3.73008 33.3925 4.56328 33.3925 5.58867C33.3925 6.61172 34.2257 7.44727 35.2511 7.44727ZM37.4671 7.98281C38.1116 7.38633 38.5159 6.53437 38.5159 5.58867C38.5159 3.78867 37.0511 2.32383 35.2511 2.32383C33.4511 2.32383 31.9862 3.78867 31.9862 5.58867C31.9862 6.53437 32.3905 7.38633 33.035 7.98281C31.8327 8.42578 30.8495 9.34688 30.3362 10.5293C28.2233 8.01211 28.3487 4.24219 30.7159 1.875C31.9663 0.624609 33.6093 0 35.2511 0C36.894 0 38.5358 0.624609 39.7862 1.875C42.1522 4.24219 42.2788 8.01211 40.1659 10.5293C39.6538 9.34688 38.6706 8.42578 37.4671 7.98281ZM27.3807 26.284C27.5179 26.6473 27.335 27.0527 26.9718 27.1898C26.6085 27.327 26.203 27.1453 26.0659 26.782C25.8444 26.1984 25.1753 25.7906 24.4382 25.7906C23.5147 25.7906 22.7354 26.4305 22.7354 27.1875C22.7354 27.5859 22.9042 28.0688 23.3788 28.2316L24.6069 28.6523C24.6175 28.6559 24.628 28.6605 24.6386 28.6641L26.1409 29.2629C26.946 29.584 27.4264 30.4008 27.4264 31.4473C27.4264 32.7563 26.4268 33.8578 25.0804 34.1648V35.1938C25.0804 35.5828 24.7651 35.8969 24.3772 35.8969C23.9893 35.8969 23.6741 35.5828 23.6741 35.1938V34.1883C22.6182 33.9867 21.7335 33.3 21.3737 32.3508C21.2354 31.9887 21.4182 31.582 21.7815 31.4449C22.1448 31.3078 22.5503 31.4906 22.6874 31.8527C22.9089 32.4375 23.578 32.8453 24.3151 32.8453C25.2386 32.8453 26.0179 32.2055 26.0179 31.4473C26.0179 31.2785 25.9897 30.7172 25.6182 30.5695L24.1311 29.9766L22.9194 29.5617C21.9515 29.2301 21.3257 28.2984 21.3257 27.1875C21.3257 25.8797 22.3253 24.777 23.6718 24.4699V23.441C23.6718 23.0531 23.987 22.7379 24.3749 22.7379C24.7628 22.7379 25.078 23.0531 25.078 23.441V24.4465C26.1362 24.648 27.021 25.3359 27.3807 26.284ZM24.3772 20.7562C29.0987 20.7562 32.9401 24.5965 32.9401 29.3191C32.9401 34.0406 29.0987 37.882 24.3772 37.882C19.6557 37.882 15.8143 34.0406 15.8143 29.3191C15.8143 24.5953 19.6557 20.7562 24.3772 20.7562ZM12.4218 22.6148C11.0378 25.0852 10.4472 27.968 10.753 30.8027C11.0882 33.893 12.485 36.8074 14.687 39.0094C17.0882 41.4105 20.23 42.8133 23.5979 43.0008L23.5663 53.6555C17.3671 53.4527 11.5651 50.9414 7.16004 46.5363C-1.08644 38.2898 -2.33566 25.5105 4.06864 15.8742L12.4218 22.6148Z" fill="#F3F4F6"/>
</svg>
