<svg width="15" height="17" viewBox="0 0 15 17" fill="none" xmlns="http://www.w3.org/2000/svg">
<path d="M8.3334 6.17252H6.25007V5.96419C6.25007 5.68792 6.35982 5.42297 6.55517 5.22762C6.75052 5.03227 7.01547 4.92252 7.29173 4.92252C7.568 4.92252 7.83295 5.03227 8.0283 5.22762C8.22365 5.42297 8.3334 5.68792 8.3334 5.96419V6.17252ZM5.41673 10.3392H9.16673V7.42252H5.41673V10.3392ZM14.5834 3.67252V6.22252C14.5754 8.34696 13.9237 10.4191 12.7142 12.1656C11.5047 13.9122 9.79426 15.2511 7.8084 16.0059C7.47483 16.1282 7.10864 16.1282 6.77507 16.0059C4.78921 15.2511 3.07874 13.9122 1.86925 12.1656C0.659762 10.4191 0.00805199 8.34696 6.85014e-05 6.22252V3.68086C-0.00311621 3.35406 0.104829 3.03588 0.306206 2.77848C0.507583 2.52108 0.79044 2.33974 1.1084 2.26419C2.85777 1.8253 4.55395 1.19657 6.16673 0.389191L6.64174 0.155857C6.84309 0.0534044 7.06581 0 7.29173 0C7.51766 0 7.74038 0.0534044 7.94173 0.155857L8.41673 0.389191C10.0295 1.19657 11.7257 1.8253 13.4751 2.26419C13.7916 2.34244 14.0728 2.52451 14.2737 2.7813C14.4746 3.0381 14.5836 3.35481 14.5834 3.68086V3.67252ZM10.4167 7.20586C10.4151 6.96846 10.3312 6.73897 10.1792 6.55659C10.0272 6.37421 9.81662 6.25025 9.5834 6.20586V5.96419C9.5834 5.3564 9.34196 4.77351 8.91219 4.34374C8.48242 3.91397 7.89952 3.67252 7.29173 3.67252C6.68395 3.67252 6.10105 3.91397 5.67128 4.34374C5.24151 4.77351 5.00007 5.3564 5.00007 5.96419V6.21419C4.76685 6.25858 4.55627 6.38255 4.40428 6.56493C4.2523 6.74731 4.16834 6.97679 4.16673 7.21419V10.5475C4.16673 10.8238 4.27648 11.0887 4.47183 11.2841C4.66718 11.4794 4.93213 11.5892 5.2084 11.5892H9.37507C9.65134 11.5892 9.91629 11.4794 10.1116 11.2841C10.307 11.0887 10.4167 10.8238 10.4167 10.5475V7.20586Z" fill="#22C55E"/>
</svg>
