<svg width="57" height="60" viewBox="0 0 57 60" fill="none" xmlns="http://www.w3.org/2000/svg">
<path d="M30.8019 16.4715C29.3137 17.9565 26.9018 17.9565 25.4136 16.4715C23.9259 14.9865 23.9259 12.5787 25.4136 11.0937C26.9018 9.60873 29.3137 9.60873 30.8019 11.0937C32.2896 12.5787 32.2896 14.9865 30.8019 16.4715Z" fill="white"/>
<path d="M36.0067 22.2334C35.5425 22.2334 35.0784 22.0563 34.725 21.7015C34.0182 20.9938 34.0196 19.8471 34.7273 19.1408C36.1614 17.7093 36.9511 15.8064 36.9511 13.7827C36.9511 11.7589 36.1614 9.85597 34.7273 8.42455C34.0196 7.71776 34.0182 6.57152 34.725 5.86336C35.4313 5.15566 36.578 5.15429 37.2857 5.86108C39.4056 7.97686 40.5729 10.7898 40.5729 13.7827C40.5729 16.7751 39.4056 19.5885 37.2857 21.7042C36.9323 22.0572 36.4695 22.2334 36.0067 22.2334Z" fill="white"/>
<path d="M40.1028 27.565C39.6386 27.565 39.1744 27.3878 38.821 27.0335C38.1143 26.3254 38.1156 25.1791 38.8233 24.4724C41.6843 21.6168 43.2604 17.8206 43.2604 13.7827C43.2604 9.74475 41.6843 5.94853 38.8233 3.093C38.1156 2.38622 38.1143 1.23998 38.821 0.531822C39.5278 -0.175879 40.6741 -0.177252 41.3818 0.529533C44.9285 4.06941 46.8822 8.77613 46.8818 13.7827C46.8818 18.7892 44.9285 23.4964 41.3818 27.0363C41.0284 27.3888 40.5656 27.565 40.1028 27.565Z" fill="white"/>
<path d="M20.1997 22.2335C19.7369 22.2335 19.2741 22.0572 18.9203 21.7043C16.8004 19.5885 15.6331 16.7751 15.6331 13.7827C15.6331 10.7899 16.8004 7.9769 18.9203 5.86113C19.628 5.15434 20.7746 5.15526 21.481 5.86341C22.1878 6.57112 22.1864 7.71781 21.4787 8.4246C20.0445 9.85602 19.2549 11.7589 19.2549 13.7827C19.2549 15.8065 20.0445 17.7094 21.4787 19.1408C22.1864 19.8471 22.1878 20.9938 21.481 21.7015C21.1276 22.0559 20.6634 22.2335 20.1997 22.2335Z" fill="white"/>
<path d="M16.1036 27.565C15.6404 27.565 15.1776 27.3887 14.8242 27.0358C11.2774 23.4959 9.32416 18.7892 9.32416 13.7827C9.32416 8.77565 11.2774 4.06894 14.8242 0.52906C15.5319 -0.177268 16.6786 -0.176352 17.3849 0.531807C18.0917 1.23951 18.0903 2.38575 17.3826 3.09253C14.5216 5.94805 12.9455 9.74428 12.9455 13.7822C12.9455 17.8201 14.5216 21.6168 17.3826 24.4723C18.0903 25.1791 18.0917 26.3254 17.3849 27.0335C17.0315 27.3878 16.5673 27.565 16.1036 27.565Z" fill="white"/>
<path d="M51.9703 30.6957H4.23614C1.89651 30.6957 0 32.5922 0 34.9314V55.7637C0 58.1033 1.89651 59.9998 4.23614 59.9998H51.9698C54.3094 59.9998 56.2059 58.1033 56.2059 55.7637V34.9314C56.2059 32.5922 54.3094 30.6957 51.9703 30.6957ZM13.9302 54.5648H7.25828C6.25853 54.5648 5.44783 53.7541 5.44783 52.7539V37.9416C5.44783 36.9419 6.25853 36.1307 7.25828 36.1307C8.2585 36.1307 9.06919 36.9414 9.06919 37.9416V50.943H13.9302C14.9304 50.943 15.7411 51.7537 15.7411 52.7539C15.7411 53.7541 14.9304 54.5648 13.9302 54.5648ZM21.3514 52.7539C21.3514 53.7541 20.5407 54.5648 19.5405 54.5648C18.5403 54.5648 17.7296 53.7541 17.7296 52.7539V37.9416C17.7296 36.9419 18.5403 36.1307 19.5405 36.1307C20.5407 36.1307 21.3514 36.9414 21.3514 37.9416V52.7539ZM36.5876 38.4653L32.1157 53.2771C32.1153 53.2785 32.1148 53.2799 32.1143 53.2812C31.6287 54.9388 29.1526 54.898 28.65 53.2812C28.6495 53.2799 28.6491 53.2785 28.6486 53.2771L24.1767 38.4653C23.8879 37.5076 24.4294 36.4974 25.3871 36.2081C26.3438 35.9192 27.355 36.4607 27.6438 37.4184L30.3822 46.488L33.1205 37.4184C33.4098 36.4607 34.4201 35.9188 35.3777 36.2081C36.3349 36.4974 36.8769 37.5076 36.5876 38.4653ZM47.7282 42.6044C48.7284 42.6044 49.5391 43.4151 49.5391 44.4153C49.5391 45.415 48.7284 46.2262 47.7282 46.2262H42.5893V50.943H48.7037C49.7039 50.943 50.5146 51.7537 50.5146 52.7539C50.5146 53.7541 49.7039 54.5648 48.7037 54.5648H40.7784C39.7782 54.5648 38.9675 53.7541 38.9675 52.7539V37.9416C38.9675 36.9419 39.7782 36.1307 40.7784 36.1307H48.9476C49.9474 36.1307 50.7586 36.9414 50.7586 37.9416C50.7586 38.9418 49.9474 39.7525 48.9476 39.7525H42.5889V42.6044H47.7282Z" fill="white"/>
</svg>
