<svg width="20" height="20" viewBox="0 0 20 20" fill="none" xmlns="http://www.w3.org/2000/svg">
<path d="M18.617 7.62689C18.3602 7.45452 18.1284 7.24777 17.9279 7.01235C17.9428 6.68457 18.0086 6.36113 18.1232 6.0537C18.3384 5.32495 18.6065 4.418 18.0898 3.70832C17.5694 2.993 16.6187 2.96898 15.8549 2.94946C15.5336 2.96229 15.2122 2.92775 14.901 2.84691C14.7298 2.57848 14.5992 2.28634 14.5132 1.97982C14.2583 1.25403 13.9409 0.350691 13.0906 0.0743907C12.2656 -0.193741 11.5253 0.315686 10.8724 0.763666C10.6101 0.973138 10.3155 1.13872 10.0002 1.254C9.68476 1.13885 9.39005 0.973237 9.12766 0.763666C8.4748 0.315293 7.73422 -0.192527 6.90942 0.0743907C6.05942 0.350691 5.74204 1.25357 5.4869 1.97953C5.40108 2.2845 5.27185 2.57556 5.10319 2.84376C4.79097 2.92706 4.46795 2.96259 4.1451 2.94917C3.38135 2.96866 2.43064 2.9927 1.91022 3.708C1.39354 4.41807 1.66161 5.32502 1.87689 6.05383C1.99007 6.35965 2.05654 6.68077 2.07403 7.00641C1.87443 7.24515 1.64169 7.45413 1.38291 7.62692C0.766667 8.09688 0 8.68196 0 9.58734C0 10.4927 0.766667 11.0778 1.38304 11.5478C1.63976 11.7202 1.87164 11.9269 2.07212 12.1623C2.05723 12.4901 1.99135 12.8135 1.87682 13.121C1.66158 13.8497 1.39348 14.7567 1.91015 15.4664C2.43057 16.1817 3.38129 16.2057 4.14507 16.2252C4.46638 16.2124 4.78779 16.247 5.09903 16.3278C5.27015 16.5962 5.40082 16.8884 5.48681 17.1949C5.74195 17.9208 6.05932 18.824 6.90951 19.1004C7.06013 19.1498 7.21767 19.1749 7.37619 19.1749C8.01606 19.1749 8.60035 18.7733 9.12773 18.4111C9.39008 18.2016 9.68463 18.036 9.99997 17.9207C10.3154 18.0358 10.6101 18.2014 10.8726 18.411C11.5254 18.8594 12.2658 19.3668 13.0908 19.1003C13.9408 18.824 14.2582 17.9211 14.5133 17.1951C14.5991 16.8902 14.7284 16.5991 14.897 16.3309C15.2093 16.2476 15.5323 16.2121 15.8551 16.2255C16.6189 16.206 17.5696 16.182 18.09 15.4667C18.6067 14.7566 18.3386 13.8496 18.1233 13.1208C18.0102 12.815 17.9437 12.4939 17.9262 12.1683C18.1258 11.9295 18.3585 11.7205 18.6173 11.5478C19.2333 11.0778 20 10.4927 20 9.58734C20 8.68196 19.2333 8.09688 18.617 7.62689ZM13.7142 8.09321L9.54752 12.2599C9.22221 12.5853 8.69471 12.5854 8.36929 12.2601C8.36923 12.26 8.36916 12.2599 8.3691 12.2599L6.28576 10.1765C5.95621 9.85524 5.94952 9.32764 6.27079 8.99809C6.59207 8.66855 7.11968 8.66185 7.44922 8.98313C7.45427 8.98805 7.45926 8.99304 7.46418 8.99809L8.95831 10.4923L12.5358 6.91475C12.8571 6.5852 13.3847 6.57854 13.7142 6.89982C14.0438 7.2211 14.0504 7.7487 13.7291 8.07825C13.7242 8.08333 13.7192 8.08829 13.7142 8.09321Z" fill="#22C55E"/>
</svg>
