<svg width="32" height="32" viewBox="0 0 32 32" fill="none" xmlns="http://www.w3.org/2000/svg">
<path d="M26.6667 17.3333C26.6667 23.9999 22 27.3333 16.4533 29.2666C16.1629 29.365 15.8474 29.3603 15.56 29.2533C10 27.3333 5.33333 23.9999 5.33333 17.3333V7.99995C5.33333 7.64633 5.4738 7.30719 5.72385 7.05714C5.9739 6.80709 6.31304 6.66662 6.66666 6.66662C9.33333 6.66662 12.6667 5.06662 14.9867 3.03995C15.2691 2.79861 15.6285 2.66602 16 2.66602C16.3715 2.66602 16.7309 2.79861 17.0133 3.03995C19.3467 5.07995 22.6667 6.66662 25.3333 6.66662C25.687 6.66662 26.0261 6.80709 26.2761 7.05714C26.5262 7.30719 26.6667 7.64633 26.6667 7.99995V17.3333Z" stroke="#F94F40" stroke-width="2" stroke-linecap="round" stroke-linejoin="round"/>
<path d="M16 10.6667V16.0001" stroke="#F94F40" stroke-width="2" stroke-linecap="round" stroke-linejoin="round"/>
<path d="M16 21.3333H16.0133" stroke="#F94F40" stroke-width="2" stroke-linecap="round" stroke-linejoin="round"/>
</svg>
