<svg width="49" height="54" viewBox="0 0 49 54" fill="none" xmlns="http://www.w3.org/2000/svg">
<path d="M46.446 27.6H37.974C37.1262 27.6 36.2867 27.767 35.5034 28.0914C34.7201 28.4159 34.0084 28.8914 33.4089 29.4909C32.8094 30.0904 32.3339 30.8021 32.0094 31.5854C31.685 32.3687 31.518 33.2082 31.518 34.056C31.518 34.9038 31.685 35.7433 32.0094 36.5266C32.3339 37.3099 32.8094 38.0216 33.4089 38.6211C34.0084 39.2206 34.7201 39.6961 35.5034 40.0206C36.2867 40.345 37.1262 40.512 37.974 40.512H46.446C46.9065 40.4576 47.3283 40.2276 47.6233 39.8699C47.9184 39.5122 48.0641 39.0545 48.03 38.592V29.538C48.069 29.0726 47.9255 28.6102 47.63 28.2486C47.3344 27.887 46.9099 27.6544 46.446 27.6ZM37.962 36.6C37.4669 36.6 36.9829 36.4531 36.5713 36.1779C36.1598 35.9027 35.8391 35.5116 35.6499 35.0541C35.4607 34.5966 35.4115 34.0932 35.5085 33.6077C35.6055 33.1222 35.8444 32.6764 36.195 32.3267C36.5455 31.977 36.9918 31.7392 37.4776 31.6433C37.9633 31.5475 38.4666 31.5979 38.9236 31.7882C39.3807 31.9785 39.7711 32.3001 40.0453 32.7123C40.3195 33.1246 40.4652 33.6089 40.464 34.104C40.4624 34.7665 40.1981 35.4014 39.7291 35.8693C39.26 36.3372 38.6245 36.6 37.962 36.6ZM10.464 17.49C10.1728 19.6694 10.3178 21.885 10.8905 24.0079C11.4632 26.1308 12.4522 28.1187 13.8 29.856L13.872 29.952C13.9627 30.0694 14.079 30.1646 14.2121 30.2301C14.3453 30.2956 14.4916 30.3298 14.64 30.33C14.7398 30.3287 14.8389 30.3126 14.934 30.282C15.1214 30.22 15.2856 30.1024 15.4046 29.9449C15.5235 29.7873 15.5917 29.5973 15.6 29.4C15.6762 27.2271 16.2314 25.0978 17.2261 23.1644C18.2208 21.2311 19.6304 19.5413 21.354 18.216L27.516 13.464L30.732 17.664C30.8417 17.8083 30.9899 17.9189 31.1595 17.983C31.3291 18.0471 31.5133 18.0621 31.6911 18.0264C31.8688 17.9908 32.033 17.9058 32.1647 17.7812C32.2964 17.6566 32.3904 17.4975 32.436 17.322L33.27 14.184H42.462C43.3935 14.184 44.2869 14.5536 44.9461 15.2117C45.6053 15.8698 45.9764 16.7625 45.978 17.694V25.68H37.974C35.7462 25.68 33.6096 26.565 32.0343 28.1403C30.459 29.7156 29.574 31.8522 29.574 34.08C29.574 36.3078 30.459 38.4444 32.0343 40.0197C33.6096 41.595 35.7462 42.48 37.974 42.48H45.978V50.484C45.9764 51.416 45.6055 52.3094 44.9464 52.9684C44.2874 53.6275 43.394 53.9984 42.462 54H3.462C2.53938 53.9843 1.65978 53.6071 1.01237 52.9496C0.364953 52.2921 0.00143809 51.4068 0 50.484V17.658C0.00158953 16.7265 0.372726 15.8338 1.03193 15.1757C1.69114 14.5176 2.58454 14.148 3.516 14.148H11.244C10.8701 15.2323 10.6087 16.3522 10.464 17.49ZM13.578 13.518C14.569 11.3132 16.0877 9.3865 18 7.908L22.068 4.8C22.271 4.64274 22.4045 4.41234 22.44 4.158C22.4559 4.03181 22.4466 3.9037 22.4127 3.78113C22.3787 3.65856 22.3207 3.54396 22.242 3.444L19.626 0.036L35.034 0L31.086 14.892L28.476 11.508C28.3984 11.4066 28.3015 11.3216 28.1908 11.2579C28.0801 11.1942 27.958 11.1531 27.8313 11.1369C27.7046 11.1207 27.576 11.1298 27.4529 11.1636C27.3298 11.1975 27.2146 11.2554 27.114 11.334L20.184 16.674C16.9958 19.1322 14.8015 22.658 14.004 26.604C12.943 24.6124 12.3504 22.4049 12.2714 20.1497C12.1924 17.8945 12.629 15.651 13.548 13.59C13.5554 13.565 13.5655 13.5409 13.578 13.518Z" fill="white"/>
</svg>
